<svg  viewBox="0 0 400 400" fill="none" xmlns="http://www.w3.org/2000/svg">
<!-- width="400" height="400" -->
<path fill-rule="evenodd" clip-rule="evenodd" d="M190.19 298.829C140.852 288.031 75.1139 266.602 85.9165 193.076C96.7191 119.55 143.026 91.2 200.317 91.2C257.605 91.2 322.694 134.422 309.916 223.96C297.139 313.498 239.529 309.627 190.19 298.829ZM352.362 210.198C354.4 189.739 352.235 169.496 346.42 150.52L363.011 141.633C365.807 140.135 366.859 136.656 365.364 133.86L342.714 91.5724C341.214 88.7768 337.734 87.7246 334.937 89.222L318.347 98.1091C305.769 82.7569 290.117 69.7386 271.961 60.0979L277.403 42.0902C278.323 39.0545 276.606 35.8501 273.569 34.9323L227.65 21.0473C224.613 20.1296 221.411 21.8462 220.492 24.8818L215.049 42.8895C194.587 40.8527 179.68 48.3506 160.703 54.1621L151.815 37.571C150.318 34.7754 146.838 33.7233 144.043 35.2206L101.755 57.8725C98.9599 59.3698 97.9077 62.8497 99.405 65.6448L108.292 82.2364C92.94 94.8132 74.5884 105.132 64.9477 123.292L46.9395 117.847C43.9044 116.929 40.6994 118.645 39.7817 121.681L25.8971 167.6C24.9794 170.636 26.696 173.84 29.7312 174.758L47.7393 180.203C45.7025 200.662 47.8671 220.905 53.6785 239.881L37.0875 248.769C34.2919 250.266 33.2398 253.746 34.7371 256.542L57.389 298.829C58.8863 301.624 62.3662 302.677 65.1613 301.179L81.7528 292.292C94.3297 307.645 109.982 320.663 128.141 330.304L122.696 348.311C121.779 351.347 123.495 354.552 126.53 355.469L172.451 369.352C175.483 370.272 178.69 368.555 179.609 365.518L185.051 347.512C205.509 349.549 225.754 347.384 244.731 341.572L253.616 358.164C255.116 360.959 258.596 362.009 261.393 360.514L303.68 337.862C306.472 336.365 307.528 332.885 306.029 330.09L297.139 313.498C312.494 300.921 325.51 285.269 335.154 267.11L353.159 272.555C356.196 273.472 359.403 271.756 360.318 268.721L374.202 222.801C375.121 219.766 373.405 216.561 370.368 215.643L352.362 210.198Z" fill="#FFC906"/>
<path fill-rule="evenodd" clip-rule="evenodd" d="M263.516 106.96L261.917 106.906L261.872 108.327C261.796 110.883 261.831 113.618 261.869 116.6C261.896 118.677 261.924 120.875 261.917 123.216L261.652 127.839C261.659 132.146 261.689 138.14 261.742 145.822L261.916 167.691C260.741 168.081 259.858 169.096 259.681 170.33C258.711 170.478 257.966 171.301 257.966 172.292C257.966 172.993 258.34 173.61 258.902 173.963L258.218 175.617C257.914 176.351 257.412 176.979 256.768 177.433C253.942 179.421 252.278 182.641 252.317 186.046C252.318 186.136 252.321 186.226 252.324 186.316C252.336 186.643 252.616 186.895 252.95 186.886C253.283 186.874 253.543 186.599 253.531 186.273C253.528 186.193 253.526 186.113 253.525 186.032C253.49 183.013 255.499 180.157 258.005 178.394C258.836 177.81 259.481 177.003 259.87 176.061L260.075 174.277H260.934C260.934 174.277 261.232 175.883 261.232 177.138C261.232 178.393 260.934 180.879 260.934 180.879H259.944C258.81 180.879 257.888 181.782 257.888 182.893C257.888 184.003 258.81 184.906 259.944 184.906H260.086C261.219 184.906 261.608 184.326 261.608 182.893C261.608 182.142 261.691 181.605 262.916 181.605C264.14 181.605 263.825 182.893 263.825 182.893C263.825 184.003 264.747 184.906 265.881 184.906H266.023C267.156 184.906 268.078 184.003 268.078 182.893C268.078 181.782 266.166 180.843 265.033 180.843C265.033 180.843 264.731 178.584 264.731 177.433C264.731 176.463 265.033 174.479 265.033 174.479H263.825C263.825 174.479 264.077 176.33 264.077 177.46C264.077 178.59 263.825 180.843 263.825 180.843C263.825 180.843 263.159 180.963 262.842 180.97C262.524 180.977 262.141 180.879 262.141 180.879C262.141 180.879 261.877 178.569 261.877 177.46C261.877 176.352 262.141 174.277 262.141 174.277H263.825H265.033H265.892L266.629 176.06C267 176.956 268.11 177.743 268.955 178.342L269.062 178.418C271.513 180.158 272.442 182.965 272.442 185.925C272.442 188.425 271.441 190.769 269.622 192.524C267.805 194.279 265.397 195.759 262.842 195.722C260.816 195.694 258.744 194.577 257.124 193.367C255.556 192.195 253.525 188.99 253.187 188.25C252.849 187.51 252.69 188.678 252.788 188.99C253.439 191.053 254.77 192.916 256.536 194.236C258.363 195.601 260.537 196.339 262.824 196.372C265.706 196.413 268.42 195.346 270.47 193.367C272.521 191.388 273.65 188.745 273.65 185.925C273.65 182.587 272.001 179.422 269.238 177.46C268.565 176.982 268.05 176.345 267.749 175.616L267.065 173.963C267.627 173.61 268 172.993 268 172.292C268 171.301 267.256 170.478 266.286 170.33C266.086 168.938 264.989 167.826 263.587 167.573L263.51 167.573L262.583 147.237C262.528 139.496 263.252 124.025 263.252 124.025C263.265 118.075 263.338 112.858 263.471 108.376L263.516 106.96ZM265.881 183.723C265.413 183.723 265.033 183.351 265.033 182.893V181.605C265.033 181.605 266.87 181.973 266.87 182.893C266.87 183.736 266.55 183.731 266.136 183.724C266.099 183.724 266.061 183.723 266.022 183.723H265.881ZM258.634 182.893C258.712 184.049 261.111 184.553 260.934 182.893V181.605C260.934 181.605 258.556 181.736 258.634 182.893ZM260.912 170.306C261.134 169.387 261.978 168.702 262.983 168.702C263.988 168.702 264.832 169.387 265.054 170.306H260.912ZM265.973 171.489H265.715H260.251H259.993C259.542 171.489 259.174 171.849 259.174 172.292C259.174 172.734 259.542 173.094 259.993 173.094H265.973C266.425 173.094 266.792 172.734 266.792 172.292C266.792 171.849 266.425 171.489 265.973 171.489ZM276.322 176.64H277.378C277.675 176.64 277.917 176.401 277.917 176.107C277.917 175.812 277.675 175.573 277.378 175.573H276.322C276.025 175.573 275.783 175.812 275.783 176.107C275.783 176.401 276.025 176.64 276.322 176.64ZM275.483 180.415L276.499 180.843C276.785 180.963 276.924 181.305 276.81 181.605C276.695 181.906 276.37 182.051 276.083 181.931L275.067 181.503C274.781 181.383 274.642 181.042 274.757 180.741C274.844 180.512 275.054 180.373 275.276 180.373C275.345 180.373 275.415 180.387 275.483 180.415ZM274.577 171.718L275.529 170.955C275.797 170.739 275.864 170.313 275.678 170.002C275.564 169.81 275.379 169.707 275.192 169.707C275.076 169.707 274.959 169.746 274.856 169.828L273.905 170.592C273.636 170.807 273.569 171.234 273.755 171.545C273.941 171.856 274.309 171.933 274.577 171.718ZM249.111 176.64H248.055C247.758 176.64 247.517 176.401 247.517 176.107C247.517 175.812 247.758 175.573 248.055 175.573H249.111C249.409 175.573 249.65 175.812 249.65 176.107C249.65 176.401 249.409 176.64 249.111 176.64ZM249.95 180.415L248.934 180.843C248.648 180.963 248.509 181.305 248.624 181.605C248.738 181.906 249.064 182.051 249.35 181.931L250.366 181.503C250.652 181.383 250.791 181.042 250.676 180.741C250.589 180.512 250.379 180.373 250.158 180.373C250.088 180.373 250.018 180.387 249.95 180.415ZM250.856 171.718L249.905 170.955C249.636 170.739 249.569 170.313 249.755 170.002C249.87 169.81 250.054 169.707 250.241 169.707C250.357 169.707 250.474 169.746 250.577 169.828L251.529 170.592C251.797 170.807 251.864 171.234 251.678 171.545C251.493 171.856 251.125 171.933 250.856 171.718Z" fill="#FFB61D"/>
<path d="M184.727 255.884C190.61 257.432 193.629 261.117 196.178 264.549C198.733 267.98 193.117 266.348 190.018 265.109C186.919 263.87 179.458 259.289 179.458 259.289L154.722 251.808V240.367L162.119 239.935C162.119 239.935 178.839 254.335 184.727 255.884Z" fill="white"/>
<path d="M159.096 172.091C164.387 192.114 167.118 211.273 167.55 229.652C167.55 229.652 172.504 230.272 171.886 234.607C171.267 238.943 158.259 250.709 158.259 250.709L153.752 235.771L152.067 180.725L159.096 172.091Z" fill="white"/>
<path fill-rule="evenodd" clip-rule="evenodd" d="M160.901 182.338L157.863 180.323C157.669 180.195 157.413 180.295 157.343 180.526L156.284 184.045C156.196 184.338 156.459 184.612 156.733 184.512L160.83 183.009C161.109 182.906 161.152 182.505 160.901 182.338ZM160.533 182.92L156.8 184L157.911 180.8L160.533 182.92Z" fill="#FFB61D"/>
<path fill-rule="evenodd" clip-rule="evenodd" d="M159.568 207.672L156.53 205.657C156.336 205.528 156.08 205.628 156.01 205.86L154.951 209.378C154.862 209.671 155.126 209.946 155.399 209.846L159.497 208.342C159.776 208.24 159.819 207.838 159.568 207.672ZM159.2 208.254L155.467 209.333L156.578 206.133L159.2 208.254Z" fill="#FFB61D"/>
<path fill-rule="evenodd" clip-rule="evenodd" d="M157.971 221.905L158.197 218.266C158.211 218.034 157.997 217.862 157.761 217.917L154.184 218.759C153.886 218.829 153.78 219.195 154.004 219.381L157.354 222.178C157.583 222.369 157.952 222.205 157.971 221.905ZM157.283 221.877L154.481 219.184L157.808 218.546L157.283 221.877Z" fill="#FFB61D"/>
<path fill-rule="evenodd" clip-rule="evenodd" d="M163.728 219.22L160.09 218.994C159.857 218.979 159.686 219.194 159.741 219.43L160.583 223.006C160.653 223.304 161.019 223.41 161.205 223.187L164.002 219.836C164.193 219.608 164.029 219.239 163.728 219.22ZM163.701 219.908L161.007 222.71L160.37 219.383L163.701 219.908Z" fill="#FFB61D"/>
<path fill-rule="evenodd" clip-rule="evenodd" d="M160.919 237.768L157.655 239.391C157.447 239.495 157.405 239.767 157.571 239.943L160.089 242.62C160.298 242.843 160.668 242.752 160.718 242.465L161.464 238.165C161.515 237.872 161.189 237.634 160.919 237.768ZM161.239 238.377L160.308 242.151L158.092 239.588L161.239 238.377Z" fill="#FFB61D"/>
<path fill-rule="evenodd" clip-rule="evenodd" d="M162.52 227.635L159.255 229.258C159.047 229.362 159.006 229.634 159.171 229.81L161.689 232.487C161.898 232.71 162.268 232.619 162.318 232.332L163.065 228.032C163.115 227.739 162.789 227.501 162.52 227.635ZM162.839 228.244L161.908 232.017L159.692 229.455L162.839 228.244Z" fill="#FFB61D"/>
<path d="M141.359 184.131L137.769 194.967C129.565 219.782 125.525 232.378 125.404 233.559C125.329 234.293 125.773 234.841 126.459 235.027C126.872 235.139 127.376 235.133 128.002 235.04C128.976 234.896 130.279 234.531 131.852 233.987C133.067 233.567 134.381 233.063 135.712 232.519L136.272 232.287C136.454 232.212 136.63 232.137 136.802 232.065L137.691 231.682L137.945 231.57L138.092 231.335C138.355 230.917 138.728 230.179 139.096 229.167C139.42 228.278 139.678 227.326 139.848 226.32L139.907 225.94C139.96 225.57 140.467 224.715 141.513 223.255L142.242 222.258C142.84 221.452 143.99 219.912 144.106 219.756L144.782 218.84C145.429 217.959 145.993 217.172 146.544 216.378C149.31 212.397 151.264 208.912 152.417 205.558C153.395 202.713 153.738 200.077 153.351 197.654C152.758 193.955 152.985 190.421 153.85 187.104C154.57 184.348 152.295 181.805 149.015 180.87C145.627 179.904 142.398 180.998 141.359 184.131Z" fill="white"/>
<path d="M147.365 168.108C149.364 170.23 151.042 171.848 152.397 172.962C154.681 174.839 157.954 176.85 162.217 178.996C149.177 182.016 141.214 182.613 138.33 180.787C138.33 180.787 139.531 175.133 141.258 172.71C142.543 170.906 147.365 168.108 147.365 168.108Z" fill="white"/>
<path d="M168.109 140.849C165.399 151.139 157.997 161.882 150.114 159.807C142.231 157.732 137.869 143.667 140.578 133.377C143.287 123.087 151.874 116.427 159.757 118.502C167.639 120.577 170.818 130.559 168.109 140.849Z" fill="white"/>
<path d="M169.912 144.131C166.846 155.907 158.468 168.201 149.548 165.827C140.627 163.452 135.69 147.356 138.756 135.58C141.822 123.804 151.539 116.183 160.46 118.557C169.381 120.931 172.978 132.355 169.912 144.131Z" fill="white"/>
<path fill-rule="evenodd" clip-rule="evenodd" d="M155.675 119.912C161.754 120.257 166.191 122.254 168.678 125.773L168.958 126.18C170.188 127.955 171.222 129.072 171.674 132.432L171.718 132.789C171.976 134.999 172.052 137.331 171.919 138.104C171.848 138.431 171.707 138.546 171.53 138.511C171.129 138.432 170.088 136.583 168.409 132.964L167 134.614C166.233 135.499 164.607 136.334 163.643 136.962C162.68 137.59 155.675 119.912 155.675 119.912Z" fill="#E7EAEE"/>
<path fill-rule="evenodd" clip-rule="evenodd" d="M161.813 153.339C165.198 154.751 167.769 156.584 168.451 155.822C169.133 155.059 166.808 152.737 165.001 149.583C163.11 146.447 161.313 142.496 160.978 140.889L160.118 136.826C157.603 140 155.248 150.65 161.813 153.339Z" fill="white"/>
<path d="M201.167 347.265L200.983 358.562H194.558L192.633 345.6L201.167 347.265Z" fill="white"/>
<path d="M130.795 287.194C130.795 287.194 172.487 286.273 185.593 284.383C200.142 282.284 208.099 277.325 211.263 277.911C212.746 278.185 221.497 279.736 239.758 281.678C247.481 282.5 267.528 282.626 267.528 282.626L275.309 266.065C275.309 266.065 220.555 255.072 203.244 259.83C197.799 261.327 186.007 263.486 171.987 262.698C159.864 262.016 126.892 255.612 126.892 255.612C126.892 255.612 113.58 260.39 115.989 272.142C118.399 283.894 130.795 287.194 130.795 287.194Z" fill="white"/>
<path fill-rule="evenodd" clip-rule="evenodd" d="M270.848 273.15L273.411 265.729C273.411 265.729 218.749 255.533 201.438 260.291C195.993 261.788 191.072 264.255 177.052 263.467C171.685 263.165 162.509 261.909 149.523 259.698C142.954 258.58 141.899 258.994 147.062 262.37C159.034 270.199 185.665 268.354 209.828 264.826C254.736 258.269 270.848 273.15 270.848 273.15Z" fill="#E7EAEE"/>
<path d="M193.913 349.83C191.193 352.836 187.588 357.785 189.444 362.74L221.652 372.649C221.652 372.649 222.889 368.932 221.033 365.838C219.172 362.74 201.599 350.515 201.599 350.515L193.913 349.83Z" fill="white"/>
<path fill-rule="evenodd" clip-rule="evenodd" d="M208.78 356.542C208.993 356.484 209.212 356.61 209.27 356.824C209.328 357.037 209.202 357.256 208.989 357.314C207.94 357.598 207.249 358.261 207.006 359.101C206.691 360.186 206.657 361.296 207.014 363.072C207.057 363.288 206.917 363.499 206.7 363.543C206.483 363.586 206.273 363.446 206.229 363.229C205.848 361.33 205.886 360.09 206.237 358.878C206.559 357.767 207.464 356.898 208.78 356.542Z" fill="#E7EAEE"/>
<path fill-rule="evenodd" clip-rule="evenodd" d="M191.044 363.273L222.73 372.596C222.73 372.596 226.754 371.75 222.593 371.159C218.318 370.552 193.287 359.09 190.534 361.177C190.142 361.474 190.801 362.626 191.044 363.273Z" fill="#E7EAEE"/>
<path d="M112.091 284.83C112.091 284.83 126.389 289.343 137.903 291.035C149.416 292.726 172.382 293.689 172.382 293.689C172.382 293.689 179.552 297.587 180.015 299.392C180.195 300.095 181.281 309.385 184.285 321.253C185.698 326.836 193.249 352.081 193.249 352.081L203.244 347.657C203.244 347.657 202.842 301.256 196.463 285.866C190.083 270.476 124.503 255.528 124.503 255.528C124.503 255.528 110.584 253.01 106.795 264.393C103.006 275.775 112.091 284.83 112.091 284.83Z" fill="white"/>
<path fill-rule="evenodd" clip-rule="evenodd" d="M194.849 350.481L204.844 346.057C204.576 315.123 202.316 294.526 198.062 284.266C198.062 284.266 202.409 338.885 194.849 350.481Z" fill="#E7EAEE"/>
<path d="M282.002 273.76C284.49 276.96 288.738 281.37 293.939 280.403L309.291 250.405C309.291 250.405 305.341 248.658 301.972 249.948C298.598 251.243 283.758 266.729 283.758 266.729L282.002 273.76Z" fill="white"/>
<path fill-rule="evenodd" clip-rule="evenodd" d="M215.323 361.869C215.482 361.716 215.735 361.722 215.888 361.881C216.041 362.041 216.036 362.294 215.876 362.447C214.947 363.337 214.774 364.829 215.308 365.73C215.42 365.92 215.357 366.166 215.167 366.278C214.977 366.391 214.732 366.328 214.619 366.138C213.9 364.923 214.12 363.022 215.323 361.869Z" fill="#E7EAEE"/>
<path fill-rule="evenodd" clip-rule="evenodd" d="M212.055 359.231C212.216 359.08 212.469 359.088 212.62 359.249C212.772 359.41 212.764 359.663 212.603 359.814L212.386 360.022C210.704 361.678 210.222 363.125 211.703 364.677C211.856 364.837 211.85 365.091 211.69 365.243C211.53 365.395 211.277 365.389 211.124 365.23C210.03 364.082 209.805 362.843 210.29 361.602C210.624 360.747 211.206 360.029 212.055 359.231Z" fill="#E7EAEE"/>
<path fill-rule="evenodd" clip-rule="evenodd" d="M196.66 358.707C197.578 360.462 202.452 359.742 201.604 354.888C201.203 352.591 194.117 353.846 196.66 358.707Z" fill="#E7EAEE"/>
<path fill-rule="evenodd" clip-rule="evenodd" d="M290.896 280.961C297.338 273.599 301.041 257.043 306.345 251.346C308.218 249.335 310.647 248.884 308.033 253.645C303.249 262.355 294.056 280.961 294.056 280.961C293.569 281.204 292.967 280.961 292.423 280.961H290.896Z" fill="#E7EAEE"/>
<path d="M184.727 255.884C190.61 257.432 193.629 261.117 196.178 264.549C198.733 267.98 193.117 266.348 190.018 265.109C186.919 263.87 180.992 259.17 180.992 259.17L184.727 255.884Z" fill="white"/>
<path d="M131.143 241.949C131.143 241.949 164.258 256.174 168.925 256.193C173.586 256.212 185.026 261.767 185.645 266.102C186.397 271.376 166.445 263.625 166.445 263.625C166.445 263.625 121.853 263.625 114.423 256.193C106.989 248.761 111.943 233.278 111.943 233.278L131.143 241.949Z" fill="white"/>
<path d="M123.09 175.68C123.09 175.68 131.143 180.635 132.381 196.737C133.618 212.84 128.663 232.039 128.663 232.039C128.663 232.039 131.762 234.517 132.381 236.994C132.999 239.471 131.117 242.741 131.117 242.741C131.117 242.741 112.563 251.858 111.324 252.477C110.086 253.096 105.131 251.238 105.131 246.284C105.131 241.329 106.989 236.994 106.989 236.994C107.878 204.309 102.654 172.583 123.09 175.68Z" fill="white"/>
<path fill-rule="evenodd" clip-rule="evenodd" d="M155.895 141.416C157.8 138.865 161.826 138.035 162.901 142.062C162.901 142.062 163.726 144.492 162.062 145.993C156.965 150.592 153.99 143.967 155.895 141.416Z" fill="white"/>
<path fill-rule="evenodd" clip-rule="evenodd" d="M166.533 144.183C168.343 141.76 172.168 140.971 173.188 144.796C173.188 144.796 173.973 147.105 172.392 148.531C167.55 152.9 164.723 146.606 166.533 144.183Z" fill="white"/>
<path d="M151.714 175.202C151.714 175.202 151.714 204.973 152.151 221.609C152.589 238.245 148.775 254.637 141.49 267.455C134.205 280.275 135.196 298.612 129.826 299.975C87.3488 310.757 98.7852 178.817 114.502 170.386C130.218 161.955 135.41 160.169 135.41 160.169" fill="white"/>
<path fill-rule="evenodd" clip-rule="evenodd" d="M129.929 183.555L126.269 189.02C125.965 189.474 126.194 190.091 126.72 190.237L131.605 191.587C132.173 191.744 132.71 191.255 132.605 190.675L131.381 183.859C131.254 183.15 130.33 182.957 129.929 183.555ZM130.725 184.396L131.818 190.816L127.57 189.02L130.725 184.396Z" fill="#FFB61D"/>
<path fill-rule="evenodd" clip-rule="evenodd" d="M118.151 178.216L113.837 185.141C113.562 185.583 113.776 186.167 114.272 186.326L121.805 188.74C122.432 188.942 123.02 188.341 122.805 187.718L119.587 178.379C119.367 177.742 118.507 177.645 118.151 178.216ZM119.174 179.06L121.378 187.718L114.848 185.141L119.174 179.06Z" fill="#FFB61D"/>
<path fill-rule="evenodd" clip-rule="evenodd" d="M115.493 230.606L118.428 241.633C118.608 242.311 119.511 242.445 119.881 241.849L124.244 234.815C124.486 234.425 124.35 233.912 123.948 233.691L116.651 229.698C116.034 229.361 115.313 229.926 115.493 230.606ZM116.266 230.933L123.031 234.393L119.201 241.428L116.266 230.933Z" fill="#FFB61D"/>
<path fill-rule="evenodd" clip-rule="evenodd" d="M109.617 271.099L111.217 278.658C111.364 279.352 112.274 279.526 112.666 278.936L116.989 272.432C117.308 271.952 117.03 271.303 116.463 271.202L110.54 270.146C109.982 270.046 109.5 270.544 109.617 271.099ZM111.013 270.98L116.146 272.799L111.717 277.856L111.013 270.98Z" fill="#FFB61D"/>
<path fill-rule="evenodd" clip-rule="evenodd" d="M123.484 269.499L125.084 277.058C125.231 277.752 126.14 277.926 126.533 277.335L130.855 270.832C131.174 270.352 130.897 269.703 130.329 269.601L124.407 268.546C123.848 268.446 123.366 268.944 123.484 269.499ZM124.224 270.156L130.2 269.991L125.283 276.31L124.224 270.156Z" fill="#FFB61D"/>
<path fill-rule="evenodd" clip-rule="evenodd" d="M116.017 254.032L117.617 261.592C117.764 262.285 118.674 262.459 119.066 261.869L123.389 255.365C123.708 254.885 123.43 254.236 122.863 254.135L116.94 253.079C116.382 252.98 115.9 253.477 116.017 254.032ZM116.8 253.867L122.189 255.456L117.867 260.893L116.8 253.867Z" fill="#FFB61D"/>
<path fill-rule="evenodd" clip-rule="evenodd" d="M293.115 278.494C292.713 279.279 292.053 279.606 291.174 279.655C288.042 279.829 285.56 278.448 283.345 276.435C282.505 275.672 281.76 274.804 280.919 274.043C280.327 273.508 279.692 273.159 278.769 273.49C278.061 273.744 277.231 273.648 276.458 273.727C274.713 273.905 272.973 274.138 271.226 274.265C270.111 274.346 270.084 275.296 269.823 275.952C269.231 277.435 268.789 278.98 268.319 280.509C268.136 281.103 267.846 281.338 267.178 281.33C263.847 281.289 260.515 281.293 257.183 281.32C255.666 281.332 254.147 281.514 252.632 281.479C249.782 281.415 246.929 281.323 244.087 281.105C241.338 280.894 238.604 280.498 235.861 280.205C233.935 279.999 231.996 279.891 230.078 279.63C227.847 279.327 225.635 278.886 223.408 278.544C222.294 278.373 221.162 278.322 220.047 278.158C218.135 277.877 216.223 277.584 214.323 277.23C212.56 276.902 210.901 277.243 209.242 277.79C206.011 278.857 202.772 279.899 199.532 280.935C198.956 281.12 198.785 281.271 199.045 281.971C200 284.539 200.894 287.136 201.671 289.763C202.219 291.617 202.599 293.527 202.951 295.431C203.382 297.764 203.743 300.112 204.064 302.463C204.309 304.259 204.465 306.069 204.626 307.875C204.831 310.171 205.025 312.469 205.18 314.768C205.334 317.059 205.463 319.352 205.55 321.646C205.698 325.541 205.808 329.437 205.925 333.333C205.996 335.692 206.041 338.052 206.118 340.411C206.141 341.096 206.361 341.799 206.256 342.456C206.178 342.952 205.825 343.645 205.421 343.801C204.38 344.203 204.079 344.977 204.088 346.044C204.1 347.406 204.271 348.77 204.235 350.13C204.213 350.996 204.544 351.6 205.174 352.06C208.036 354.148 210.927 356.197 213.788 358.287C215.146 359.279 216.485 360.3 217.786 361.364C219.18 362.504 220.546 363.681 221.875 364.896C223.199 366.107 223.904 367.588 224.127 369.434C224.3 370.866 224.117 372.196 223.878 373.558C223.753 374.267 223.349 374.558 222.611 374.317C219.512 373.306 216.419 372.275 213.306 371.312C208.163 369.72 203.005 368.174 197.854 366.611C196.017 366.053 194.181 365.497 192.342 364.946C191.216 364.609 190.978 363.599 190.769 362.685C190.175 360.085 190.943 357.719 192.314 355.539C193.153 354.204 194.131 352.957 195.049 351.672C195.798 350.623 195.605 349.549 195.233 348.413C194.026 344.717 192.838 341.013 191.697 337.296C190.57 333.627 189.453 329.952 188.432 326.253C187.353 322.342 186.373 318.404 185.387 314.469C184.853 312.34 184.349 310.201 183.917 308.049C183.593 306.44 183.411 304.803 183.157 303.18C182.853 301.24 182.671 299.268 182.172 297.381C181.957 296.568 181.168 295.825 180.481 295.236C178.983 293.954 177.264 292.998 175.395 292.346C174.934 292.184 174.433 292.073 173.946 292.055C171.628 291.967 169.308 291.944 166.99 291.851C164.726 291.76 162.463 291.634 160.202 291.482C157.87 291.325 155.54 291.137 153.213 290.928C150.722 290.704 148.222 290.526 145.748 290.169C143.126 289.79 140.528 289.24 137.927 288.731C137.08 288.565 136.462 289.079 136.331 290.272C136.044 292.881 135.158 295.305 134.105 297.678C133.346 299.39 131.913 300.246 130.146 300.538C128.885 300.746 127.593 300.945 126.324 300.897C122.712 300.76 119.491 299.569 116.627 297.279C112.993 294.374 110.867 290.492 109.057 286.354C108.246 284.499 107.202 282.73 106.565 280.821C105.874 278.748 105.524 276.559 105.042 274.418C104.667 272.751 104.285 271.084 103.97 269.405C103.721 268.078 103.564 266.733 103.374 265.394C103.123 263.616 102.875 261.838 102.635 260.058C102.556 259.469 102.478 258.877 102.453 258.284C102.376 256.43 102.338 254.573 102.259 252.718C102.149 250.117 101.943 247.518 101.908 244.916C101.85 240.465 101.856 236.013 101.909 231.563C101.933 229.609 102.098 227.653 102.273 225.704C102.473 223.489 102.776 221.284 102.996 219.071C103.154 217.491 103.203 215.9 103.384 214.323C103.65 212.01 103.941 209.697 104.311 207.399C104.751 204.665 105.255 201.94 105.786 199.223C106.793 194.08 107.964 188.969 109.881 184.083C111.103 180.97 112.377 177.794 114.871 175.444C115.95 174.427 117.45 173.84 118.791 173.119C122.471 171.137 126.171 169.191 129.853 167.212C130.025 167.12 130.173 166.851 130.201 166.646C130.299 165.936 130.255 165.198 130.43 164.512C130.543 164.065 130.857 163.575 131.227 163.305C132.469 162.399 133.77 161.572 135.066 160.742C135.298 160.593 135.626 160.463 135.881 160.504C137.246 160.725 137.931 159.884 138.399 158.85C139.033 157.45 139.612 156.018 140.103 154.562C140.918 152.151 141.739 149.734 142.355 147.269C142.568 146.418 142.241 145.404 142.049 144.488C141.658 142.624 141.334 140.725 140.705 138.938C140.303 137.796 139.489 136.76 138.711 135.796C136.7 133.303 135.644 130.512 135.982 127.313C136.129 125.924 136.724 124.63 137.763 123.621C138.986 122.433 140.239 121.278 141.466 120.094C142.36 119.231 142.295 118.571 141.131 117.728C139.502 116.547 137.94 115.272 136.381 113.997C135.05 112.909 134.477 111.354 134.125 109.76C133.645 107.591 133.588 105.403 134.472 103.286C135.887 99.9006 137.925 97.1066 141.657 96.0532C144.946 95.1248 148.228 95.1877 151.179 97.0522C153.861 98.7463 155.565 101.27 156.314 104.384C157.194 108.039 156.193 111.328 154.346 114.457C154.191 114.719 154.175 115.063 154.095 115.369C154.369 115.42 154.642 115.506 154.919 115.519C158.472 115.681 162.003 116.075 165.185 117.769C169.361 119.991 171.988 123.514 173.146 128.099C173.32 128.785 173.318 129.523 173.341 130.239C173.418 132.679 173.425 135.124 173.569 137.56C173.599 138.069 173.988 138.693 174.404 139.019C176.401 140.583 177.08 144.412 175.223 146.679C175.037 146.906 174.88 147.156 174.697 147.385C173.984 148.283 172.949 148.719 171.919 148.536C171.041 148.38 170.967 148.675 170.677 149.323C170.059 150.705 169.318 152.042 168.519 153.33C167.449 155.058 166.356 156.783 165.118 158.39C164.37 159.361 163.36 160.142 162.414 160.944C161.265 161.916 160.051 162.81 158.882 163.759C158.298 164.232 157.659 164.476 156.913 164.368C156.141 164.257 155.706 164.691 155.48 165.317C155.043 166.526 154.648 167.752 154.303 168.99C154.23 169.251 154.384 169.632 154.542 169.891C155.921 172.161 157.29 174.437 158.731 176.667C159.9 178.477 161.229 180.186 162.361 182.017C163.06 183.15 163.524 184.429 164.091 185.644C165.079 187.763 166.089 189.873 167.034 192.012C167.228 192.452 167.281 193.016 167.213 193.496C167.114 194.195 166.425 194.418 165.677 193.967C164.809 193.443 163.991 192.83 163.178 192.22C162.674 191.842 162.221 191.397 161.743 190.985C161.687 190.937 161.613 190.912 161.548 190.876C161.537 190.959 161.508 191.045 161.519 191.126C161.653 192.067 161.761 193.013 161.941 193.945C162.126 194.907 162.409 195.851 162.605 196.812C162.993 198.721 163.368 200.633 163.716 202.55C164.107 204.706 164.483 206.865 164.822 209.029C164.997 210.141 165.056 211.272 165.207 212.389C165.434 214.078 165.72 215.759 165.932 217.45C166.049 218.373 166.074 219.309 166.125 220.24C166.195 221.509 166.241 222.779 166.314 224.048C166.494 227.179 166.675 230.309 166.873 233.439C166.922 234.215 167.378 234.811 168.077 235.033C170.064 235.665 171.453 237.985 171.119 239.922C171.041 240.372 170.941 240.838 170.743 241.244C170.267 242.218 170.887 242.771 171.504 243.277C172.505 244.1 173.548 244.873 174.594 245.639C177.076 247.459 179.576 249.255 182.058 251.074C184.307 252.722 186.788 253.867 189.451 254.68C191.588 255.332 193.407 256.568 195.116 257.993C195.955 258.693 196.682 259.728 198.011 259.473C199.893 259.111 201.769 258.719 203.646 258.332C204.212 258.215 204.767 258.045 205.336 257.947C207.316 257.606 208.485 256.205 209.651 254.755C210.518 253.677 211.485 252.679 212.387 251.628C214.163 249.561 215.919 247.477 217.693 245.409C218.575 244.38 219.482 243.375 220.373 242.354C222.884 239.478 225.379 236.589 227.905 233.726C229.229 232.226 230.608 230.774 231.955 229.294C232.318 228.896 232.706 228.507 232.993 228.057C233.429 227.373 233.874 227.162 234.726 227.438C236.589 228.041 236.555 227.927 235.253 229.356C232.92 231.915 230.664 234.544 228.367 237.136C227.244 238.404 226.084 239.638 224.97 240.913C223.015 243.15 221.09 245.414 219.14 247.655C217.755 249.245 216.354 250.821 214.952 252.397C213.868 253.616 212.768 254.822 211.688 256.044C211.593 256.151 211.519 256.447 211.552 256.468C211.816 256.633 212.114 256.878 212.392 256.868C214.656 256.779 216.917 256.606 219.181 256.529C220.876 256.471 222.576 256.47 224.271 256.529C226.443 256.604 228.618 256.698 230.78 256.905C233.189 257.136 235.585 257.507 237.988 257.812C240.451 258.124 242.922 258.381 245.376 258.751C247.829 259.121 250.262 259.62 252.709 260.027C254.736 260.364 256.778 260.614 258.802 260.967C261.384 261.416 263.952 261.939 266.53 262.412C268.34 262.744 270.157 263.034 271.966 263.367C273.711 263.688 275.447 264.06 277.194 264.37C278.295 264.565 279.405 264.762 280.518 264.808C280.984 264.827 281.578 264.574 281.924 264.245C284.57 261.728 287.135 259.125 289.793 256.62C292.768 253.817 295.878 251.171 299.232 248.818C300.767 247.742 302.486 247.93 304.157 248.075C305.132 248.159 306.074 248.629 307.029 248.932C307.812 249.181 307.882 249.665 307.533 250.348C305.951 253.454 304.397 256.574 302.814 259.68C301.445 262.364 300.052 265.035 298.623 267.758C296.757 271.367 294.939 274.932 293.115 278.494ZM146.67 255.591C147.502 253.185 148.232 250.739 148.888 248.279C149.314 246.681 149.556 245.031 149.829 243.396C150.111 241.716 150.346 240.027 150.574 238.339C150.838 236.378 151.249 234.416 151.281 232.449C151.345 228.499 151.181 224.546 151.138 220.595C151.111 218.18 151.097 215.764 151.144 213.349C151.181 211.45 150.076 210.034 149.271 208.477C148.735 207.44 148.169 206.394 147.827 205.287C147.198 203.256 146.688 201.186 146.201 199.115C145.868 197.699 145.623 196.26 145.404 194.821C145.15 193.156 144.603 191.592 143.892 190.081C143.833 189.954 143.333 189.862 143.28 189.934C142.993 190.317 142.78 190.756 142.549 191.179C142.137 191.934 141.511 192.651 141.368 193.454C141.082 195.059 140.343 196.436 139.587 197.813C139.117 198.67 138.324 198.692 137.774 197.905C137.182 197.06 136.543 196.207 136.166 195.261C135.278 193.038 134.484 190.773 133.745 188.495C132.773 185.501 131.858 182.489 130.986 179.464C130.53 177.885 130.077 176.282 129.885 174.658C129.698 173.067 129.846 171.436 129.842 169.822C129.841 169.678 129.797 169.533 129.773 169.389C129.708 169.44 129.648 169.502 129.576 169.542C127.885 170.472 126.204 171.422 124.496 172.322C122.803 173.215 121.101 174.096 119.369 174.908C117.47 175.798 115.564 176.717 114.464 178.581C113.275 180.599 111.884 182.522 111.167 184.796C110.428 187.141 109.592 189.459 108.949 191.829C108.291 194.253 107.844 196.734 107.251 199.177C106.872 200.737 106.248 202.251 105.999 203.828C105.62 206.233 105.386 208.669 105.25 211.101C105.134 213.189 105.143 215.281 104.861 217.361C104.642 218.975 104.494 220.599 104.297 222.217C103.997 224.68 103.457 227.137 103.419 229.603C103.334 235.063 103.558 240.527 103.533 245.989C103.52 248.852 103.947 251.65 104.284 254.471C104.658 257.603 104.88 260.754 105.237 263.888C105.48 266.019 105.723 268.161 106.177 270.252C106.917 273.657 107.711 277.059 108.699 280.397C109.932 284.564 111.741 288.488 114.289 292.048C115.881 294.272 117.824 296.094 120.224 297.403C123.476 299.179 126.965 299.025 130.46 298.483C131.033 298.394 131.774 297.954 132.02 297.465C132.708 296.097 133.309 294.654 133.7 293.175C134.257 291.075 134.503 288.893 135.049 286.789C135.949 283.32 137.082 279.91 137.93 276.429C138.629 273.562 139.96 270.976 141.117 268.31C141.969 266.349 142.976 264.455 144.006 262.438C144.901 260.158 145.87 257.904 146.67 255.591ZM177.372 291.002C179.055 292.031 180.705 293.122 182.307 294.274C183.307 294.993 184.025 296.038 184.244 297.246C184.752 300.044 185.088 302.873 185.579 305.674C185.924 307.641 186.419 309.58 186.828 311.535C187.161 313.127 187.469 314.724 187.785 316.319C188.096 317.886 188.398 319.455 188.713 321.022C188.952 322.216 189.2 323.409 189.453 324.6C189.861 326.527 190.186 328.477 190.714 330.371C191.234 332.236 192.016 334.027 192.587 335.88C193.536 338.964 194.715 341.949 196.08 344.872C196.403 345.565 196.948 345.426 197.27 345.299C199.312 344.5 201.327 343.627 203.329 342.728C203.96 342.445 204.296 341.895 204.267 341.145C204.188 339.105 204.133 337.065 204.077 335.025C204.01 332.584 203.953 330.143 203.891 327.702C203.83 325.312 203.816 322.92 203.692 320.533C203.57 318.202 203.342 315.876 203.149 313.548C202.908 310.649 202.685 307.748 202.4 304.853C202.204 302.853 202.024 300.842 201.646 298.873C200.991 295.464 200.187 292.083 199.448 288.69C198.588 284.735 196.926 281.289 193.639 278.701C191.136 276.73 188.51 274.97 185.671 273.563C182.531 272.007 179.355 270.493 176.095 269.214C172.368 267.752 168.748 265.906 164.645 265.569C162.674 265.407 160.718 265.062 158.75 264.853C157.171 264.685 155.579 264.637 154.001 264.464C151.503 264.191 149.015 263.827 146.515 263.582C146.164 263.548 145.636 263.877 145.421 264.194C144.927 264.923 144.555 265.739 144.169 266.536C142.964 269.027 141.553 271.448 140.636 274.042C139.425 277.469 138.603 281.034 137.621 284.543C137.064 286.53 137.052 286.619 138.785 286.982C140.79 287.403 142.827 287.682 144.859 287.961C146.187 288.144 147.534 288.195 148.867 288.348C151.394 288.638 153.915 288.985 156.443 289.258C158.052 289.432 159.67 289.536 161.286 289.632C163.701 289.776 166.118 289.91 168.535 289.998C169.983 290.051 171.434 290.008 173.069 290.008C174.587 289.98 176.07 290.206 177.372 291.002ZM249.922 279.459C251.479 279.532 253.037 279.608 254.596 279.641C258.209 279.718 261.823 279.779 265.437 279.823C266.159 279.832 266.808 279.533 267.003 278.79C268.05 274.793 270.109 271.086 270.374 266.857C270.441 265.784 269.976 265.027 268.881 264.835C267.739 264.636 266.611 264.355 265.471 264.138C264.039 263.865 262.6 263.625 261.166 263.362C259.877 263.125 258.591 262.879 257.305 262.63C256.364 262.449 255.426 262.248 254.485 262.07C252.681 261.729 250.877 261.395 249.072 261.065C247.838 260.839 246.605 260.607 245.366 260.408C244.406 260.254 243.436 260.157 242.473 260.016C240.439 259.72 238.407 259.412 236.374 259.107C235.213 258.933 234.054 258.742 232.89 258.585C231.338 258.376 229.782 258.022 228.229 258.031C224.332 258.053 220.435 258.224 216.539 258.376C214.676 258.449 212.81 258.553 210.958 258.762C209.922 258.879 208.925 259.206 208.174 260.08C206.949 261.502 205.635 262.847 204.397 264.258C203.616 265.15 202.885 266.088 202.171 267.035C201.227 268.287 200.075 269.048 198.428 268.921C195.731 268.712 193.029 268.559 190.332 268.352C189.331 268.275 188.334 268.125 187.339 267.986C185.651 267.75 183.968 267.476 182.278 267.255C180.662 267.043 179.041 266.868 177.419 266.701C176.961 266.654 176.494 266.68 176.033 266.706C175.941 266.711 175.857 266.868 175.77 266.955C175.864 266.998 175.96 267.038 176.052 267.086C176.864 267.51 177.654 267.981 178.489 268.35C180.939 269.432 183.466 270.357 185.855 271.559C189.323 273.303 192.559 275.433 195.502 277.993C196.414 278.787 197.29 279.377 198.786 279.178C201.158 278.862 203.374 278.277 205.503 277.242C208.367 275.848 211.282 274.704 214.576 275.387C216.481 275.783 218.398 276.129 220.301 276.537C221.506 276.795 222.682 277.221 223.897 277.402C225.404 277.625 226.938 277.665 228.459 277.797C231.225 278.038 233.991 278.294 236.757 278.534C238.636 278.697 240.516 278.844 242.487 279.091C244.965 279.214 247.443 279.343 249.922 279.459ZM153.531 226.004C153.558 226.743 153.529 227.484 153.541 228.223C153.599 231.682 153.653 235.141 153.731 238.599C153.753 239.603 153.709 240.637 153.939 241.6C154.404 243.548 155.015 245.464 155.61 247.379C155.864 248.199 156.219 248.98 157.146 249.305C157.952 249.587 158.734 249.943 159.542 250.22C160.741 250.632 161.109 250.476 161.891 249.379C162.15 249.016 162.448 248.681 162.739 248.342C164.613 246.157 166.543 244.017 168.347 241.777C169.679 240.123 169.448 237.461 167.218 236.608C166.978 236.516 166.74 236.405 166.491 236.354C165.173 236.081 165.234 236.084 165.191 234.839C165.034 230.389 165.556 225.928 164.857 221.483C164.578 219.709 164.693 217.874 164.436 216.094C164.037 213.325 163.484 210.577 162.977 207.824C162.498 205.22 162.017 202.616 161.492 200.021C161.099 198.085 160.628 196.164 160.206 194.234C159.884 192.761 159.631 191.272 159.242 189.818C159.137 189.425 158.649 189.134 158.337 188.796C157.972 189.149 157.332 189.47 157.288 189.859C157.064 191.832 156.76 193.843 156.933 195.8C157.132 198.049 157.47 200.278 157.041 202.51C156.552 205.054 155.738 207.496 154.359 209.722C153.595 210.956 153.025 212.236 153.155 213.762C153.283 215.273 153.325 216.793 153.347 218.31C153.377 220.468 153.354 222.626 153.354 224.97C153.416 225.314 153.518 225.657 153.531 226.004ZM143.825 149.574C143.669 149.815 143.454 150.037 143.367 150.3C142.488 152.991 141.685 155.707 140.746 158.376C140.18 159.984 139.291 161.418 137.822 162.428C136.755 163.163 135.76 164 134.715 164.769C134.2 165.148 134.309 165.476 134.63 165.936C135.591 167.313 136.607 168.667 137.409 170.136C138.516 172.162 139.464 174.276 140.45 176.367C141.41 178.405 142.412 180.428 143.243 182.518C143.95 184.294 144.33 186.201 145.056 187.966C145.713 189.562 146.418 191.136 146.656 192.845C146.737 193.426 146.925 193.431 147.366 193.43C150.013 193.42 152.569 193.07 154.801 191.495C154.992 191.36 155.153 191.083 155.19 190.851C155.277 190.288 155.262 189.711 155.328 189.144C155.375 188.744 155.635 188.312 155.542 187.964C155.194 186.668 154.731 185.404 154.327 184.123C153.554 181.676 152.541 179.255 152.472 176.674C152.401 174.047 152.637 171.409 152.817 168.781C152.891 167.709 153.101 166.633 153.372 165.591C153.69 164.369 153.614 164.035 152.511 163.438C150.696 162.457 149.131 161.138 148.013 159.437C146.187 156.66 144.784 153.672 144.284 150.217C144.131 150.003 143.978 149.789 143.825 149.574ZM170.157 148.755C170.208 148.655 170.657 148.343 169.989 148.231C169.314 148.117 168.552 147.79 168.089 147.306C167.18 146.359 166.428 145.255 165.664 144.178C165.448 143.873 165.371 143.688 165.067 144.053C164.874 144.285 164.624 144.469 164.431 144.702C162.762 146.719 160.36 147.575 158.111 147.014C155.416 146.343 153.772 143.469 153.735 140.975C153.721 139.981 153.406 139.148 152.612 138.576C151.291 137.624 149.932 136.724 148.574 135.825C147.814 135.322 147.089 135.486 146.893 136.28C146.407 138.246 145.802 140.215 145.633 142.216C145.423 144.692 145.523 147.192 146.114 149.662C147.11 153.823 148.402 157.778 151.799 160.711C153.988 162.602 156.693 163.027 159.3 161.883C161.884 160.749 163.472 158.651 165.016 156.468C166.314 154.632 167.608 152.794 168.996 150.865C169.389 150.164 169.796 149.471 170.157 148.755ZM282.057 272.36C283.852 274.645 285.94 276.552 288.797 277.474C290.562 278.044 291.208 277.944 292.185 276.082C294.178 272.284 296.147 268.473 298.111 264.66C298.895 263.137 299.62 261.584 300.406 260.061C301.94 257.088 303.495 254.125 305.051 251.162C305.334 250.621 305.065 250.132 304.646 250.076C303.195 249.882 301.663 249.468 300.315 250.364C298.538 251.546 296.749 252.736 295.114 254.1C292.634 256.171 290.245 258.355 287.893 260.57C286.826 261.576 285.924 262.76 284.976 263.887C284.227 264.777 283.265 265.526 282.98 266.742C282.716 267.867 282.456 268.992 282.194 270.302C281.887 270.973 281.543 271.706 282.057 272.36ZM220.919 371.667C221.342 371.7 222.157 371.508 222.161 371.395C222.216 369.802 222.517 368.114 221.088 366.87C219.23 365.254 217.43 363.563 215.492 362.049C212.366 359.605 209.149 357.277 205.969 354.903C204.832 354.055 203.702 353.155 202.255 352.934C200.961 352.736 199.641 352.71 198.341 352.536C197.245 352.39 196.5 352.865 195.834 353.654C194.22 355.567 193.046 357.694 192.602 360.178C192.255 362.125 192.881 363.197 194.453 363.66C197.445 364.541 200.416 365.494 203.403 366.395C205.544 367.041 207.703 367.623 209.84 368.282C212.954 369.243 216.056 370.249 219.348 371.236C219.871 371.389 220.387 371.625 220.919 371.667ZM158.074 251.702C156.008 250.884 153.954 250.035 151.882 249.229C151.27 248.991 150.749 248.921 150.547 249.864C150.328 250.887 149.861 251.856 149.524 252.856C148.774 255.074 148.022 257.292 147.313 259.523C147.181 259.935 146.982 260.514 147.797 260.593C148.858 260.695 149.913 260.873 150.975 260.95C153.05 261.101 155.128 261.249 157.206 261.317C160.295 261.419 163.385 261.456 166.475 261.51C167.462 261.528 168.449 261.51 169.436 261.515C169.676 261.516 169.931 261.499 170.154 261.569C172.829 262.405 175.495 263.271 178.172 264.099C180.865 264.932 183.563 265.75 186.441 265.589C187.44 265.533 187.623 265.346 187.256 264.427C187.055 263.925 186.777 263.414 186.407 263.028C184.605 261.139 182.405 259.82 180.051 258.736C178.175 257.872 176.342 256.909 174.232 256.692C173.245 256.59 172.25 256.448 171.291 256.2C169.767 255.805 168.256 255.349 166.766 254.841C164.904 254.207 163.069 253.495 161.037 252.817C160.049 252.446 159.055 252.09 158.074 251.702ZM134.834 170.02C133.968 168.678 133.056 167.365 132.161 166.042C132.037 165.857 131.901 165.681 131.77 165.501C131.684 165.804 131.562 166.102 131.517 166.411C131.369 167.433 131.286 168.465 131.11 169.481C130.763 171.494 130.574 173.47 131.878 175.259C131.961 175.372 132.026 175.508 132.063 175.643C132.542 177.386 133.013 179.132 133.492 180.875C133.613 181.317 133.739 181.758 133.884 182.192C134.508 184.059 135.264 185.893 135.734 187.798C136.217 189.754 136.586 191.721 137.589 193.508C137.877 194.021 137.971 194.641 138.183 195.201C138.247 195.368 138.456 195.637 138.522 195.616C138.734 195.55 139.014 195.41 139.085 195.227C139.913 193.101 140.312 190.779 141.882 188.993C143.216 187.477 142.94 185.927 142.121 184.308C141.801 183.675 141.604 182.982 141.318 182.331C140.701 180.922 140.11 179.499 139.419 178.127C138.816 176.928 138.085 175.793 137.42 174.624C136.953 173.803 136.503 172.971 135.953 172.051C135.583 171.372 135.252 170.668 134.834 170.02ZM184.835 254.939C182.132 253.192 179.391 251.496 176.771 249.63C174.578 248.068 172.545 246.281 170.413 244.63C169.838 244.184 169.178 244.037 168.59 244.708C167.637 245.797 166.667 246.869 165.716 247.959C165.007 248.77 164.327 249.606 163.617 250.417C163.063 251.05 163.121 251.39 163.933 251.633C166.541 252.413 169.169 253.13 171.769 253.935C175.319 255.034 178.865 256.151 182.383 257.347C183.508 257.73 184.5 258.503 185.625 258.891C186.766 259.285 187.987 259.491 189.19 259.658C190.579 259.852 191.986 259.93 193.389 260.017C193.612 260.031 193.849 259.831 194.08 259.73C193.943 259.54 193.839 259.309 193.664 259.166C191.441 257.347 188.787 256.408 186.027 255.407C185.628 255.254 185.187 255.166 184.835 254.939ZM149.635 206.203C149.979 207.507 150.795 208.141 152.053 208.259C153.139 208.361 153.457 207.765 153.722 206.972C154.101 205.835 154.477 204.698 154.833 203.554C155.623 201.013 155.51 198.454 155.037 195.871C154.883 195.029 154.919 194.151 154.88 193.289C154.875 193.164 154.938 193.036 154.97 192.909C154.843 192.946 154.711 192.972 154.59 193.022C153.828 193.337 153.094 193.774 152.301 193.952C150.817 194.286 149.304 194.506 147.793 194.699C147.21 194.774 146.864 194.835 147.049 195.548C147.224 196.223 147.294 196.923 147.433 197.608C147.733 199.082 148.048 200.553 148.356 202.211C148.788 203.54 149.279 204.854 149.635 206.203ZM165.454 192.284C165.598 192.406 165.758 192.509 165.911 192.621C165.91 192.414 165.967 192.185 165.899 192.004C165.498 190.938 165.124 189.857 164.635 188.831C163.591 186.642 162.631 184.391 161.357 182.339C160.104 180.322 158.417 178.579 157.086 176.604C156.133 175.189 155.458 173.587 154.644 172.077C154.519 171.845 154.312 171.656 154.143 171.448C154.065 171.693 153.915 171.94 153.921 172.183C153.96 173.76 153.981 175.341 154.113 176.912C154.203 177.983 154.384 179.063 154.672 180.097C154.992 181.246 155.571 182.325 155.87 183.477C156.22 184.826 156.86 185.679 158.166 186.399C160.332 187.594 162.568 188.836 164.091 191.109C164.545 191.501 164.997 191.896 165.454 192.284ZM155.812 140C155.102 141.035 156.42 144.662 157.136 144.931C162.153 146.82 163.583 143.588 163.649 142.701C163.78 140.941 163.997 139.156 162.332 137.728C157.942 136.855 156.961 138.328 155.812 140ZM175.021 141.466C174.347 139.787 173.327 138.691 171.55 139.074C170.643 139.27 169.845 139.989 169.011 140.493C167.219 141.577 166.985 142.17 167.611 144.091C168.238 146.013 169.7 147.115 171.56 147.488C173.099 147.798 174.199 146.843 175.013 145.407C175.218 144.094 175.555 142.796 175.021 141.466ZM168.378 139.295C169.101 138.78 169.885 138.019 170.666 137.991C172.015 137.942 171.796 137.118 171.651 136.468C171.244 134.654 170.712 132.867 170.193 131.08C169.838 129.856 169.538 129.786 168.676 130.648C167.2 132.124 165.704 133.572 163.85 134.591C163.27 134.909 163.19 135.643 163.605 136.222C163.759 136.437 163.968 136.622 164.084 136.855C164.654 138.001 165.172 139.175 165.78 140.3C165.915 140.549 165.813 141.429 166.683 140.781C167.245 140.281 167.769 139.728 168.378 139.295ZM277.313 272.028C278.573 271.794 279.922 271.471 280.116 269.796C280.149 269.514 280.277 269.246 280.341 268.966C280.739 267.234 280.289 266.68 278.555 266.494C276.922 266.318 275.302 266.026 273.679 265.764C272.811 265.624 272.651 265.787 272.555 266.67C272.423 267.894 272.232 269.114 272.003 270.324C271.803 271.384 272.099 272.222 273.031 272.43C274.461 272.306 275.909 272.289 277.313 272.028ZM201.72 350.855C201.896 350.847 202.196 350.498 202.202 350.298C202.246 348.975 202.214 347.649 202.229 346.325C202.237 345.58 201.667 345.555 201.257 345.686C200.366 345.97 199.519 346.393 198.658 346.772C198.037 347.045 197.338 347.267 197.413 348.163C197.466 348.795 197.466 349.443 197.612 350.055C197.854 351.071 198.732 350.588 199.448 350.79C200.206 350.821 200.965 350.889 201.72 350.855ZM152.415 243.22C152.362 243.07 152.143 242.978 152 242.859C151.896 243.007 151.715 243.149 151.701 243.306C151.614 244.257 151.539 245.211 151.51 246.166C151.482 247.099 152.142 247.703 153.091 247.617C153.252 247.603 153.537 247.32 153.516 247.206C153.376 246.448 153.169 245.702 152.891 244.86C152.737 244.312 152.604 243.756 152.415 243.22ZM204.57 260.7C204.673 260.497 204.889 259.93 204.261 260.048C203.303 260.228 202.362 260.5 201.42 260.756C201.248 260.803 201.107 260.965 200.952 261.073C201.132 261.158 201.309 261.31 201.492 261.316C202.26 261.344 203.029 261.328 203.891 261.235C204.126 261.062 204.452 260.934 204.57 260.7ZM133.084 163.632C132.937 163.718 132.789 163.804 132.641 163.89C132.758 164.019 132.853 164.198 132.998 164.259C133.084 164.295 133.274 164.171 133.374 164.074C133.944 163.522 134.503 162.959 135.059 162.394C135.17 162.28 135.251 162.137 135.346 162.008C135.159 162.044 134.924 162.022 134.793 162.128C134.237 162.578 133.713 163.066 133.084 163.632Z" fill="#00160A"/>
<path fill-rule="evenodd" clip-rule="evenodd" d="M152.92 152.854C152.053 152.385 151.195 152 151.015 150.955C150.665 148.925 151.396 146.533 154.042 146.673C156.428 146.798 157.941 148.779 157.097 151.017C156.475 152.667 154.965 153.485 152.92 152.854Z" fill="#FFB61D"/>
<path fill-rule="evenodd" clip-rule="evenodd" d="M164.685 145.28C164.732 144.969 164.78 144.751 164.827 144.533C164.902 144.723 164.999 144.908 165.049 145.104C165.421 146.56 166.601 150.186 165.196 151.855C165.079 151.993 164.487 152.015 164.117 151.992C163.392 151.946 162.546 150.876 162.681 150.186C162.701 150.083 164.452 151.782 164.827 150.862C165.454 149.329 164.685 145.808 164.685 145.28Z" fill="#00160A"/>
<path fill-rule="evenodd" clip-rule="evenodd" d="M154.81 155.905C154.737 155.868 154.636 155.878 154.548 155.882C154.333 155.891 154.038 155.504 154.163 155.341C154.353 155.095 154.567 154.847 154.823 154.685C154.976 154.588 155.228 154.901 155.209 155.039C155.195 155.143 155.293 155.304 155.388 155.374C156.838 156.439 158.447 157.129 160.207 157.461C160.324 157.483 160.425 157.587 160.533 157.652C160.425 157.727 160.318 157.873 160.21 157.867C158.289 157.754 156.068 156.544 154.81 155.905Z" fill="#00160A"/>
<path fill-rule="evenodd" clip-rule="evenodd" d="M108.011 239.284L106.187 247.076C106.046 247.679 106.613 248.207 107.204 248.023L113.537 246.051C114.07 245.885 114.274 245.238 113.932 244.797L109.423 238.977C109.01 238.444 108.165 238.629 108.011 239.284ZM108.79 240.533L112.766 245.287L106.966 247.259L108.79 240.533Z" fill="#FFB61D"/>
<path fill-rule="evenodd" clip-rule="evenodd" d="M113.671 194.328C113.005 194.268 112.564 195.005 112.931 195.564L117.572 202.618C117.884 203.094 118.58 203.1 118.901 202.63L123.171 196.375C123.516 195.871 123.191 195.182 122.582 195.128L113.671 194.328ZM114.299 195.128L122.277 196.678L117.571 201.603L114.299 195.128Z" fill="#FFB61D"/>
<path fill-rule="evenodd" clip-rule="evenodd" d="M143.078 248.267H136.533C135.991 248.267 135.606 248.795 135.772 249.312L137.97 256.145C138.178 256.79 139.043 256.901 139.407 256.329L143.753 249.496C144.092 248.963 143.709 248.267 143.078 248.267ZM142.544 249.6L139.265 255.9L137.067 249.067L142.544 249.6Z" fill="#FFB61D"/>
<path fill-rule="evenodd" clip-rule="evenodd" d="M121.633 285.293L121.334 291.217C121.303 291.838 121.961 292.256 122.509 291.963L130.119 287.91C130.763 287.567 130.648 286.61 129.941 286.429L122.631 284.559C122.141 284.433 121.659 284.788 121.633 285.293ZM122.212 285.859L129.205 286.83L122.509 290.787L122.212 285.859Z" fill="#FFB61D"/>
<path fill-rule="evenodd" clip-rule="evenodd" d="M111.544 212.537L105.678 216.603C105.181 216.948 105.231 217.697 105.768 217.973L112.633 221.497C113.207 221.792 113.876 221.321 113.792 220.681L112.793 213.09C112.715 212.496 112.036 212.196 111.544 212.537ZM111.78 213.95L112.999 220.786L106.133 217.261L111.78 213.95Z" fill="#FFB61D"/>
<path fill-rule="evenodd" clip-rule="evenodd" d="M138.463 229.955L134.802 235.42C134.487 235.891 134.747 236.531 135.301 236.648L139.581 237.554C140.11 237.665 140.595 237.231 140.543 236.693L139.924 230.323C139.851 229.575 138.881 229.331 138.463 229.955ZM139.459 231.05V236.903L135.779 235.42L139.459 231.05Z" fill="#FFB61D"/>
<path fill-rule="evenodd" clip-rule="evenodd" d="M139.156 204.206C140.221 203.511 141.156 203.676 140.395 205.205C140.395 205.205 134.843 219.283 133.184 219.45C131.61 219.608 130.851 217.574 128.654 211.757L128.561 211.509C128.553 211.487 128.545 211.465 128.539 211.443L128.527 211.396L128.513 211.371L128.483 211.3L128.22 210.589C127.91 209.742 127.129 208.344 126.716 207.859C126.276 207.341 127.257 207.021 127.983 207.021C129.336 207.021 130.993 207.399 133.598 206.647C136.649 205.766 137.696 205.159 139.156 204.206ZM136.795 211.438L136.721 211.486C135.947 211.963 135.091 212.33 134.155 212.585C133.036 212.891 131.413 212.929 130.362 212.7L130.187 212.659L130.251 212.82C130.844 214.298 131.371 216.006 131.83 216.875L131.991 217.17C132.279 217.688 132.532 218.064 132.736 218.29L132.8 218.356L132.879 218.26C133.222 217.823 134.441 216.176 135.287 214.53L135.376 214.357C135.739 213.647 136.134 212.839 136.562 211.934L136.795 211.438ZM139.08 205.833L138.951 205.906C137.747 206.577 135.754 207.69 134.042 208.184C131.992 208.776 130.254 208.987 128.824 208.798L128.736 208.785L128.787 208.926C128.923 209.308 129.502 211.118 129.707 211.396C130.537 212.163 131.554 212.236 132.8 211.934L132.978 211.888C137.439 211.026 139.08 205.833 139.08 205.833Z" fill="#FFB61D"/>
<path fill-rule="evenodd" clip-rule="evenodd" d="M295.722 255.048C295.9 254.917 296.15 254.955 296.281 255.133C297.205 256.385 298.768 256.447 300.846 255.293C301.04 255.186 301.283 255.255 301.39 255.448C301.498 255.641 301.428 255.885 301.235 255.992C298.843 257.32 296.842 257.241 295.637 255.608C295.506 255.43 295.544 255.179 295.722 255.048Z" fill="#E7EAEE"/>
<path fill-rule="evenodd" clip-rule="evenodd" d="M292.698 258.253C292.862 258.104 293.115 258.116 293.263 258.28C294.664 259.82 296.525 259.908 298.039 259.1C298.234 258.996 298.476 259.069 298.58 259.264C298.684 259.459 298.611 259.701 298.416 259.806C296.608 260.771 294.35 260.664 292.671 258.818C292.523 258.654 292.535 258.401 292.698 258.253Z" fill="#E7EAEE"/>
<path fill-rule="evenodd" clip-rule="evenodd" d="M289.423 261.427C289.584 261.275 289.837 261.283 289.988 261.444C291.338 262.878 294.083 263.579 295.96 262.584C296.155 262.48 296.397 262.555 296.501 262.75C296.604 262.945 296.53 263.187 296.335 263.291C294.111 264.469 290.986 263.67 289.406 261.992C289.254 261.831 289.262 261.578 289.423 261.427Z" fill="#E7EAEE"/>
<path fill-rule="evenodd" clip-rule="evenodd" d="M291.966 273.971C294.774 272.613 291.871 267.578 289.153 269.616C287.41 270.923 289.321 275.251 291.966 273.971Z" fill="#E7EAEE"/>
</svg>
