<svg  viewBox="0 0 300 300" fill="none" xmlns="http://www.w3.org/2000/svg">
<!-- width="300" height="300" -->
<path fill-rule="evenodd" clip-rule="evenodd" d="M251.2 170C251.2 117.423 208.578 74.8 156 74.8C103.423 74.8 56.7728 117.512 60.8 170C65.6 232.559 251.2 220.644 251.2 170Z" fill="#EDF0F5"/>
<path fill-rule="evenodd" clip-rule="evenodd" d="M202.771 159.328C204.266 159.208 205.801 159.754 206.885 160.789C208.565 162.393 208.999 165.152 207.892 167.195C206.786 169.237 204.237 170.38 201.976 169.849C199.822 169.343 198.097 167.37 197.883 165.168C197.668 162.966 198.981 160.698 200.996 159.786C201.556 159.533 202.159 159.377 202.771 159.328M205.365 160.361C204.836 159.972 204.254 159.646 203.626 159.521C202.91 159.378 202.161 159.503 201.49 159.807C199.785 160.579 198.622 162.579 198.733 164.574C198.844 166.568 200.23 168.409 202.018 168.918C203.806 169.427 205.858 168.554 206.834 166.857C207.81 165.16 207.62 162.774 206.38 161.292C206.081 160.935 205.732 160.631 205.365 160.361V160.361Z" fill="#00160A"/>
<path fill-rule="evenodd" clip-rule="evenodd" d="M99.1372 130.96L95.5466 131.215L93.5283 111.791L96.6724 111.274L99.1372 130.96Z" fill="#FFB61D"/>
<path fill-rule="evenodd" clip-rule="evenodd" d="M183.933 93.9622C184.906 93.7752 203.559 106.72 203.366 106.93C203.173 107.14 183.549 94.0362 183.933 93.9622Z" fill="#E7EAEE"/>
<path fill-rule="evenodd" clip-rule="evenodd" d="M191.933 93.9623C192.688 93.8279 202.248 100.292 201.982 100.668C201.717 101.045 191.451 94.0481 191.933 93.9623Z" fill="#E7EAEE"/>
<path fill-rule="evenodd" clip-rule="evenodd" d="M181.933 97.9622C181.571 97.3215 192.27 104.724 191.982 104.668C189.226 104.129 182.04 98.1502 181.933 97.9622Z" fill="#E7EAEE"/>
<path fill-rule="evenodd" clip-rule="evenodd" d="M180.669 118.847C180.904 119.033 180.807 119.454 180.542 119.593C180.277 119.731 179.94 119.639 179.706 119.453C179 118.893 179.147 117.707 179.764 117.052C180.382 116.397 181.299 116.136 182.169 115.902C182.53 115.805 182.891 115.708 183.252 115.611C183.988 115.414 184.771 115.216 185.501 115.435C186.231 115.654 186.84 116.463 186.556 117.171C186.378 117.616 185.906 117.886 185.434 117.971C184.962 118.056 184.478 117.991 183.999 117.959C183.059 117.895 182.111 117.956 181.187 118.141C181.006 118.178 180.815 118.224 180.685 118.356C180.555 118.488 180.524 118.733 180.669 118.847Z" fill="#00160A"/>
<path fill-rule="evenodd" clip-rule="evenodd" d="M185.402 159.194C185.158 160.204 184.913 161.215 184.669 162.225C184.594 162.534 184.512 162.858 184.295 163.09C183.973 163.436 183.452 163.485 182.98 163.512C168.131 164.363 153.27 165.014 138.403 165.464C137.397 165.495 136.45 164.921 135.79 164.162C135.131 163.403 134.711 162.471 134.301 161.553C134.951 161.396 135.566 161.913 135.962 162.451C136.358 162.99 136.707 163.626 137.322 163.889C137.726 164.061 138.184 164.041 138.623 164.017C153.06 163.242 167.498 162.467 181.935 161.691C182.455 161.663 183.02 161.618 183.406 161.269C183.804 160.909 183.899 160.333 184.132 159.85C184.365 159.368 184.937 158.927 185.402 159.194L185.402 159.194Z" fill="#00160A"/>
<path fill-rule="evenodd" clip-rule="evenodd" d="M74.3194 167.826C73.6175 167.076 72.73 166.501 71.7587 166.167C71.0992 165.94 70.3437 165.831 69.7245 166.152C69.1054 166.473 68.76 167.358 69.1955 167.903C69.4247 168.19 68.9073 168.461 68.5488 168.54C67.4776 168.775 66.6693 169.962 66.9729 171.016C67.2765 172.07 68.7504 172.62 69.6007 171.927C69.9086 171.676 70.1149 171.31 70.4485 171.095C70.7821 170.879 71.3443 170.925 71.4468 171.308C71.6631 172.117 72.4005 172.76 73.2312 172.863C73.7737 172.931 74.4156 172.71 74.5837 172.189C74.8816 171.268 73.5223 170.313 73.9851 169.462C74.2185 169.033 74.7831 168.941 75.2696 168.897C77.1288 168.73 78.988 168.563 80.8472 168.395C81.1585 168.367 81.565 168.4 81.6531 168.699C81.656 169.061 81.1977 169.211 80.8387 169.256C78.9037 169.497 76.9687 169.737 75.0337 169.978C75.9332 170.741 76.0225 172.256 75.2615 173.157C74.5006 174.059 73.0462 174.244 72.0504 173.611C71.7183 173.4 71.4354 173.114 71.0862 172.933C70.7371 172.751 70.2758 172.697 69.9734 172.949C69.2899 173.518 68.2593 173.365 67.4414 173.015C66.6307 172.669 65.8308 172.078 65.6421 171.216C65.4551 170.363 65.9212 169.503 66.4723 168.825C67.0234 168.147 67.6891 167.534 68.0202 166.725C68.5059 165.539 69.9402 164.949 71.2106 165.117C72.4811 165.284 73.5935 166.058 74.5187 166.944C75.1146 167.515 76.081 167.291 76.8686 167.045C77.6562 166.799 78.6452 166.617 79.1969 167.231C78.0612 167.488 76.9255 167.746 75.7898 168.004C75.2844 168.119 74.6736 168.204 74.3194 167.826Z" fill="#E7EAEE"/>
<path fill-rule="evenodd" clip-rule="evenodd" d="M97.0575 166.726C97.0028 165.874 97.0094 165.013 97.1601 164.172C97.2743 163.534 97.4702 162.914 97.6656 162.296C98.0868 160.964 98.5094 159.629 99.0866 158.357C101.916 152.121 108.681 147.897 115.527 148.075C122.372 148.253 128.902 152.812 131.442 159.171C133.983 165.53 132.4 173.323 127.592 178.199C122.783 183.075 115.024 184.767 108.616 182.353C102.207 179.94 97.4963 173.56 97.0575 166.726M100.649 160.347C100.345 161.156 100.107 162.004 100.108 162.869C100.111 165.519 100.32 168.208 101.219 170.701C103.11 175.941 108.207 179.863 113.755 180.37C119.302 180.877 125.016 177.953 127.868 173.168C130.72 168.383 130.579 161.979 127.535 157.313C124.492 152.647 118.702 149.937 113.168 150.569C107.633 151.2 102.61 155.133 100.649 160.347H100.649Z" fill="#00160A"/>
<path fill-rule="evenodd" clip-rule="evenodd" d="M208.977 150.554C214.78 152.993 218.82 159.134 218.762 165.429C218.703 171.723 214.552 177.789 208.704 180.12C202.857 182.452 195.671 180.909 191.297 176.381C186.923 171.854 185.628 164.619 188.16 158.856C188.759 157.493 189.569 156.191 190.72 155.248C193.329 153.108 196.031 150.923 199.258 149.94C202.426 148.974 205.924 149.27 208.977 150.554M195.478 153.6C194.716 154.087 193.996 154.656 193.433 155.364C192.837 156.112 192.434 156.992 192.037 157.862C191.441 159.167 190.843 160.479 190.472 161.864C189.195 166.623 190.922 172.046 194.697 175.212C198.472 178.378 204.096 179.137 208.587 177.11C213.078 175.083 216.224 170.381 216.412 165.457C216.6 160.534 213.835 155.617 209.543 153.197C205.252 150.776 199.63 150.947 195.478 153.6Z" fill="#00160A"/>
<path fill-rule="evenodd" clip-rule="evenodd" d="M203.847 85.9473C193.782 86.1616 183.717 86.3759 173.652 86.5901C173.401 86.5955 173.123 86.6121 172.947 86.7912C172.833 86.907 172.785 87.0702 172.742 87.2267C170.51 95.3667 172.318 103.991 173.834 112.294C174.78 117.471 175.609 122.668 176.32 127.882C176.832 131.637 177.284 135.412 177.253 139.202C177.243 140.407 178.089 141.496 179.144 142.078C180.199 142.66 181.434 142.817 182.637 142.875C185.172 142.998 187.726 142.729 190.18 142.079C190.637 141.958 191.111 141.823 191.575 141.91C192.04 141.997 192.487 142.387 192.459 142.859C192.426 143.404 191.836 143.718 191.321 143.901C188.081 145.054 184.525 145.301 181.157 144.609C179.541 144.277 177.856 143.65 176.93 142.285C176.403 141.508 176.178 140.571 175.973 139.656C173.909 130.441 172.879 121.031 171.873 111.642C170.959 103.109 170.061 94.5099 170.828 85.9628C170.851 85.6986 170.88 85.4238 171.02 85.1987C171.321 84.7159 171.985 84.6503 172.553 84.6364C183.2 84.3749 193.846 84.1135 204.493 83.852C205.096 83.8372 205.745 83.835 206.243 84.1765C206.611 84.4284 206.84 84.8318 207.057 85.221C210.917 92.15 214.776 99.079 218.636 106.008C219.408 107.394 220.205 108.987 219.725 110.499C219.369 111.621 218.353 112.434 217.25 112.844C216.146 113.254 214.95 113.321 213.775 113.384C211.666 113.496 209.556 113.609 207.447 113.722C202.235 114 197.024 114.278 191.813 114.556C191.514 114.572 191.18 114.576 190.959 114.374C190.636 114.079 190.776 113.503 191.12 113.234C191.464 112.965 191.927 112.918 192.362 112.881C200.226 112.218 208.091 111.555 215.955 110.892C216.571 110.84 216.999 110.193 217.026 109.575C217.054 108.957 216.786 108.368 216.523 107.809C213.116 100.569 209.427 93.4612 205.467 86.5079C205.169 85.9852 204.449 85.9345 203.847 85.9473V85.9473Z" fill="#00160A"/>
<path fill-rule="evenodd" clip-rule="evenodd" d="M108.93 155.473C112.447 153.526 117.023 153.754 120.409 155.92C123.796 158.086 125.905 162.061 125.95 166.081C125.995 170.175 123.775 174.37 120.067 176.107C118.775 176.712 117.35 177.014 115.924 177.07C110.726 177.272 105.524 173.854 103.859 168.926C102.193 163.998 104.378 157.992 108.93 155.473M116.958 175.308C118.325 175.08 119.652 174.593 120.815 173.839C122.006 173.066 123.016 172.016 123.741 170.796C125.63 167.619 125.388 163.352 123.292 160.308C121.196 157.265 117.405 155.528 113.716 155.753C112.341 155.837 110.976 156.176 109.746 156.798C105.504 158.944 103.556 164.608 105.351 169.011C107.146 173.413 112.269 176.09 116.958 175.308Z" fill="#00160A"/>
<path fill-rule="evenodd" clip-rule="evenodd" d="M145.721 148.391C145.109 147.847 144.131 147.875 143.534 147.314C143.703 146.705 144.264 146.306 144.658 145.813C145.59 144.648 145.492 142.788 144.443 141.728C143.913 141.191 143.143 140.78 143.003 140.039C144.099 139.851 145.208 139.497 146.034 138.751C146.86 138.005 147.339 136.796 146.976 135.744C146.864 135.421 146.678 135.112 146.674 134.771C146.669 134.429 146.966 134.051 147.295 134.144C149.054 134.647 151.111 133.476 151.579 131.707C151.78 130.947 152.898 131.022 153.6 131.376C154.302 131.729 155.196 132.177 155.793 131.665C156.298 131.231 156.391 130.225 157.056 130.238C157.4 130.244 157.644 130.558 157.884 130.805C158.713 131.656 160.091 131.915 161.171 131.42C161.549 131.248 161.899 130.991 162.309 130.924C162.72 130.858 163.225 131.089 163.252 131.504C163.331 132.759 164.702 133.76 165.921 133.455C166.387 133.339 167.177 133.364 167.019 133.817C166.538 135.201 167.567 136.895 169.016 137.106C169.385 137.159 169.777 137.134 170.111 137.3C170.445 137.466 170.666 137.939 170.415 138.215C169.337 139.399 169.792 141.594 171.252 142.251C171.645 142.428 171.553 143.043 171.255 143.355C170.957 143.667 170.527 143.857 170.31 144.229C169.931 144.877 170.382 145.702 170.932 146.212C171.483 146.722 172.175 147.15 172.433 147.855C171.396 147.459 170.112 147.866 169.493 148.787C168.875 149.709 168.983 151.051 169.741 151.861C169.341 152.582 168.271 152.295 167.45 152.367C166.452 152.455 165.578 153.32 165.479 154.317C165.436 154.751 165.522 155.206 165.367 155.614C165.213 156.022 164.649 156.316 164.34 156.008C163.193 154.862 160.999 155.092 160.116 156.452C159.906 156.775 159.699 157.188 159.316 157.223C158.712 157.278 158.519 156.405 158.027 156.05C157.418 155.61 156.553 156.109 156.124 156.727C155.696 157.344 155.428 158.116 154.798 158.525C153.6 157.645 153.963 155.155 152.491 154.952C151.856 154.864 151.296 155.336 150.694 155.558C150.093 155.781 149.165 155.484 149.277 154.852C149.461 153.818 149.306 152.441 148.291 152.173C147.289 151.908 146.007 152.95 145.316 152.178C146.065 151.008 146.76 149.314 145.721 148.391ZM146.389 141.956C145.929 142.788 146.013 143.799 145.927 144.746C145.841 145.693 145.443 146.763 144.534 147.042C145.562 147.115 146.523 147.796 146.933 148.741C147.344 149.687 147.184 150.854 146.535 151.655C147.377 151.024 148.662 151.207 149.427 151.931C150.191 152.654 150.465 153.795 150.309 154.836C151.176 154.216 152.397 154.138 153.336 154.641C154.275 155.145 154.885 156.205 154.849 157.27C155.108 156.325 155.85 155.5 156.797 155.251C157.744 155.003 158.855 155.407 159.332 156.263C159.375 155.618 159.984 155.161 160.582 154.917C161.863 154.393 163.365 154.439 164.613 155.039C164.46 153.029 166.563 151.183 168.537 151.595C167.919 150.951 167.954 149.902 168.297 149.078C168.73 148.039 169.743 147.134 170.862 147.254C170.212 147.016 169.687 146.46 169.488 145.797C169.154 144.686 169.763 143.446 170.71 142.775C169.514 142.524 169.129 141.037 168.981 139.825C168.904 139.193 168.942 138.365 169.545 138.162C168.3 137.81 167.176 137.044 166.393 136.014C166.031 135.537 165.772 134.785 166.232 134.402C165.277 134.353 164.336 134.066 163.515 133.576C162.891 133.203 162.276 132.52 162.513 131.832C160.842 132.658 158.737 132.526 157.182 131.5C156.712 132.24 155.79 132.598 154.914 132.595C154.038 132.592 153.193 132.279 152.391 131.927C152.486 132.507 152.095 133.052 151.671 133.459C150.592 134.492 149.143 135.13 147.652 135.227C148.315 137.507 146.548 140.169 144.189 140.442C144.759 141.14 145.541 141.651 146.389 141.956Z" fill="#00160A"/>
<path fill-rule="evenodd" clip-rule="evenodd" d="M204.354 174.631C202.86 174.835 201.32 174.689 199.89 174.21C195.358 172.69 192.395 167.507 193.386 162.83C194.377 158.153 199.187 154.616 203.946 155.065C208.706 155.514 212.77 159.887 212.87 164.666C212.969 169.446 209.09 173.984 204.354 174.631ZM207.774 172.611C210.959 170.679 212.707 166.637 211.934 162.993C211.162 159.349 207.925 156.365 204.231 155.89C200.536 155.415 196.65 157.484 194.981 160.814C193.312 164.145 193.981 168.496 196.573 171.172C199.402 174.091 204.3 174.72 207.774 172.611Z" fill="#00160A"/>
<path fill-rule="evenodd" clip-rule="evenodd" d="M157.824 132.75C161.887 132.703 165.881 135.122 167.722 138.745C169.562 142.367 169.162 147.019 166.729 150.274C164.296 153.528 159.948 155.229 155.953 154.489C152.423 153.836 149.291 151.332 147.875 148.033C146.46 144.734 146.804 140.739 148.762 137.731C150.72 134.722 154.235 132.791 157.824 132.75ZM168.191 143.047C168.089 141.429 167.595 139.836 166.762 138.445C164.224 134.202 158.342 132.344 153.828 134.36C149.313 136.377 146.77 141.996 148.236 146.718C149.702 151.44 154.98 154.632 159.843 153.738C164.705 152.843 168.502 147.981 168.191 143.047V143.047Z" fill="#00160A"/>
<path fill-rule="evenodd" clip-rule="evenodd" d="M163.508 143.74C162.74 144.636 161.513 145.115 160.342 144.977C159.936 144.929 159.311 145.03 159.42 145.424C160.805 145.91 162.19 146.397 163.575 146.884C164.342 147.154 164.562 148.256 164.105 148.929C163.649 149.602 162.746 149.853 161.939 149.754C161.132 149.654 160.394 149.266 159.676 148.885C158.952 148.5 158.228 148.116 157.504 147.731C158.481 147.345 159.54 147.938 160.466 148.434C161.392 148.93 162.621 149.318 163.415 148.63C163.535 148.526 163.641 148.393 163.663 148.235C163.714 147.858 163.295 147.608 162.943 147.464C161.83 147.012 160.718 146.559 159.605 146.106C159.043 145.877 158.382 146.076 157.9 146.445C157.419 146.813 157.077 147.33 156.727 147.826C155.988 148.875 155.098 149.93 153.865 150.287C152.632 150.644 151.032 149.947 150.905 148.67C150.826 147.867 151.329 147.116 151.926 146.573C152.523 146.03 153.233 145.614 153.78 145.021C153.849 144.946 153.919 144.861 153.927 144.76C153.945 144.548 153.707 144.418 153.508 144.344C152.433 143.948 151.359 143.551 150.285 143.155C149.821 142.984 150.11 142.181 150.601 142.122C151.093 142.062 151.524 142.418 151.917 142.719C152.953 143.514 154.39 144.072 155.548 143.466C156.373 143.033 156.848 142.02 156.652 141.11C156.386 139.868 156.852 138.498 157.819 137.676C158.787 136.854 160.215 136.615 161.397 137.079C160.494 137.503 160.083 138.735 160.549 139.617C161.015 140.498 162.265 140.852 163.124 140.346C163.439 140.16 163.857 139.886 164.111 140.149C164.182 140.222 164.215 140.323 164.243 140.421C164.56 141.557 164.275 142.843 163.508 143.74ZM157.713 140.284C157.71 141.642 158.471 143.04 159.731 143.547C160.991 144.054 162.661 143.426 163.072 142.132C163.164 141.844 163.007 141.381 162.732 141.505C161.981 141.845 161.096 141.452 160.462 140.926C160.049 140.583 159.674 140.163 159.517 139.649C159.359 139.136 159.462 138.517 159.873 138.172C159.228 138.027 158.509 138.297 158.118 138.831C157.816 139.244 157.714 139.773 157.713 140.284ZM152.24 148.841C153.88 150.461 154.855 148.338 155.252 147.882C156.172 146.826 157.147 145.817 158.172 144.863C158.374 144.675 158.381 144.345 158.264 144.096C158.147 143.847 157.933 143.659 157.724 143.479C157.414 143.211 156.915 143.288 156.591 143.54C156.268 143.791 150.601 147.22 152.24 148.841Z" fill="#FFB61D"/>
<path fill-rule="evenodd" clip-rule="evenodd" d="M114.372 160.128C115.866 160.008 117.401 160.554 118.485 161.589C120.165 163.193 120.599 165.953 119.493 167.995C118.386 170.037 115.837 171.181 113.576 170.649C111.422 170.143 109.697 168.17 109.483 165.968C109.269 163.766 110.581 161.498 112.596 160.586C113.156 160.333 113.759 160.177 114.372 160.128M116.965 161.81C116.436 161.451 115.855 161.15 115.226 161.033C114.511 160.901 113.761 161.017 113.09 161.298C111.385 162.013 110.222 163.863 110.334 165.709C110.445 167.555 111.83 169.258 113.618 169.729C115.406 170.2 117.459 169.392 118.435 167.821C119.41 166.251 119.22 164.043 117.98 162.672C117.681 162.342 117.333 162.061 116.965 161.81V161.81Z" fill="#00160A"/>
<path fill-rule="evenodd" clip-rule="evenodd" d="M115.233 111.428C115.256 113.264 114.787 115.228 115.637 116.857C117.211 119.874 121.631 119.313 124.882 118.31C122.21 115.268 119.538 112.227 116.866 109.186C122.401 103.533 127.937 97.8808 133.473 92.2284C133.935 91.7571 134.468 91.2535 135.127 91.2406C135.888 91.2258 136.483 91.8621 136.97 92.4464C138.783 94.6214 140.597 96.7965 142.41 98.9715C143.904 100.764 145.326 103.666 143.498 105.115C150.358 104.649 157.219 104.184 164.079 103.718C162.795 96.3807 165.155 88.9489 167.486 81.8736C167.718 81.1684 167.999 80.4014 168.643 80.0324C169.095 79.774 169.641 79.7636 170.161 79.76C182.687 79.6737 195.212 79.5873 207.738 79.5009C208.497 79.4957 209.297 79.501 209.953 79.8829C210.515 80.2106 210.894 80.7726 211.249 81.3183C221.846 97.6092 228.462 116.469 230.364 135.81C230.603 138.236 230.864 140.887 232.576 142.622C235.183 145.263 235.463 149.866 233.197 152.804C234.864 154.014 234.452 156.807 232.926 158.189C231.399 159.572 229.23 159.925 227.191 160.22C224.486 160.61 221.543 160.958 219.178 159.588C223.051 158.68 226.93 157.794 230.813 156.929C229.09 145.586 227.368 134.242 225.645 122.898C225.077 119.158 224.507 115.404 223.448 111.771C222.307 107.86 220.615 104.135 218.928 100.427C216.272 94.5855 213.615 88.7443 210.958 82.903C210.669 82.2666 210.355 81.6 209.785 81.1962C209.093 80.7071 208.181 80.7082 207.335 80.7284C195.543 81.0091 183.751 81.2898 171.959 81.5705C171.279 81.5867 170.547 81.6209 170.013 82.0419C169.573 82.3882 169.35 82.9348 169.158 83.4602C164.515 96.1476 167.235 110.202 170.004 123.426C170.513 125.855 167.213 127.096 164.74 127.313C136.512 129.788 108.284 132.262 80.0563 134.737C79.71 136.975 79.6123 139.252 79.7657 141.511C81.6443 141.676 83.523 141.841 85.4016 142.007C84.8058 142.241 84.2099 142.476 83.6141 142.71C84.7249 148.548 85.3389 154.48 85.4473 160.422C85.4803 162.23 87.0477 163.718 88.774 164.257C90.5004 164.796 92.3595 164.596 94.1562 164.39C92.2436 165.191 90.2505 166.007 88.1795 165.905C86.1085 165.804 83.94 164.497 83.5577 162.46C82.3591 156.069 81.6689 149.583 81.4956 143.083C80.4072 143.11 79.3188 143.136 78.2303 143.163C77.8624 140.443 77.7143 137.693 77.7879 134.95C77.8037 134.359 77.8515 133.714 78.2545 133.282C78.6584 132.849 79.2995 132.758 79.8878 132.692C82.9486 132.348 86.0094 132.005 89.0702 131.661C88.166 125.382 87.2617 119.102 86.3574 112.823C86.2794 112.281 86.2119 111.685 86.5066 111.223C86.8343 110.71 87.4922 110.54 88.0884 110.415C96.0646 108.749 104.181 107.754 112.324 107.446C114.159 107.377 115.209 109.591 115.233 111.428ZM90.2251 131.027C90.2454 131.205 90.2759 131.403 90.4164 131.514C90.5529 131.622 90.7458 131.611 90.9193 131.595C98.928 130.834 106.937 130.074 114.945 129.313C115.166 129.292 115.418 129.254 115.539 129.067C115.633 128.921 115.614 128.731 115.591 128.559C114.773 122.414 113.954 116.269 113.136 110.124C113.113 109.955 113.086 109.775 112.972 109.649C112.818 109.479 112.562 109.462 112.333 109.457C104.42 109.283 96.4859 110.09 88.7692 111.851C88.5591 111.899 88.3292 111.961 88.2091 112.14C88.0966 112.307 88.1151 112.527 88.138 112.728C88.8337 118.828 89.5294 124.927 90.2251 131.027ZM164.737 106.461C164.702 106.176 164.643 105.851 164.395 105.706C164.238 105.613 164.043 105.621 163.86 105.631C156.73 106.034 149.6 106.436 142.47 106.839C142.312 106.848 142.143 106.861 142.024 106.964C141.851 107.115 141.861 107.382 141.885 107.61C142.537 113.767 143.19 119.923 143.843 126.079C143.863 126.273 143.891 126.483 144.029 126.62C144.207 126.797 144.492 126.786 144.741 126.764C152.14 126.085 159.538 125.407 166.936 124.729C166.203 118.64 165.47 112.55 164.737 106.461ZM126.436 116.833C126.54 116.928 126.653 117.027 126.793 117.043C126.99 117.067 127.162 116.92 127.306 116.783C132.126 112.202 137.746 108.421 142.566 103.84C142.783 103.634 143.017 103.389 143.007 103.09C143 102.889 142.883 102.712 142.769 102.546C140.848 99.7509 138.006 96.2387 135.85 93.6197C135.639 93.3624 135.365 93.0805 135.035 93.1225C134.824 93.1492 134.655 93.3043 134.502 93.4518C129.178 98.5809 123.854 103.71 118.53 108.839C118.412 108.953 118.285 109.087 118.287 109.252C118.289 109.417 118.42 109.548 118.542 109.659C121.174 112.05 123.805 114.442 126.436 116.833ZM141.842 119.352C141.801 119.088 141.743 118.795 141.525 118.64C141.331 118.503 141.072 118.52 140.836 118.543C133.466 119.244 126.096 119.946 118.725 120.648C118.34 120.685 117.889 120.765 117.721 121.114C117.629 121.306 117.652 121.531 117.677 121.742C117.925 123.847 118.174 125.951 118.423 128.056C118.458 128.353 118.514 128.687 118.761 128.855C118.959 128.989 119.219 128.974 119.457 128.953C127.079 128.292 134.701 127.631 142.324 126.97C142.514 126.953 142.725 126.926 142.845 126.777C142.968 126.624 142.944 126.404 142.913 126.21C142.556 123.924 142.199 121.638 141.842 119.352ZM140.311 108.361C140.293 108.233 140.234 108.069 140.105 108.079C140.051 108.083 140.006 108.121 139.965 108.157C136.173 111.469 132.382 114.781 128.591 118.094C132.533 117.763 136.471 117.387 140.405 116.966C140.743 116.93 141.133 116.86 141.295 116.561C141.4 116.366 141.373 116.129 141.343 115.909C140.999 113.393 140.655 110.877 140.311 108.361ZM231.804 143.827C232.168 145.923 232.531 148.018 232.894 150.114C232.93 150.322 233.004 150.572 233.21 150.618C233.545 150.691 233.661 150.188 233.615 149.848C233.37 148.034 233.124 146.221 232.878 144.408C232.834 144.083 232.77 143.723 232.508 143.527C232.245 143.331 231.748 143.505 231.804 143.827Z" fill="#00160A"/>
<path fill-rule="evenodd" clip-rule="evenodd" d="M51.5139 185.372C44.51 185.482 20.4241 187.267 20.008 186.373C19.4757 185.23 45.7412 183.727 51.4665 183.636L53.2598 183.612C58.4655 183.556 51.5139 185.372 51.5139 185.372ZM105.01 183.184C106.711 183.184 108.042 183.734 106.897 184.136C105.752 184.538 102.047 185.385 95.8422 185.527C89.6376 185.67 82.4459 185.818 71.8189 186.027C71.2027 186.039 70.6933 185.549 70.6812 184.933C70.669 184.317 71.1587 183.807 71.775 183.795L90.5927 183.412C96.3058 183.288 99.8816 183.184 105.01 183.184ZM190.011 182.53C190.627 182.52 191.135 183.012 191.144 183.628C191.154 184.244 190.662 184.752 190.046 184.762L187.431 184.794L179.43 184.849C177.82 184.865 112.676 185.282 111.793 184.326C110.909 183.371 112.265 183.199 112.881 183.183C112.881 183.183 179.409 182.615 181.149 182.602L187.802 182.558C188.575 182.551 189.276 182.542 190.011 182.53ZM262.336 180.383C262.336 180.383 264.339 180.037 278.967 181.132C279.582 181.179 280.043 181.714 279.997 182.329C279.951 182.943 272.717 182.633 262.828 182.615L260.109 182.62C252.847 182.652 246.102 182.849 234.906 183.309L220.775 183.906C214.745 184.153 211.148 184.274 206.773 184.377C206.157 184.391 205.646 183.904 205.631 183.287C205.617 182.671 206.104 182.16 206.721 182.145L210.234 182.054C214.413 181.933 218.707 181.765 226.32 181.44L234.394 181.097C247.017 180.575 254.037 180.383 262.336 180.383Z" fill="#00160A"/>
</svg>
