<svg  viewBox="0 0 48 48" xmlns="http://www.w3.org/2000/svg">
<path d="M24 0.75C11.1507 0.75 0.75 11.1487 0.75 24C0.75 36.8493 11.1487 47.25 24 47.25C28.5144 47.25 32.9383 45.9244 36.6945 43.4791C37.82 42.7464 38.0656 41.2021 37.215 40.163L36.2609 38.9974C35.5417 38.1188 34.2754 37.9036 33.3197 38.5165C30.555 40.2897 27.3107 41.25 24 41.25C14.4883 41.25 6.75 33.5117 6.75 24C6.75 14.4883 14.4883 6.75 24 6.75C33.388 6.75 41.25 12.1518 41.25 21.75C41.25 25.3862 39.2725 29.2258 35.7966 29.5962C34.1701 29.5537 34.2113 28.3909 34.5332 26.7815L36.73 15.4274C36.9987 14.0391 35.9351 12.75 34.5211 12.75H30.3041C29.9928 12.75 29.6923 12.8646 29.46 13.072C29.2278 13.2794 29.08 13.565 29.0449 13.8743L29.0439 13.883C27.6661 12.2048 25.2519 11.8416 23.4217 11.8416C16.4298 11.8416 10.5 17.676 10.5 26.0409C10.5 32.1631 13.9486 35.9663 19.5 35.9663C22.0298 35.9663 24.8783 34.5003 26.5304 32.3725C27.4231 35.5698 30.3379 35.5697 33.1595 35.5697C43.3696 35.5697 47.25 28.8561 47.25 21.75C47.25 8.96747 36.9397 0.75 24 0.75ZM21.9675 29.2903C19.8817 29.2903 18.5859 27.8257 18.5859 25.468C18.5859 21.2499 21.4715 18.6497 24.0825 18.6497C26.1724 18.6497 27.4201 20.0785 27.4201 22.4719C27.4201 26.6963 24.2443 29.2903 21.9675 29.2903Z" fill=""/>
</svg>
