<svg  viewBox="0 0 48 48" xmlns="http://www.w3.org/2000/svg">
<path d="M16.0548 38.4583C16.0548 38.6518 15.8323 38.8067 15.5516 38.8067C15.2323 38.8357 15.0097 38.6809 15.0097 38.4583C15.0097 38.2647 15.2323 38.1099 15.5129 38.1099C15.8032 38.0809 16.0548 38.2357 16.0548 38.4583ZM13.0452 38.0228C12.9774 38.2163 13.171 38.4389 13.4613 38.497C13.7129 38.5938 14.0032 38.497 14.0613 38.3034C14.1194 38.1099 13.9355 37.8873 13.6452 37.8002C13.3935 37.7325 13.1129 37.8293 13.0452 38.0228ZM17.3226 37.8583C17.0419 37.926 16.8484 38.1099 16.8774 38.3325C16.9065 38.526 17.1581 38.6518 17.4484 38.5841C17.729 38.5163 17.9226 38.3325 17.8935 38.1389C17.8645 37.9551 17.6032 37.8293 17.3226 37.8583ZM23.6903 0.774414C10.2677 0.774414 0 10.9647 0 24.3873C0 35.1196 6.75484 44.3034 16.4032 47.5357C17.6419 47.7583 18.0774 46.9938 18.0774 46.3647C18.0774 45.7647 18.0484 42.4551 18.0484 40.4228C18.0484 40.4228 11.2742 41.8744 9.85161 37.5389C9.85161 37.5389 8.74839 34.7228 7.16129 33.997C7.16129 33.997 4.94516 32.4776 7.31613 32.5067C7.31613 32.5067 9.72581 32.7002 11.0516 35.0034C13.171 38.7389 16.7226 37.6647 18.1065 37.026C18.329 35.4776 18.9581 34.4034 19.6548 33.7647C14.2452 33.1647 8.7871 32.3809 8.7871 23.0712C8.7871 20.4099 9.52258 19.0744 11.071 17.3712C10.8194 16.7422 9.99677 14.1486 11.3226 10.8002C13.3452 10.1712 18 13.4131 18 13.4131C19.9355 12.8712 22.0161 12.5905 24.0774 12.5905C26.1387 12.5905 28.2194 12.8712 30.1548 13.4131C30.1548 13.4131 34.8097 10.1615 36.8323 10.8002C38.1581 14.1583 37.3355 16.7422 37.0839 17.3712C38.6323 19.0841 39.5806 20.4196 39.5806 23.0712C39.5806 32.4099 33.8806 33.1551 28.471 33.7647C29.3613 34.5293 30.1161 35.9809 30.1161 38.2551C30.1161 41.5163 30.0871 45.5518 30.0871 46.3454C30.0871 46.9744 30.5323 47.7389 31.7613 47.5163C41.4387 44.3034 48 35.1196 48 24.3873C48 10.9647 37.1129 0.774414 23.6903 0.774414ZM9.40645 34.1518C9.28064 34.2486 9.30968 34.4712 9.47419 34.6551C9.62903 34.8099 9.85161 34.8776 9.97742 34.7518C10.1032 34.6551 10.0742 34.4325 9.90968 34.2486C9.75484 34.0938 9.53226 34.026 9.40645 34.1518ZM8.36129 33.368C8.29355 33.4938 8.39032 33.6486 8.58387 33.7454C8.73871 33.8422 8.93226 33.8131 9 33.6776C9.06774 33.5518 8.97097 33.397 8.77742 33.3002C8.58387 33.2422 8.42903 33.2712 8.36129 33.368ZM11.4968 36.8131C11.3419 36.9389 11.4 37.2293 11.6226 37.4131C11.8452 37.6357 12.1258 37.6647 12.2516 37.5099C12.3774 37.3841 12.3194 37.0938 12.1258 36.9099C11.9129 36.6873 11.6226 36.6583 11.4968 36.8131ZM10.3935 35.3905C10.2387 35.4873 10.2387 35.7389 10.3935 35.9615C10.5484 36.1841 10.8097 36.2809 10.9355 36.1841C11.0903 36.0583 11.0903 35.8067 10.9355 35.5841C10.8 35.3615 10.5484 35.2647 10.3935 35.3905Z" fill=""/>
</svg>
