<svg  viewBox="0 0 49 46" xmlns="http://www.w3.org/2000/svg">
<path d="M10.8625 1.33428C10.5719 0.499902 9.39061 0.499902 9.09061 1.33428L3.79374 17.7218H16.1687C16.1594 17.7218 10.8625 1.33428 10.8625 1.33428ZM1.08436 25.9718C0.840611 26.7218 1.11249 27.5562 1.74999 28.0343L24.9906 45.2843L3.78436 17.7218L1.08436 25.9718ZM16.1594 17.7218L25 45.2843L33.8406 17.7218H16.1594ZM48.9156 25.9718L46.2156 17.7218L25 45.2843L48.2406 28.0343C48.8875 27.5562 49.15 26.7218 48.9156 25.9718ZM40.9094 1.33428C40.6187 0.499902 39.4375 0.499902 39.1375 1.33428L33.8312 17.7218H46.2062L40.9094 1.33428Z"/>
</svg>
