<svg  viewBox="0 0 943 969" fill="none" xmlns="http://www.w3.org/2000/svg">
<!-- width="943" height="969" -->
<ellipse cx="572.73" cy="568.611" rx="352.5" ry="454.876" transform="rotate(-46.6302 572.73 568.611)" fill="#EDF0F5" fill-opacity="0.81"/>
<path fill-rule="evenodd" clip-rule="evenodd" d="M908.924 351.343C908.39 350.955 907.125 350.818 906.536 350.702C904.089 350.219 901.568 350.009 899.073 350.009C891.38 350.021 883.561 350.776 875.996 352.083C871.193 352.912 865.386 355.705 860.607 354.188C852.283 351.546 843.87 351.676 835.972 355.448C828.751 358.897 823.27 365.448 820.071 372.526C819.588 373.595 817.63 377.528 817.076 380.179C816.839 380.721 816.612 381.266 816.406 381.82C815.824 383.393 815.301 384.994 814.816 386.597C814.609 387.281 814.087 388.791 814.706 389.083C813.717 390.91 812.84 392.792 812.109 394.735C809.984 400.387 807.66 406.587 806.914 412.577C806.637 414.795 806.627 417.026 806.883 419.248C807.01 420.347 806.958 422.555 807.703 423.391C809.283 425.163 810.094 422.682 809.916 421.5C808.556 412.494 811.183 404.036 814.297 395.57C816.31 390.096 819.618 385.087 823.324 380.552C826.323 376.88 829.54 373.989 833.651 371.555C838.679 368.578 844.054 366.172 849.38 363.758C852.882 362.17 856.389 360.624 859.989 359.256C860.79 358.951 862.05 358.171 862.937 358.167C864.815 358.161 867.475 359.546 869.288 360.061C875.252 361.757 881.293 363.928 887.457 364.794C891.41 365.35 895.114 364.724 898.812 363.407C899.19 363.273 899.823 362.927 900.599 362.433C903.344 361.377 905.941 360.048 908.202 358.131C909.505 357.026 910.687 355.598 911.765 354.291C912.087 353.901 912.23 353.453 912.235 353.027C912.479 352.9 912.641 352.751 912.678 352.576C912.947 351.29 910.494 351.267 908.924 351.343Z" fill="#CC1E4A"/>
<path fill-rule="evenodd" clip-rule="evenodd" d="M283.971 458.55C282.462 459.772 280.982 461.021 279.538 462.319C278.437 463.31 276.489 464.494 276.094 465.995C275.683 467.553 276.98 469.012 278.004 469.954C283.421 474.938 289.521 478.307 297.027 478.868C308.585 479.731 318.644 476.779 328.672 470.972C335.716 466.892 340.382 460.858 341.401 452.71C349.79 456.196 357.903 461.002 364.798 466.9C368.2 469.81 371.13 473.034 373.84 476.608C375.576 478.898 377.255 481.224 378.813 483.64C379.49 484.689 380.179 486.551 381.297 487.155C382.61 487.865 384.197 486.752 384.132 485.293C384.077 484.078 382.766 482.669 382.152 481.676C381.134 480.027 380.1 478.388 379.011 476.785C377.249 474.188 375.428 471.629 373.442 469.199C368.978 463.74 363.299 459.23 357.412 455.384C346.118 448.006 333.723 443.358 319.981 442.964C311.531 442.722 304.423 445.609 297.197 449.92C292.698 452.605 288.054 455.244 283.971 458.55Z" fill="#CC1E4A"/>
<path fill-rule="evenodd" clip-rule="evenodd" d="M393.581 422.865C384.775 413.796 375.939 404.841 366.101 396.856C360.303 392.15 354.193 387.872 348.209 383.41C348.899 384.015 349.576 384.637 350.237 385.275C348.369 384.007 345.924 383.29 343.944 382.116C341.735 380.807 339.623 379.31 337.552 377.8C333.509 374.854 329.527 371.852 325.371 369.06C320.741 365.949 315.943 363.075 311.234 360.082C307.237 357.541 303.192 354.76 298.916 352.684C296.586 351.552 294.251 350.21 291.911 349.029C291.128 348.634 283.182 343.617 283.202 343.602C283.641 343.271 287.64 345.149 288.258 345.402C290.064 346.14 291.792 347.022 293.528 347.902C292.575 346.022 291.821 344.047 291.41 341.967C291.283 341.326 290.267 336.653 290.787 336.261C291.046 336.066 293.581 344.425 293.711 345.229C293.817 345.881 293.801 346.821 294.015 347.44C294.36 348.438 294.343 348.137 295.103 348.699C296.496 349.73 298.345 350.374 299.852 351.236C300.666 351.69 303.183 353.489 304.699 354.002C309.286 356.23 313.936 359.658 318.295 362.504C317.151 360.354 316.28 358.106 315.646 355.75C315.495 355.191 313.865 350.174 314.261 349.876C314.706 349.541 317.81 357.204 317.994 357.929C318.335 359.277 318.406 360.777 318.834 362.088C319.303 363.527 320.768 364.037 322.088 364.876C326.945 367.962 331.636 371.241 336.248 374.671C341.281 365.72 335.478 354.912 330.588 347.402C327.062 341.99 322.317 337.349 317.306 333.298C310.618 327.891 302.967 323.572 295.325 319.621C286.421 315.018 276.797 312.166 266.791 310.848C261.558 310.159 256.205 310.178 250.919 310.399C248.337 310.507 245.858 310.849 243.384 311.691C242.268 312.071 241.19 312.55 240.14 313.086C239.342 313.493 237.411 313.923 236.953 314.531C233.175 319.447 231.243 324.346 231.538 330.524C231.817 336.372 233.664 342.223 236.17 347.44C238.962 353.249 242.552 358.521 247.248 362.945C250.83 366.321 254.835 369.259 258.814 372.159C272.965 382.472 290.906 391.442 309.234 389.137C315.167 388.392 320.81 386.317 326.083 383.498C327.326 382.833 328.561 382.161 329.734 381.377C330.525 380.848 332.639 378.465 333.434 378.379C334.525 378.26 336.873 380.478 337.896 381.153C345.67 386.284 353.24 391.694 360.651 397.322C368.537 403.31 376.035 409.706 383.313 416.402C386.408 419.251 389.484 422.105 392.489 425.049C393.189 425.734 394.9 428.256 396.169 428.371C396.971 428.443 397.512 427.758 397.398 427.015C397.199 425.725 394.483 423.793 393.581 422.865Z" fill="#CC1E4A"/>
<path fill-rule="evenodd" clip-rule="evenodd" d="M899.679 387.669C896.268 386.924 892.502 386.981 889.027 387.042C870.394 387.296 852.096 396.118 840.187 410.214C830.049 422.214 827.261 437.134 825.259 452.216C825.06 453.713 824.975 455.201 824.863 456.702C824.839 457.024 824.803 457.311 824.765 457.582C823.977 458.286 823.564 459.107 824.03 460.009C822.295 463.806 820.827 467.699 819.567 471.715C815.861 483.535 812.09 495.58 814.413 508.009C814.955 501.169 816.097 494.175 817.462 487.447C817.541 487.061 817.625 486.678 817.714 486.296C817.723 486.256 817.731 486.215 817.74 486.176C818.224 484.115 818.852 482.117 819.616 480.15C819.624 480.128 819.631 480.107 819.64 480.086C819.741 479.827 819.848 479.57 819.953 479.312C820.172 478.779 820.397 478.247 820.635 477.718C820.716 477.537 820.793 477.355 820.868 477.172C821.98 474.446 822.45 471.375 823.446 468.554C823.684 467.913 823.934 467.274 824.195 466.638C824.21 466.601 824.226 466.564 824.241 466.527C824.947 464.816 825.727 463.127 826.551 461.455C826.999 461.119 827.238 460.283 827.625 459.524C827.705 459.375 828.329 458.377 828.515 457.802C829.001 456.863 829.484 455.924 829.973 454.986C829.959 454.992 829.944 454.997 829.929 455.003C830.419 454.102 830.909 453.206 831.396 452.313C831.503 452.117 831.612 451.921 831.719 451.724C831.894 451.411 832.069 451.098 832.244 450.786C833.876 447.865 835.606 445.003 837.404 442.176C838.045 441.167 839.577 439.72 839.871 438.588C839.882 438.545 839.885 438.506 839.891 438.466C843.791 432.988 848.281 427.936 853.665 423.933C853.014 424.637 851.631 427.024 851.265 427.497C850.146 428.944 848.93 430.291 847.711 431.655C845.526 434.098 843.394 436.618 841.499 439.283C838.034 444.157 835.044 449.286 832.218 454.519C832.191 454.549 832.162 454.578 832.136 454.61C830.716 456.361 829.822 459.007 828.799 461.01C832.846 459.136 837.32 457.915 841.473 456.251C845.614 454.592 849.643 452.744 853.532 450.575C858.702 447.691 864.064 444.436 868.948 440.752C874.546 437.28 879.249 432.501 883.401 427.486C888.313 421.552 892.815 415.567 895.599 408.362C896.967 404.822 898.043 401.13 898.681 397.395C898.709 397.233 898.744 397.056 898.783 396.873C899.436 395.583 900.019 394.264 900.509 392.915C901.286 390.775 903.123 388.421 899.679 387.669Z" fill="#CC1E4A"/>
<path fill-rule="evenodd" clip-rule="evenodd" d="M321.706 412.738C320.638 411.581 319.438 410.537 318.029 409.792C317.672 409.604 315.019 408.344 314.846 408.62C314.443 409.264 321.385 412.369 321.706 412.738ZM334.288 405.009C334.279 405.058 335.199 406.619 335.45 407.099C335.983 408.12 336.475 409.16 336.938 410.203C336.253 408.362 335.548 406.654 334.288 405.009ZM269.943 417.718C269.057 418.003 267.991 416.879 269.141 416.601C270.071 416.379 270.025 416.327 270.443 415.577C270.782 414.969 270.991 414.227 271.289 413.589C271.92 412.235 272.636 410.943 273.515 409.733C275.398 407.139 277.693 404.904 280.267 403.021C284.759 399.734 289.796 396.73 295.139 395.22C303.634 392.82 313.303 392.672 321.811 394.336C327.081 395.366 331.896 397.158 335.395 401.401C337.144 403.521 338.517 406.005 339.117 408.74C339.274 409.455 339.244 410.25 339.44 410.95C339.742 412.027 339.609 411.74 340.868 411.95C342.242 412.178 343.615 412.411 344.988 412.649C348.583 413.271 352.199 413.931 355.702 414.94C356.855 415.272 357.982 415.678 359.084 416.149C359.917 416.505 363.234 417.624 363.637 418.706C364.308 420.507 362.06 419.691 361.361 419.298C360.749 418.955 360.121 418.634 359.484 418.339C357.879 417.597 356.207 417.022 354.497 416.565C352.649 416.071 350.764 415.702 348.885 415.332C347.134 414.988 345.376 414.675 343.615 414.376C342.637 414.209 341.659 414.047 340.68 413.886C340.345 413.83 339.756 413.541 339.8 413.976C337.742 413.579 335.517 413.636 333.421 413.527C330.854 413.393 328.277 413.283 325.701 413.364C323.843 413.421 321.984 413.543 320.135 413.793C319.055 413.939 317.992 414.152 316.932 414.423C316.35 414.571 314.055 414.886 313.738 415.393C313.874 415.175 316.407 415.387 316.73 415.374C318.02 415.326 319.299 415.198 320.584 415.055C322.969 414.788 325.354 414.649 327.746 414.67C327.737 415.089 326.103 415.837 325.704 416.115C324.81 416.74 323.953 417.42 323.154 418.167C321.747 419.482 320.061 421.111 319.088 422.67C319.375 422.21 320.79 421.613 321.292 421.262C322.097 420.7 322.886 420.1 323.632 419.459C324.32 418.867 324.963 418.227 325.595 417.574C326.227 416.921 327.084 415.562 327.915 415.127C327.965 415.1 328.327 415.386 328.532 415.289C328.74 415.191 328.998 414.701 329.05 414.681C329.823 414.383 331.291 414.754 332.104 414.792C334.211 414.889 336.317 415.016 338.422 415.132C339.075 415.168 339.629 415.019 339.876 415.5C340.138 416.014 339.657 417.363 339.52 417.922C339.012 419.998 338.111 421.859 336.691 423.468C334.033 426.481 330.754 428.489 327.051 429.833C312.867 434.979 297.776 437.04 283.596 431.687C277.726 429.47 268.884 425.51 269.943 417.718Z" fill="#CC1E4A"/>
<g opacity="0.6" clip-path="url(#clip0)">
<path fill-rule="evenodd" clip-rule="evenodd" d="M919.409 660.161C929.059 725.485 695.035 768.094 493.606 738.358C292.176 708.623 199.77 592.503 295.889 530.629C392.008 468.756 909.759 594.838 919.409 660.161Z" fill="black"/>
</g>
<g clip-path="url(#clip1)">
<rect x="356.698" y="232.009" width="159" height="302" rx="8" fill="#FFC906"/>
<path fill-rule="evenodd" clip-rule="evenodd" d="M435.698 515.009C443.982 515.009 450.698 508.293 450.698 500.009C450.698 491.725 443.982 485.009 435.698 485.009C427.414 485.009 420.698 491.725 420.698 500.009C420.698 508.293 427.414 515.009 435.698 515.009Z" fill="white"/>
<path fill-rule="evenodd" clip-rule="evenodd" d="M422.698 252.009C423.803 252.009 424.698 251.114 424.698 250.009C424.698 248.904 423.803 248.009 422.698 248.009C421.593 248.009 420.698 248.904 420.698 250.009C420.698 251.114 421.593 252.009 422.698 252.009Z" fill="white"/>
<rect x="429.698" y="248.009" width="21" height="4" rx="2" fill="white"/>
<g clip-path="url(#clip2)">
<g clip-path="url(#clip3)">
<rect x="370.698" y="260.009" width="131" height="54" rx="4" fill="white"/>
<g clip-path="url(#clip4)">
<rect x="409.698" y="276.209" width="73" height="8.1" rx="3" fill="#A2A2A2"/>
<rect x="409.698" y="289.709" width="49" height="8.1" rx="3" fill="#A2A2A2"/>
</g>
<path fill-rule="evenodd" clip-rule="evenodd" d="M391.698 299.009C398.325 299.009 403.698 293.636 403.698 287.009C403.698 280.382 398.325 275.009 391.698 275.009C385.071 275.009 379.698 280.382 379.698 287.009C379.698 293.636 385.071 299.009 391.698 299.009Z" fill="#2B77B5"/>
</g>
<g clip-path="url(#clip5)">
<rect x="370.698" y="322.009" width="131" height="42" rx="4" fill="white"/>
<g clip-path="url(#clip6)">
<rect x="409.698" y="334.609" width="73" height="6.3" rx="3" fill="#A2A2A2"/>
<rect x="409.698" y="345.109" width="49" height="6.3" rx="3" fill="#A2A2A2"/>
</g>
<path fill-rule="evenodd" clip-rule="evenodd" d="M391.698 355.009C398.325 355.009 403.698 349.636 403.698 343.009C403.698 336.382 398.325 331.009 391.698 331.009C385.071 331.009 379.698 336.382 379.698 343.009C379.698 349.636 385.071 355.009 391.698 355.009Z" fill="#2B77B5"/>
</g>
<g clip-path="url(#clip7)">
<rect x="370.698" y="372.009" width="131" height="42" rx="4" fill="white"/>
<g clip-path="url(#clip8)">
<rect x="409.698" y="384.609" width="73" height="6.3" rx="3" fill="#A2A2A2"/>
<rect x="409.698" y="395.109" width="49" height="6.3" rx="3" fill="#A2A2A2"/>
</g>
<path fill-rule="evenodd" clip-rule="evenodd" d="M391.698 405.009C398.325 405.009 403.698 399.636 403.698 393.009C403.698 386.382 398.325 381.009 391.698 381.009C385.071 381.009 379.698 386.382 379.698 393.009C379.698 399.636 385.071 405.009 391.698 405.009Z" fill="#F75469"/>
</g>
<g clip-path="url(#clip9)">
<rect x="370.698" y="422.009" width="131" height="42" rx="4" fill="white"/>
<g clip-path="url(#clip10)">
<rect x="409.698" y="434.609" width="73" height="6.3" rx="3" fill="#A2A2A2"/>
<rect x="409.698" y="445.109" width="49" height="6.3" rx="3" fill="#A2A2A2"/>
</g>
<path fill-rule="evenodd" clip-rule="evenodd" d="M391.698 455.009C398.325 455.009 403.698 449.636 403.698 443.009C403.698 436.382 398.325 431.009 391.698 431.009C385.071 431.009 379.698 436.382 379.698 443.009C379.698 449.636 385.071 455.009 391.698 455.009Z" fill="#2B77B5"/>
</g>
</g>
</g>
<g clip-path="url(#clip11)">
<path fill-rule="evenodd" clip-rule="evenodd" d="M386.838 476.009C385.513 476.009 384.192 476.036 382.869 476.105C381.86 476.157 380.319 475.948 379.466 476.577C378.579 477.23 378.64 478.566 378.779 479.51C379.511 484.502 381.298 488.928 385.037 492.465C390.794 497.91 397.393 500.677 405.202 501.909C410.688 502.775 415.752 501.573 419.79 497.672C422.741 503.148 424.979 509.208 426.102 515.324C426.656 518.342 426.825 521.324 426.728 524.397C426.665 526.365 426.556 528.329 426.346 530.288C426.254 531.139 425.82 532.428 426.153 533.232C426.544 534.177 427.863 534.268 428.455 533.462C428.948 532.792 428.858 531.475 428.959 530.682C429.127 529.364 429.282 528.045 429.393 526.721C429.574 524.578 429.707 522.429 429.697 520.278C429.675 515.444 428.6 510.592 427.13 506.004C424.31 497.201 419.735 489.378 412.619 483.24C408.243 479.466 403.235 477.938 397.554 477.117C394.016 476.606 390.421 476.009 386.838 476.009Z" fill="#CC1E4A"/>
<path fill-rule="evenodd" clip-rule="evenodd" d="M407.269 511.009C392.97 511.009 383.34 522.533 378.787 534.511C377.07 539.025 376.668 543.983 376.006 548.724C375.794 550.245 375.873 552.563 375.255 553.918C375.031 554.41 374.517 554.586 374.763 555.256C374.912 555.662 375.203 555.91 375.642 555.99C376.541 556.156 377.813 555.176 378.584 554.79C384.98 551.582 389.182 546.622 392.61 540.554C394.736 536.793 396.892 532.888 398.154 528.759C398.925 526.236 399.374 523.58 399.638 520.963C399.742 519.933 399.842 518.877 399.836 517.841C399.83 516.812 399.351 516.268 399.007 515.373C403.778 513.567 409.164 513.075 413.997 514.946C418.467 516.677 422.18 520.022 424.259 524.225C424.799 525.317 425.216 526.469 425.519 527.645C425.718 528.415 425.727 529.413 426.096 530.109C426.988 531.797 428.866 530.669 428.686 529.098C428.183 524.717 425.677 520.318 422.473 517.272C418.432 513.43 412.956 511.009 407.269 511.009Z" fill="#CC1E4A"/>
<rect x="422.698" y="258.009" width="159" height="302" rx="8" fill="#F75469"/>
<path fill-rule="evenodd" clip-rule="evenodd" d="M501.698 541.009C509.982 541.009 516.698 534.293 516.698 526.009C516.698 517.725 509.982 511.009 501.698 511.009C493.414 511.009 486.698 517.725 486.698 526.009C486.698 534.293 493.414 541.009 501.698 541.009Z" fill="white"/>
<path fill-rule="evenodd" clip-rule="evenodd" d="M488.698 278.009C489.803 278.009 490.698 277.114 490.698 276.009C490.698 274.904 489.803 274.009 488.698 274.009C487.593 274.009 486.698 274.904 486.698 276.009C486.698 277.114 487.593 278.009 488.698 278.009Z" fill="white"/>
<rect x="495.698" y="274.009" width="21" height="4" rx="2" fill="white"/>
<g clip-path="url(#clip12)">
<g clip-path="url(#clip13)">
<rect x="436.698" y="286.009" width="131" height="54" rx="4" fill="white"/>
<g clip-path="url(#clip14)">
<rect x="445.698" y="302.209" width="73" height="8.1" rx="3" fill="#A2A2A2"/>
<rect x="445.698" y="315.709" width="49" height="8.1" rx="3" fill="#A2A2A2"/>
</g>
<path fill-rule="evenodd" clip-rule="evenodd" d="M553.698 320.009C557.564 320.009 560.698 316.875 560.698 313.009C560.698 309.143 557.564 306.009 553.698 306.009C549.832 306.009 546.698 309.143 546.698 313.009C546.698 316.875 549.832 320.009 553.698 320.009Z" fill="#A2A2A2"/>
<path fill-rule="evenodd" clip-rule="evenodd" d="M553.698 316.009C555.355 316.009 556.698 314.666 556.698 313.009C556.698 311.352 555.355 310.009 553.698 310.009C552.041 310.009 550.698 311.352 550.698 313.009C550.698 314.666 552.041 316.009 553.698 316.009Z" fill="#FFC906"/>
</g>
<g clip-path="url(#clip15)">
<rect x="436.698" y="348.009" width="131" height="42" rx="4" fill="white"/>
<g clip-path="url(#clip16)">
<rect x="475.698" y="360.609" width="73" height="6.3" rx="3" fill="#A2A2A2"/>
<rect x="475.698" y="371.109" width="49" height="6.3" rx="3" fill="#A2A2A2"/>
</g>
<path fill-rule="evenodd" clip-rule="evenodd" d="M457.698 381.009C464.325 381.009 469.698 375.636 469.698 369.009C469.698 362.382 464.325 357.009 457.698 357.009C451.071 357.009 445.698 362.382 445.698 369.009C445.698 375.636 451.071 381.009 457.698 381.009Z" fill="#2B77B5"/>
</g>
<g clip-path="url(#clip17)">
<rect x="436.698" y="398.009" width="131" height="42" rx="4" fill="white"/>
<g clip-path="url(#clip18)">
<rect x="445.698" y="410.609" width="73" height="6.3" rx="3" fill="#A2A2A2"/>
<rect x="445.698" y="421.109" width="49" height="6.3" rx="3" fill="#F75469"/>
</g>
<path fill-rule="evenodd" clip-rule="evenodd" d="M553.698 426.009C557.564 426.009 560.698 422.875 560.698 419.009C560.698 415.143 557.564 412.009 553.698 412.009C549.832 412.009 546.698 415.143 546.698 419.009C546.698 422.875 549.832 426.009 553.698 426.009Z" fill="#A2A2A2"/>
<path fill-rule="evenodd" clip-rule="evenodd" d="M553.698 422.009C555.355 422.009 556.698 420.666 556.698 419.009C556.698 417.352 555.355 416.009 553.698 416.009C552.041 416.009 550.698 417.352 550.698 419.009C550.698 420.666 552.041 422.009 553.698 422.009Z" fill="#FFC906"/>
</g>
<g clip-path="url(#clip19)">
<rect x="436.698" y="448.009" width="131" height="42" rx="4" fill="white"/>
<g clip-path="url(#clip20)">
<rect x="475.698" y="460.609" width="73" height="6.3" rx="3" fill="#A2A2A2"/>
<rect x="475.698" y="471.109" width="49" height="6.3" rx="3" fill="#A2A2A2"/>
</g>
<path fill-rule="evenodd" clip-rule="evenodd" d="M457.698 481.009C464.325 481.009 469.698 475.636 469.698 469.009C469.698 462.382 464.325 457.009 457.698 457.009C451.071 457.009 445.698 462.382 445.698 469.009C445.698 475.636 451.071 481.009 457.698 481.009Z" fill="#2B77B5"/>
</g>
</g>
</g>
<g clip-path="url(#clip21)">
<rect x="488.698" y="283.009" width="335" height="346" rx="8" fill="#FFC906"/>
<rect x="737.698" y="326.009" width="70" height="81" rx="8" fill="white"/>
<path fill-rule="evenodd" clip-rule="evenodd" d="M772.698 373.009C781.535 373.009 788.698 365.846 788.698 357.009C788.698 348.173 781.535 341.009 772.698 341.009C763.861 341.009 756.698 348.173 756.698 357.009C756.698 365.846 763.861 373.009 772.698 373.009Z" fill="#A2A2A2"/>
<rect x="747.698" y="377.009" width="50" height="6" rx="3" fill="#A2A2A2"/>
<rect x="755.698" y="387.009" width="34" height="6" rx="3" fill="#A2A2A2"/>
<path d="M488.698 291.009C488.698 286.591 492.28 283.009 496.698 283.009H815.698C820.116 283.009 823.698 286.591 823.698 291.009V310.009H488.698V291.009Z" fill="#2B77B5"/>
<path fill-rule="evenodd" clip-rule="evenodd" d="M501.698 301.009C503.907 301.009 505.698 299.218 505.698 297.009C505.698 294.8 503.907 293.009 501.698 293.009C499.489 293.009 497.698 294.8 497.698 297.009C497.698 299.218 499.489 301.009 501.698 301.009Z" fill="#FFC906"/>
<path fill-rule="evenodd" clip-rule="evenodd" d="M513.698 301.009C515.907 301.009 517.698 299.218 517.698 297.009C517.698 294.8 515.907 293.009 513.698 293.009C511.489 293.009 509.698 294.8 509.698 297.009C509.698 299.218 511.489 301.009 513.698 301.009Z" fill="#FFC906"/>
<path fill-rule="evenodd" clip-rule="evenodd" d="M525.698 301.009C527.907 301.009 529.698 299.218 529.698 297.009C529.698 294.8 527.907 293.009 525.698 293.009C523.489 293.009 521.698 294.8 521.698 297.009C521.698 299.218 523.489 301.009 525.698 301.009Z" fill="#FFC906"/>
<g clip-path="url(#clip22)">
<rect x="737.698" y="415.009" width="70" height="194" rx="8" fill="white"/>
<g clip-path="url(#clip23)">
<rect x="755.698" y="433.009" width="34" height="26" rx="4" fill="#A2A2A2"/>
<rect x="755.698" y="467.009" width="34" height="25" rx="4" fill="#F75469"/>
<rect x="755.698" y="500.009" width="34" height="25" rx="4" fill="#A2A2A2"/>
<rect x="755.698" y="566.009" width="34" height="25" rx="4" fill="#A2A2A2"/>
<rect x="755.698" y="533.009" width="34" height="25" rx="4" fill="#2B77B5"/>
</g>
</g>
<g clip-path="url(#clip24)">
<g clip-path="url(#clip25)">
<rect x="504.698" y="327.009" width="225" height="47" rx="4" fill="white"/>
<g clip-path="url(#clip26)">
<rect x="513.698" y="341.109" width="167" height="7.05" rx="3" fill="#A2A2A2"/>
<rect x="513.698" y="352.859" width="112.096" height="7.05" rx="3" fill="#A2A2A2"/>
</g>
<path fill-rule="evenodd" clip-rule="evenodd" d="M705.652 357.509C709.518 357.509 712.652 354.375 712.652 350.509C712.652 346.643 709.518 343.509 705.652 343.509C701.786 343.509 698.652 346.643 698.652 350.509C698.652 354.375 701.786 357.509 705.652 357.509Z" fill="#A2A2A2"/>
<path fill-rule="evenodd" clip-rule="evenodd" d="M705.652 353.509C707.309 353.509 708.652 352.166 708.652 350.509C708.652 348.852 707.309 347.509 705.652 347.509C703.995 347.509 702.652 348.852 702.652 350.509C702.652 352.166 703.995 353.509 705.652 353.509Z" fill="#FFC906"/>
</g>
<g clip-path="url(#clip27)">
<rect x="504.698" y="382.009" width="225" height="39" rx="4" fill="white"/>
<g clip-path="url(#clip28)">
<rect x="513.698" y="393.709" width="167" height="5.85" rx="2.925" fill="#A2A2A2"/>
<rect x="513.698" y="403.459" width="112.096" height="5.85" rx="2.925" fill="#A2A2A2"/>
</g>
<path fill-rule="evenodd" clip-rule="evenodd" d="M705.652 408.509C709.518 408.509 712.652 405.375 712.652 401.509C712.652 397.643 709.518 394.509 705.652 394.509C701.786 394.509 698.652 397.643 698.652 401.509C698.652 405.375 701.786 408.509 705.652 408.509Z" fill="#A2A2A2"/>
<path fill-rule="evenodd" clip-rule="evenodd" d="M705.652 404.509C707.309 404.509 708.652 403.166 708.652 401.509C708.652 399.852 707.309 398.509 705.652 398.509C703.995 398.509 702.652 399.852 702.652 401.509C702.652 403.166 703.995 404.509 705.652 404.509Z" fill="#FFC906"/>
</g>
<g clip-path="url(#clip29)">
<rect x="504.698" y="429.009" width="225" height="39" rx="4" fill="white"/>
<g clip-path="url(#clip30)">
<rect x="513.698" y="440.709" width="167" height="5.85" rx="2.925" fill="#A2A2A2"/>
<rect x="513.698" y="450.459" width="112.096" height="5.85" rx="2.925" fill="#A2A2A2"/>
</g>
<path fill-rule="evenodd" clip-rule="evenodd" d="M705.652 455.509C709.518 455.509 712.652 452.375 712.652 448.509C712.652 444.643 709.518 441.509 705.652 441.509C701.786 441.509 698.652 444.643 698.652 448.509C698.652 452.375 701.786 455.509 705.652 455.509Z" fill="#A2A2A2"/>
<path fill-rule="evenodd" clip-rule="evenodd" d="M705.652 451.509C707.309 451.509 708.652 450.166 708.652 448.509C708.652 446.852 707.309 445.509 705.652 445.509C703.995 445.509 702.652 446.852 702.652 448.509C702.652 450.166 703.995 451.509 705.652 451.509Z" fill="#F75469"/>
</g>
<g clip-path="url(#clip31)">
<rect x="504.698" y="570.009" width="225" height="39" rx="4" fill="white"/>
<g clip-path="url(#clip32)">
<rect x="513.698" y="581.709" width="167" height="5.85" rx="2.925" fill="#A2A2A2"/>
<rect x="513.698" y="591.459" width="112.096" height="5.85" rx="2.925" fill="#A2A2A2"/>
</g>
<path fill-rule="evenodd" clip-rule="evenodd" d="M705.652 596.509C709.518 596.509 712.652 593.375 712.652 589.509C712.652 585.643 709.518 582.509 705.652 582.509C701.786 582.509 698.652 585.643 698.652 589.509C698.652 593.375 701.786 596.509 705.652 596.509Z" fill="#A2A2A2"/>
<path fill-rule="evenodd" clip-rule="evenodd" d="M705.652 592.509C707.309 592.509 708.652 591.166 708.652 589.509C708.652 587.852 707.309 586.509 705.652 586.509C703.995 586.509 702.652 587.852 702.652 589.509C702.652 591.166 703.995 592.509 705.652 592.509Z" fill="#FFC906"/>
</g>
<g clip-path="url(#clip33)">
<rect x="504.698" y="523.009" width="225" height="39" rx="4" fill="white"/>
<g clip-path="url(#clip34)">
<rect x="513.698" y="534.709" width="167" height="5.85" rx="2.925" fill="#A2A2A2"/>
<rect x="513.698" y="544.459" width="112.096" height="5.85" rx="2.925" fill="#A2A2A2"/>
</g>
<path fill-rule="evenodd" clip-rule="evenodd" d="M705.652 549.509C709.518 549.509 712.652 546.375 712.652 542.509C712.652 538.643 709.518 535.509 705.652 535.509C701.786 535.509 698.652 538.643 698.652 542.509C698.652 546.375 701.786 549.509 705.652 549.509Z" fill="#A2A2A2"/>
<path fill-rule="evenodd" clip-rule="evenodd" d="M705.652 545.509C707.309 545.509 708.652 544.166 708.652 542.509C708.652 540.852 707.309 539.509 705.652 539.509C703.995 539.509 702.652 540.852 702.652 542.509C702.652 544.166 703.995 545.509 705.652 545.509Z" fill="#FFC906"/>
</g>
<g clip-path="url(#clip35)">
<rect x="504.698" y="476.009" width="225" height="39" rx="4" fill="white"/>
<g clip-path="url(#clip36)">
<rect x="513.698" y="487.709" width="167" height="5.85" rx="2.925" fill="#A2A2A2"/>
<rect x="513.698" y="497.459" width="112.096" height="5.85" rx="2.925" fill="#A2A2A2"/>
</g>
<path fill-rule="evenodd" clip-rule="evenodd" d="M705.652 502.509C709.518 502.509 712.652 499.375 712.652 495.509C712.652 491.643 709.518 488.509 705.652 488.509C701.786 488.509 698.652 491.643 698.652 495.509C698.652 499.375 701.786 502.509 705.652 502.509Z" fill="#A2A2A2"/>
<path fill-rule="evenodd" clip-rule="evenodd" d="M705.652 498.509C707.309 498.509 708.652 497.166 708.652 495.509C708.652 493.852 707.309 492.509 705.652 492.509C703.995 492.509 702.652 493.852 702.652 495.509C702.652 497.166 703.995 498.509 705.652 498.509Z" fill="#FFC906"/>
</g>
</g>
</g>
<path fill-rule="evenodd" clip-rule="evenodd" d="M906.684 453.385C902.739 450.71 897.494 450.009 892.774 450.009C874.338 450.009 857.009 456.849 842.039 467.041C833.837 472.625 826.498 479.737 820.02 487.141C816.281 491.416 812.946 496.04 810.586 501.182C808.993 504.653 807.899 508.27 807.158 512C806.255 516.546 805.538 521.184 805.213 525.806C805.085 527.626 804.028 537.283 807.054 537.447C807.036 537.685 807.032 537.912 807.051 538.115C800.48 548.389 796.421 560.429 792.656 571.844C789.381 581.778 786.463 591.796 784.568 602.072C782.074 615.602 780.435 629.335 779.656 643.059C779.489 646.008 779.374 648.959 779.275 651.912C779.191 654.431 779.106 656.951 779.024 659.47C778.931 662.293 778.434 665.543 778.883 668.349C779.274 670.793 781.389 670.424 781.483 667.991C781.596 665.054 781.577 662.111 781.706 659.172C781.877 655.271 782.053 651.37 782.244 647.47C783.573 620.378 788.558 593.684 797.759 568.093C801.483 557.737 805.75 547.934 811.233 538.354C816.055 529.931 821.854 521.776 827.782 514.182C833.544 506.802 839.534 499.592 846.594 493.339C852.323 488.265 858.624 483.844 865.102 479.731C873.33 474.507 881.541 469.41 890.453 465.4C895.086 463.316 899.806 461.45 904.475 459.45C905.315 459.09 906.216 458.741 907.023 458.324C909.719 456.934 908.831 454.841 906.684 453.385Z" fill="#CC1E4A"/>
<path fill-rule="evenodd" clip-rule="evenodd" d="M832.516 548.009C839.993 548.009 846.647 548.981 853.536 551.952C859.483 554.517 864.903 557.912 870.165 561.608C877.567 566.807 883.397 572.857 887.477 580.874C889.915 585.663 891.704 592.44 890.067 597.664C888.138 603.816 882.842 608.948 875.868 607.864C871.555 607.194 867.601 604.339 864.323 601.652C860.402 598.437 857.263 594.572 854.671 590.279C850.443 583.276 847.958 575.36 844.366 568.043C842.662 564.57 841.015 561.072 838.974 557.771C837.963 556.137 836.887 554.518 835.354 553.303C834.534 552.654 831.076 551.529 832.398 550.07C813.008 550.324 795.83 565.216 792.108 583.65C791.761 585.368 791.49 587.1 791.204 588.829C791.023 589.92 791.096 593.946 790.12 594.643C787.968 596.181 788.873 591.508 788.965 590.835C789.204 589.096 789.458 587.359 789.726 585.625C791.179 576.19 795.379 567.42 802.383 560.692C810.393 552.999 821.199 548.009 832.516 548.009Z" fill="#CC1E4A"/>
<path fill-rule="evenodd" clip-rule="evenodd" d="M293.636 524.745C312.302 556.061 334.043 586.383 347.099 620.622C346.573 616.586 346.015 612.555 345.39 608.529C342.078 587.188 337.96 566.003 333.634 544.844C331.431 534.071 329.1 523.337 326.71 512.603C325.425 506.839 324.155 501.07 322.843 495.311C322.525 493.915 322.252 491.478 321.855 489.009C334.543 530.646 346.779 572.314 355.729 614.951C356.903 620.547 357.903 626.133 358.722 631.709C359.002 630.437 359.278 629.165 359.579 627.896C363.201 612.689 368.633 597.603 375.101 583.384C378.193 576.584 381.744 569.933 385.926 563.735C388.534 559.872 394.684 555.28 397.062 551.324C384.053 575.185 379.355 605.041 371.843 630.982C370.01 637.313 368.165 643.633 366.357 649.965C377.685 627.246 395.261 608.581 419.698 600.492C390.118 620.036 372.376 654.263 360.42 689.269C360.381 689.684 360.334 690.099 360.293 690.515C363.812 683.838 368.243 677.799 374.249 673.569C387.105 664.514 401.365 667.151 413.835 674.919C404.048 668.698 386.361 674.363 378.126 680.686C372.231 685.212 367.193 691.284 362.818 697.209C361.77 698.629 360.339 700.286 358.828 702.054C356.71 715.804 353.258 729.461 348.37 743.009C349.177 739.12 348.594 732.901 348.818 730.002C348.842 729.689 348.862 729.375 348.886 729.062C348.143 732.028 347.425 734.961 346.734 737.846C348.108 732.34 348.854 726.592 349.437 720.785C349.587 718.29 349.734 715.794 349.888 713.299C349.839 708.562 349.644 703.808 349.314 699.045C348.145 694.417 346.835 690.051 345.754 686.42C341.857 673.319 336.142 660.769 329.109 649.06C322.692 638.375 315.01 628.697 306.143 619.944C301.362 615.226 296.359 610.734 291.427 606.179C289.643 604.532 286.455 600.483 283.698 598.372C303.778 609.443 324.447 621.42 339.096 639.257C337.378 632.662 335.513 626.16 333.54 619.789C323.529 587.464 310.889 553.962 293.636 524.745Z" fill="#F75469"/>
<path fill-rule="evenodd" clip-rule="evenodd" d="M313.698 702.009C313.698 737.908 316.541 767.009 354.698 767.009C392.855 767.009 395.698 737.908 395.698 702.009" fill="#2B77B5"/>
<rect x="738.698" y="240.009" width="6" height="25" rx="3" fill="#A2A2A2"/>
<rect x="752.698" y="224.009" width="6" height="41" rx="3" fill="#A2A2A2"/>
<rect x="766.698" y="216.009" width="6" height="49" rx="3" fill="#A2A2A2"/>
<rect x="780.698" y="224.009" width="6" height="41" rx="3" fill="#A2A2A2"/>
<rect x="794.698" y="208.009" width="6" height="57" rx="3" fill="#2B77B5"/>
<path fill-rule="evenodd" clip-rule="evenodd" d="M246.698 514.265C246.698 503.126 255.7 494.009 266.698 494.009V514.265L253.03 529.009C249.142 525.404 246.698 520.117 246.698 514.265Z" fill="#FFC906"/>
<path fill-rule="evenodd" clip-rule="evenodd" d="M266.169 514.009H286.366C286.366 519.23 284.236 524.122 280.869 527.677C277.166 531.565 271.893 534.009 266.169 534.009C260.896 534.009 256.07 531.9 252.366 528.566L266.169 514.009Z" fill="#F75469"/>
<path fill-rule="evenodd" clip-rule="evenodd" d="M286.698 514.009C286.698 503.011 277.696 494.009 266.698 494.009V514.009H286.698ZM256.698 494.009L264.698 512.009L246.698 504.009C248.478 499.343 252.475 495.789 256.698 494.009Z" fill="#2B77B5"/>
<path fill-rule="evenodd" clip-rule="evenodd" d="M897.465 523.188C895.543 525.228 892.821 526.509 889.793 526.509C883.976 526.509 879.26 521.808 879.26 516.009C879.26 510.21 883.976 505.509 889.793 505.509V486.009C873.244 486.009 859.698 499.512 859.698 516.009C859.698 532.506 873.244 546.009 889.793 546.009C898.486 546.009 906.343 542.343 911.698 536.511L897.465 523.188Z" fill="#FFC906"/>
<path fill-rule="evenodd" clip-rule="evenodd" d="M889.698 486.009V505.509C895.497 505.509 900.198 510.21 900.198 516.009H919.698C919.698 499.512 906.195 486.009 889.698 486.009Z" fill="#F75469"/>
<path fill-rule="evenodd" clip-rule="evenodd" d="M899.795 516.009C899.795 519.416 898.191 522.444 895.698 524.4L907.96 540.009C915.098 534.421 919.698 525.758 919.698 516.009H899.795Z" fill="#2B77B5"/>
<path fill-rule="evenodd" clip-rule="evenodd" d="M706.749 247.513C705.271 249.077 703.177 250.059 700.848 250.059C696.373 250.059 692.746 246.455 692.746 242.009C692.746 237.563 696.373 233.959 700.848 233.959V219.009C688.118 219.009 677.698 229.361 677.698 242.009C677.698 254.657 688.118 265.009 700.848 265.009C707.535 265.009 713.578 262.198 717.698 257.727L706.749 247.513Z" fill="#FFC906"/>
<path fill-rule="evenodd" clip-rule="evenodd" d="M700.698 219.009V233.959C705.144 233.959 708.748 237.563 708.748 242.009H723.698C723.698 229.361 713.346 219.009 700.698 219.009Z" fill="#F75469"/>
<path fill-rule="evenodd" clip-rule="evenodd" d="M708.771 242.009C708.771 244.564 707.567 246.836 705.698 248.302L714.894 260.009C720.248 255.818 723.698 249.321 723.698 242.009H708.771Z" fill="#2B77B5"/>
<path fill-rule="evenodd" clip-rule="evenodd" d="M342.705 264.995C342.701 265.005 342.697 265.015 342.691 265.027C342.697 265.017 342.705 264.977 342.705 264.995Z" fill="#2B77B5"/>
<path fill-rule="evenodd" clip-rule="evenodd" d="M342.696 265.011C342.696 265.013 342.694 265.017 342.694 265.021C342.694 265.011 342.712 264.981 342.696 265.011Z" fill="#2B77B5"/>
<path fill-rule="evenodd" clip-rule="evenodd" d="M342.765 264.841C342.751 264.881 342.733 264.919 342.717 264.959C342.725 264.939 342.733 264.923 342.741 264.903C342.533 265.423 342.665 265.085 342.765 264.841Z" fill="#2B77B5"/>
<path fill-rule="evenodd" clip-rule="evenodd" d="M342.72 264.962C342.712 264.98 342.704 265 342.696 265.018C342.638 265.13 342.72 264.962 342.72 264.962Z" fill="#2B77B5"/>
<path fill-rule="evenodd" clip-rule="evenodd" d="M342.697 265.011C342.697 265.009 342.697 265.009 342.699 265.007C342.697 265.009 342.697 265.009 342.697 265.011Z" fill="#2B77B5"/>
<path fill-rule="evenodd" clip-rule="evenodd" d="M342.688 265.025C342.676 265.049 342.744 264.933 342.688 265.025V265.025Z" fill="#2B77B5"/>
<path fill-rule="evenodd" clip-rule="evenodd" d="M342.696 265.011L342.7 265.007C342.698 265.009 342.698 265.011 342.696 265.011Z" fill="#2B77B5"/>
<rect x="294.698" y="213.009" width="95" height="63" rx="4" fill="#FFC906"/>
<path fill-rule="evenodd" clip-rule="evenodd" d="M330.698 231.009L302.698 276.009H358.698L330.698 231.009Z" fill="#F75469"/>
<path fill-rule="evenodd" clip-rule="evenodd" d="M358.198 243.009L333.698 276.009H382.698L358.198 243.009Z" fill="#2B77B5"/>
<path fill-rule="evenodd" clip-rule="evenodd" d="M368.698 243.009C373.669 243.009 377.698 238.98 377.698 234.009C377.698 229.039 373.669 225.009 368.698 225.009C363.727 225.009 359.698 229.039 359.698 234.009C359.698 238.98 363.727 243.009 368.698 243.009Z" fill="white"/>
<path fill-rule="evenodd" clip-rule="evenodd" d="M819.691 691.995C819.695 692.005 819.699 692.015 819.705 692.027C819.699 692.017 819.691 691.977 819.691 691.995Z" fill="#2B77B5"/>
<path fill-rule="evenodd" clip-rule="evenodd" d="M819.701 692.011C819.701 692.013 819.703 692.017 819.703 692.021C819.703 692.011 819.685 691.981 819.701 692.011Z" fill="#2B77B5"/>
<path fill-rule="evenodd" clip-rule="evenodd" d="M819.631 691.841C819.645 691.881 819.663 691.919 819.679 691.959C819.671 691.939 819.663 691.923 819.655 691.903C819.863 692.423 819.731 692.085 819.631 691.841Z" fill="#2B77B5"/>
<path fill-rule="evenodd" clip-rule="evenodd" d="M819.676 691.962C819.684 691.98 819.692 692 819.7 692.018C819.758 692.13 819.676 691.962 819.676 691.962Z" fill="#2B77B5"/>
<path fill-rule="evenodd" clip-rule="evenodd" d="M819.699 692.011C819.699 692.009 819.699 692.009 819.697 692.007C819.699 692.009 819.699 692.009 819.699 692.011Z" fill="#2B77B5"/>
<path fill-rule="evenodd" clip-rule="evenodd" d="M819.709 692.025C819.721 692.049 819.653 691.933 819.709 692.025V692.025Z" fill="#2B77B5"/>
<path fill-rule="evenodd" clip-rule="evenodd" d="M819.7 692.011L819.696 692.007C819.698 692.009 819.698 692.011 819.7 692.011Z" fill="#2B77B5"/>
<rect width="142" height="94" rx="4" transform="matrix(-1 0 0 1 890.698 615.009)" fill="#FFC906"/>
<path fill-rule="evenodd" clip-rule="evenodd" d="M837.972 642.009L879.027 709.009H796.917L837.972 642.009Z" fill="#F75469"/>
<path fill-rule="evenodd" clip-rule="evenodd" d="M795.643 659.956L831.938 709.009H759.348L795.643 659.956Z" fill="#2B77B5"/>
<path fill-rule="evenodd" clip-rule="evenodd" d="M780.198 660.009C772.742 660.009 766.698 653.965 766.698 646.509C766.698 639.053 772.742 633.009 780.198 633.009C787.654 633.009 793.698 639.053 793.698 646.509C793.698 653.965 787.654 660.009 780.198 660.009Z" fill="white"/>
<path fill-rule="evenodd" clip-rule="evenodd" d="M784.763 454.253C778.287 458.157 771.925 460.042 768.938 459.273C761.449 457.342 760.76 429.944 766.555 419.143C772.35 408.342 802.14 403.634 803.641 425.035C804.163 432.462 801.044 439.09 796.436 444.499L804.698 483.009H780.698L784.763 454.253Z" fill="#B28B67"/>
<path fill-rule="evenodd" clip-rule="evenodd" d="M783.563 427.398C781.487 424.307 779.494 421.949 776.902 420.58C766.351 420.747 765.115 418.855 765.115 412.48C766.819 411.261 772.832 409.207 779.566 408.63C783.002 407.647 787.071 407.831 790.991 409.471C795.83 410.844 799.928 413.801 801.738 419.337C808.286 430.638 803.316 442.402 796.618 446.42C794.835 444.308 793.279 442.261 791.891 440.301C793.006 439.212 793.698 437.691 793.698 436.009C793.698 432.695 791.012 430.009 787.698 430.009C787.455 430.009 787.215 430.024 786.979 430.052C786.829 434.195 786.216 448.212 784.604 453.081C782.704 458.821 771.615 460.23 767.747 460.23C764.407 460.23 764.521 457.067 764.602 454.8C764.614 454.473 764.625 454.165 764.625 453.888C764.625 453.309 765.378 453.311 766.229 453.312C767.334 453.315 768.605 453.317 768.605 452.049C768.605 450.667 766.695 449.607 764.985 448.658C763.919 448.066 762.931 447.518 762.533 446.962C761.28 445.207 760.858 442.84 762.749 442.84C763.783 442.84 765.201 443.436 766.907 444.153C769.483 445.236 772.716 446.594 776.273 446.594C782.148 446.594 783.546 427.635 783.563 427.398Z" fill="#191847"/>
<path fill-rule="evenodd" clip-rule="evenodd" d="M715.351 490.699L750.06 509.709L737.243 523.467L712.022 500.374C698.735 496.713 692.659 494.034 693.794 492.338C694.75 490.909 696.293 490.958 697.714 491.004C698.82 491.04 699.853 491.073 700.478 490.403C701.904 488.872 699.183 483.519 696.384 478.551C693.584 473.582 696.578 474.014 698.289 474.729C703.891 478.521 709.578 483.845 715.351 490.699ZM680.452 517.373L695.698 525.749L694.83 541.049C694.83 541.049 684.955 533.922 676.46 531.553C665.628 528.533 661.245 526.227 655.952 519.482C653.12 515.874 650.716 508.619 653.412 506.257C654.446 505.35 658.299 507.491 662.23 509.676C665.226 511.341 668.268 513.031 670.142 513.417C672.665 513.936 672.369 510.666 672.133 508.054C671.964 506.179 671.825 504.642 672.78 505.086C677.243 505.163 680.452 517.373 680.452 517.373Z" fill="#997659"/>
<path fill-rule="evenodd" clip-rule="evenodd" d="M766.964 505.474C754.806 505.346 738.594 502.778 721.296 491.798L714.502 506.948C726.434 518.789 743.212 528.519 757.882 528.107C769.443 527.782 775.351 513.798 766.964 505.474Z" fill="#2E6B85"/>
<path fill-rule="evenodd" clip-rule="evenodd" d="M799.754 617.768C811.312 616.261 821.932 614.876 828.226 616.115C835.287 593.182 829.424 578.743 824.011 565.414C822.667 562.106 821.352 558.867 820.269 555.583C833.376 535.261 833.273 505.104 818.797 475.509H794.684C794.684 475.509 794.692 475.676 794.705 475.994C794.37 475.676 794.099 475.509 793.901 475.509H766.155C764.914 491.446 759.62 508.702 754.291 526.069C753.135 529.837 751.977 533.611 750.858 537.378C731.529 534.034 711.431 526.882 711.431 526.882C711.431 526.882 700.127 550.268 700.98 560.226C715.998 568.071 729.779 573.411 742.284 576.604C741.171 588.88 742.257 600.552 747.225 611.115C753.207 623.836 778.123 620.588 799.754 617.768Z" fill="#0B6489"/>
<path fill-rule="evenodd" clip-rule="evenodd" d="M812.698 616.009L764.617 743.236L730.915 837.009H711.698L758.025 616.009L812.698 616.009Z" fill="#013F59"/>
<path fill-rule="evenodd" clip-rule="evenodd" d="M824.582 616.009C825.104 659.663 824.726 718.437 825.944 721.158C827.162 723.879 901.698 783.166 901.698 783.166L891.793 800.009C891.793 800.009 803.302 742.943 798.777 735.34C794.253 727.737 771.524 657.772 759.698 616.009H824.582Z" fill="#013F59"/>
<path fill-rule="evenodd" clip-rule="evenodd" d="M919.124 794.5L902.394 781.768L888.896 797.855C887.338 816.046 876.85 838.658 876.85 838.658L879.914 841.229L904.34 812.119L911.164 800.875L912.696 802.161L919.124 794.5Z" fill="#191847"/>
<path fill-rule="evenodd" clip-rule="evenodd" d="M732.698 855.009L731.698 834.009L710.698 834.009C695.762 844.509 671.698 851.009 671.698 851.009V855.009H709.698L722.698 853.009V855.009H732.698Z" fill="#191847"/>
<rect x="403.64" y="600.333" width="37" height="20" transform="rotate(-21.107 403.64 600.333)" fill="#F2F2F2"/>
<path fill-rule="evenodd" clip-rule="evenodd" d="M506.003 589.241L468.099 577.863L477.776 561.741L507.247 579.085C521.004 579.905 527.504 581.261 526.747 583.156C526.109 584.753 524.59 585.025 523.191 585.276C522.101 585.471 521.083 585.653 520.612 586.439C519.535 588.233 523.31 592.903 527.081 597.181C530.852 601.459 527.834 601.658 526.011 601.315C519.743 598.77 513.074 594.746 506.003 589.241ZM505.534 475.4L468.418 489.132L479.087 504.615L507.413 485.458C521.091 483.779 527.494 482.017 526.619 480.174C525.882 478.62 524.349 478.443 522.937 478.281C521.837 478.154 520.81 478.036 520.29 477.282C519.103 475.559 522.578 470.662 526.073 466.156C529.569 461.649 526.545 461.64 524.747 462.096C518.65 465.029 512.246 469.464 505.534 475.4Z" fill="#B28B67"/>
<path fill-rule="evenodd" clip-rule="evenodd" d="M418.259 485.096C435.629 517.485 460.748 542.314 497.164 568.125L483.375 583.672C442.716 568.562 421.257 559.445 410.719 528.844C408.074 521.163 406.226 496.68 404.64 483.798L418.259 485.096Z" fill="#84132F"/>
<path fill-rule="evenodd" clip-rule="evenodd" d="M369.698 593.009H446.698C446.698 593.009 420.535 513.217 419.968 483.481C419.949 482.47 418.082 480.689 417.257 480.922C408.198 483.481 397.87 479.009 397.87 479.009C379.615 508.367 373.303 544.514 369.698 593.009Z" fill="#F2F2F2"/>
<path fill-rule="evenodd" clip-rule="evenodd" d="M417.184 523.8C429.21 575.386 428.656 617.615 402.105 617.615H361.049C354.528 573.793 371.666 513.033 387.554 482.386C388.161 481.215 389.452 479.009 392.495 479.009H404.425C404.43 479.025 404.435 479.041 404.441 479.056C408.03 479.086 411.984 479.217 416.265 479.359C438.306 480.091 469.039 481.111 503.621 470.009L507.698 490.383C476.485 510.457 444.879 526.008 417.184 523.8Z" fill="#CC1E4A"/>
<path d="M442.5 588L457.655 606.75H427.345L442.5 588Z" fill="#F2F2F2"/>
<path fill-rule="evenodd" clip-rule="evenodd" d="M355.106 714.097C355.106 714.097 391.09 724.162 417.198 724.162C443.305 724.162 465.698 708.662 465.698 708.662C465.698 708.662 430.484 698.332 407.698 698.332C384.912 698.332 355.106 714.097 355.106 714.097Z" fill="#360914"/>
<path fill-rule="evenodd" clip-rule="evenodd" d="M437.965 733.833C437.734 733.486 437.538 733.107 437.383 732.698C434.177 724.218 382.815 632.735 377.698 616.009H435.524C439.415 628.726 456.925 708.529 459.389 724.451C467.165 749.566 483.173 830.904 485.217 836.539C487.367 842.467 475.27 848.642 472.047 841.355C466.918 829.759 454.697 797.674 449.255 778.083C444.154 759.717 440 743.194 437.965 733.833Z" fill="#997659"/>
<path fill-rule="evenodd" clip-rule="evenodd" d="M390.655 745.003C367.173 750.938 281.282 761.667 275.388 763.35C269.325 765.081 264.008 752.583 271.503 749.876C283.428 745.568 316.287 735.615 336.21 731.553C352.235 728.286 366.857 725.62 376.674 724.059C375.843 696.482 372.041 630.303 374.533 616.009H425.698C423.308 629.716 403.108 729.727 399.354 739.738C398.162 743.312 394.607 744.891 390.655 745.003Z" fill="#B28B67"/>
<path fill-rule="evenodd" clip-rule="evenodd" d="M273.629 749.083C273.907 747.946 273.216 746.775 272.063 746.573C269.959 746.204 266.825 745.765 265.154 746.059C262.49 746.529 257.536 748.318 257.536 748.318C258.081 751.408 267.33 803.863 267.33 803.863C267.33 803.863 274.869 804.766 274.618 800C274.366 795.235 274.282 792.068 274.282 792.068L281.239 764.222C281.375 763.676 281.034 763.124 280.483 763.003L276.165 762.053C276.165 762.053 273.389 758.09 272.913 755.39C272.623 753.747 273.163 750.989 273.629 749.083Z" fill="#B7A1A1"/>
<path fill-rule="evenodd" clip-rule="evenodd" d="M471.148 839.293C470.076 838.822 468.802 839.299 468.403 840.4C467.675 842.408 466.698 845.418 466.698 847.115C466.698 849.82 467.599 855.009 467.599 855.009C470.737 855.009 524.001 855.009 524.001 855.009C524.001 855.009 526.2 847.741 521.463 847.161C516.726 846.582 513.593 846.115 513.593 846.115L487.378 834.428C486.863 834.199 486.261 834.439 486.046 834.96L484.361 839.048C484.361 839.048 479.976 841.094 477.235 841.094C475.566 841.094 472.944 840.084 471.148 839.293Z" fill="#B7A1A1"/>
<path fill-rule="evenodd" clip-rule="evenodd" d="M374.698 616.009C374.698 616.009 408.518 606.333 438.698 616.009C445.698 647.947 462.707 660.623 465.698 709.588C431.698 726.482 389.698 697.54 354.698 714.014C344.698 690.97 358.698 635.474 374.698 616.009Z" fill="#CC1E4A"/>
<path fill-rule="evenodd" clip-rule="evenodd" d="M413.633 450.253C420.109 454.157 426.472 456.042 429.458 455.273C436.948 453.342 437.636 425.944 431.841 415.143C426.047 404.342 396.256 399.634 394.755 421.035C394.234 428.462 397.352 435.09 401.96 440.499L393.698 479.009H417.698L413.633 450.253Z" fill="#B28B67"/>
<path fill-rule="evenodd" clip-rule="evenodd" d="M434.698 405.009C434.698 410.35 430.511 414.713 425.24 414.995C422.224 415.925 418.35 416.608 414.054 416.896C414.471 418.465 414.698 420.247 414.698 422.261C414.698 424.039 414.502 425.925 414.14 427.839C413.209 426.732 411.963 426.009 410.698 426.009C407.16 426.009 404.698 428.919 404.698 432.009C404.698 435.931 406.962 438.767 410.267 438.994C407.291 444.707 403.175 449.009 399.062 449.009C391.252 449.009 385.698 438.566 385.698 427.339C385.698 426.944 385.706 426.552 385.721 426.163C383.077 427.978 380.627 430.356 378.159 432.752L378.159 432.752C372.916 437.842 367.593 443.009 360.159 443.009C345.285 443.009 339.378 413.009 360.159 413.009C374.291 413.009 381.243 415.07 387.233 418.117C388.415 414.785 390.217 411.985 392.42 410.029C392.95 409.432 393.763 408.861 394.811 408.332C395.452 407.982 396.115 407.696 396.797 407.481C400.41 406.153 405.643 405.217 411.489 405.013C412.58 404.975 413.652 404.963 414.698 404.977C414.715 399.469 419.186 395.009 424.698 395.009C430.221 395.009 434.698 399.486 434.698 405.009Z" fill="#191847"/>
<rect x="518.698" y="474.009" width="105" height="113" rx="1" fill="#EDF0F5"/>
<path d="M571.312 508.009H547.698V519.575C547.698 519.575 564.806 518.852 569.144 519.575C573.481 520.298 573.722 522.949 573.722 524.877C573.722 526.804 572.06 529.708 569.144 529.696H561.192V538.852H562.879L572.517 556.925H587.698L576.855 537.648C584.612 534.475 588.421 530.419 587.216 520.78C586.011 511.142 573.722 508.009 571.312 508.009Z" fill="#0B6489" stroke="black"/>
<rect x="557.698" y="473.009" width="14" height="27" fill="#997659"/>
<rect x="557.698" y="561.009" width="14" height="27" fill="#997659"/>
<defs>
<clipPath id="clip0">
<rect width="662" height="234" fill="white" transform="translate(257.698 514.009)"/>
</clipPath>
<clipPath id="clip1">
<rect width="159" height="302" fill="white" transform="translate(356.698 232.009)"/>
</clipPath>
<clipPath id="clip2">
<rect width="131" height="204" fill="white" transform="translate(370.698 260.009)"/>
</clipPath>
<clipPath id="clip3">
<rect width="131" height="54" fill="white" transform="translate(370.698 260.009)"/>
</clipPath>
<clipPath id="clip4">
<rect width="73" height="21.6" fill="white" transform="translate(409.698 276.209)"/>
</clipPath>
<clipPath id="clip5">
<rect width="131" height="42" fill="white" transform="translate(370.698 322.009)"/>
</clipPath>
<clipPath id="clip6">
<rect width="73" height="16.8" fill="white" transform="translate(409.698 334.609)"/>
</clipPath>
<clipPath id="clip7">
<rect width="131" height="42" fill="white" transform="translate(370.698 372.009)"/>
</clipPath>
<clipPath id="clip8">
<rect width="73" height="16.8" fill="white" transform="translate(409.698 384.609)"/>
</clipPath>
<clipPath id="clip9">
<rect width="131" height="42" fill="white" transform="translate(370.698 422.009)"/>
</clipPath>
<clipPath id="clip10">
<rect width="73" height="16.8" fill="white" transform="translate(409.698 434.609)"/>
</clipPath>
<clipPath id="clip11">
<rect width="207" height="302" fill="white" transform="translate(374.698 258.009)"/>
</clipPath>
<clipPath id="clip12">
<rect width="131" height="204" fill="white" transform="translate(436.698 286.009)"/>
</clipPath>
<clipPath id="clip13">
<rect width="131" height="54" fill="white" transform="translate(436.698 286.009)"/>
</clipPath>
<clipPath id="clip14">
<rect width="73" height="21.6" fill="white" transform="translate(445.698 302.209)"/>
</clipPath>
<clipPath id="clip15">
<rect width="131" height="42" fill="white" transform="translate(436.698 348.009)"/>
</clipPath>
<clipPath id="clip16">
<rect width="73" height="16.8" fill="white" transform="translate(475.698 360.609)"/>
</clipPath>
<clipPath id="clip17">
<rect width="131" height="42" fill="white" transform="translate(436.698 398.009)"/>
</clipPath>
<clipPath id="clip18">
<rect width="73" height="16.8" fill="white" transform="translate(445.698 410.609)"/>
</clipPath>
<clipPath id="clip19">
<rect width="131" height="42" fill="white" transform="translate(436.698 448.009)"/>
</clipPath>
<clipPath id="clip20">
<rect width="73" height="16.8" fill="white" transform="translate(475.698 460.609)"/>
</clipPath>
<clipPath id="clip21">
<rect width="335" height="346" fill="white" transform="translate(488.698 283.009)"/>
</clipPath>
<clipPath id="clip22">
<rect width="70" height="194" fill="white" transform="translate(737.698 415.009)"/>
</clipPath>
<clipPath id="clip23">
<rect width="34" height="158" fill="white" transform="translate(755.698 433.009)"/>
</clipPath>
<clipPath id="clip24">
<rect width="225" height="282" fill="white" transform="translate(504.698 327.009)"/>
</clipPath>
<clipPath id="clip25">
<rect width="225" height="47" fill="white" transform="translate(504.698 327.009)"/>
</clipPath>
<clipPath id="clip26">
<rect width="167" height="18.8" fill="white" transform="translate(513.698 341.109)"/>
</clipPath>
<clipPath id="clip27">
<rect width="225" height="39" fill="white" transform="translate(504.698 382.009)"/>
</clipPath>
<clipPath id="clip28">
<rect width="167" height="15.6" fill="white" transform="translate(513.698 393.709)"/>
</clipPath>
<clipPath id="clip29">
<rect width="225" height="39" fill="white" transform="translate(504.698 429.009)"/>
</clipPath>
<clipPath id="clip30">
<rect width="167" height="15.6" fill="white" transform="translate(513.698 440.709)"/>
</clipPath>
<clipPath id="clip31">
<rect width="225" height="39" fill="white" transform="translate(504.698 570.009)"/>
</clipPath>
<clipPath id="clip32">
<rect width="167" height="15.6" fill="white" transform="translate(513.698 581.709)"/>
</clipPath>
<clipPath id="clip33">
<rect width="225" height="39" fill="white" transform="translate(504.698 523.009)"/>
</clipPath>
<clipPath id="clip34">
<rect width="167" height="15.6" fill="white" transform="translate(513.698 534.709)"/>
</clipPath>
<clipPath id="clip35">
<rect width="225" height="39" fill="white" transform="translate(504.698 476.009)"/>
</clipPath>
<clipPath id="clip36">
<rect width="167" height="15.6" fill="white" transform="translate(513.698 487.709)"/>
</clipPath>
</defs>
</svg>
