<svg  viewBox="0 0 100 100" fill="none" xmlns="http://www.w3.org/2000/svg">
<!-- width="100" height="100" -->
<path d="M81.2501 33.3333H70.8334V25C70.8334 20.4166 67.0834 16.6666 62.5001 16.6666H12.5001C7.91675 16.6666 4.16675 20.4166 4.16675 25V62.5C4.16675 67.0833 7.91675 70.8333 12.5001 70.8333C12.5001 77.75 18.0834 83.3333 25.0001 83.3333C31.9167 83.3333 37.5001 77.75 37.5001 70.8333H62.5001C62.5001 77.75 68.0834 83.3333 75.0001 83.3333C81.9167 83.3333 87.5001 77.75 87.5001 70.8333H91.6667C93.9584 70.8333 95.8334 68.9583 95.8334 66.6666V52.7916C95.8334 51 95.2501 49.25 94.1667 47.7916L84.5834 35C83.7917 33.9583 82.5417 33.3333 81.2501 33.3333ZM25.0001 75C22.7084 75 20.8334 73.125 20.8334 70.8333C20.8334 68.5416 22.7084 66.6666 25.0001 66.6666C27.2917 66.6666 29.1667 68.5416 29.1667 70.8333C29.1667 73.125 27.2917 75 25.0001 75ZM81.2501 39.5833L89.4167 50H70.8334V39.5833H81.2501ZM75.0001 75C72.7084 75 70.8334 73.125 70.8334 70.8333C70.8334 68.5416 72.7084 66.6666 75.0001 66.6666C77.2917 66.6666 79.1667 68.5416 79.1667 70.8333C79.1667 73.125 77.2917 75 75.0001 75Z" fill="#000000"/>
</svg>
