<svg  viewBox="0 0 100 100" fill="none" xmlns="http://www.w3.org/2000/svg">
<!--                                                  -->
<path d="M61.0417 20.75L40.2083 13.4583C38.4583 12.8333 36.5417 12.8333 34.7917 13.4167L18.1667 19C14.7917 20.1667 12.5 23.3333 12.5 26.9167V76.2917C12.5 82.1667 18.375 86.1667 23.8333 84.0417L36.0417 79.2917C36.9583 78.9167 38 78.9167 38.9167 79.25L59.75 86.5417C61.5 87.1667 63.4167 87.1667 65.1667 86.5834L81.7917 81C85.1667 79.875 87.4583 76.6667 87.4583 73.0834V23.7083C87.4583 17.8333 81.5833 13.8333 76.125 15.9583L63.9167 20.7083C63 21.0417 62 21.0833 61.0417 20.75ZM62.5 78.7084L37.5 69.9167V21.2917L62.5 30.0833V78.7084Z" fill="#000000"/>
</svg>
