<svg viewBox="0 0 250 250" fill="none" xmlns="http://www.w3.org/2000/svg">
 <!-- width="250" height="250"  -->
<path fill-rule="evenodd" clip-rule="evenodd" d="M46.754 182.979C61.844 199.405 120.198 189.97 158.621 189.97C175.197 189.97 230.824 198.277 207.853 141.223C132.536 -45.851 -1.05878 130.933 46.754 182.979Z" fill="#EDF0F5"/>
<path fill-rule="evenodd" clip-rule="evenodd" d="M25.4486 52.3423C25.4649 52.4734 25.3939 52.6111 25.2777 52.6739C25.1851 52.5813 25.0926 52.4887 25 52.3961C25.1388 52.3354 25.2961 52.3181 25.4448 52.3471L25.4486 52.3423Z" fill="#00160A"/>
<path fill-rule="evenodd" clip-rule="evenodd" d="M114.466 179.423C114.791 179.525 115.111 179.651 115.394 179.84C115.925 180.196 116.287 180.748 116.633 181.285C116.882 181.67 117.134 182.062 117.258 182.503C117.393 182.981 117.369 183.491 117.279 183.979C116.998 185.5 116.06 186.887 114.753 187.713C113.447 188.539 111.791 188.792 110.297 188.394C110.006 188.316 109.714 188.21 109.49 188.009C109.302 187.84 109.175 187.614 109.059 187.39C108.451 186.21 108.041 184.899 108.088 183.573C108.134 182.246 108.68 180.904 109.713 180.07C111.009 179.024 112.876 178.924 114.466 179.423M112.644 187.321C113.457 187.197 114.172 186.667 114.639 185.991C115.106 185.314 115.345 184.503 115.461 183.69C115.526 183.225 115.532 182.692 115.204 182.357C115.008 182.156 114.727 182.066 114.458 181.986C113.448 181.683 112.295 181.426 111.39 181.968C110.731 182.362 110.364 183.093 110.031 183.785C109.641 184.595 109.737 185.617 110.272 186.34C110.806 187.064 111.755 187.456 112.644 187.321V187.321Z" fill="#00160A"/>
<path fill-rule="evenodd" clip-rule="evenodd" d="M151.58 142.929C151.594 142.757 151.615 142.572 151.729 142.442C151.84 142.315 152.016 142.269 152.18 142.231C156.425 141.242 160.809 140.856 165.161 141.086C165.716 141.115 166.429 141.303 166.465 141.857C166.676 145.032 166.886 148.207 167.096 151.383C167.107 151.543 167.112 151.721 167.009 151.845C166.925 151.946 166.79 151.985 166.663 152.019C162.137 153.199 157.365 153.431 152.745 152.697C152.626 152.678 152.501 152.656 152.409 152.579C152.297 152.485 152.258 152.333 152.226 152.191C151.545 149.16 151.326 146.025 151.58 142.929ZM152.581 148.197C152.664 149.396 152.915 150.583 153.325 151.713C153.734 151.772 154.139 151.857 154.546 151.926C158.057 152.52 161.648 151.922 165.158 151.325C165.408 151.282 165.681 151.226 165.834 151.025C165.991 150.821 165.971 150.535 165.942 150.279C165.821 149.185 165.7 148.091 165.579 146.996C165.57 146.908 165.557 146.814 165.498 146.748C165.425 146.668 165.306 146.655 165.199 146.648C162.704 146.484 160.202 146.67 157.709 146.856C156.331 146.959 154.953 147.062 153.575 147.165C153.251 147.189 152.883 147.237 152.697 147.503C152.559 147.699 152.564 147.958 152.581 148.197ZM152.619 143.62C152.401 144.32 152.362 145.074 152.507 145.792C152.533 145.921 152.569 146.057 152.667 146.145C152.812 146.275 153.034 146.254 153.227 146.226C155.574 145.882 157.948 145.711 160.32 145.715C160.655 145.715 160.758 145.265 160.754 144.93C160.749 144.44 160.743 143.949 160.738 143.459C160.735 143.175 160.721 142.862 160.526 142.656C160.293 142.407 159.903 142.415 159.563 142.441C158.777 142.501 157.991 142.561 157.205 142.621C156.828 142.65 155.831 142.905 155.373 142.935C154.575 143.062 153.777 143.19 152.979 143.317C152.893 143.331 152.804 143.346 152.738 143.402C152.674 143.457 152.644 143.54 152.619 143.62ZM163.145 145.754C163.769 145.762 164.393 145.699 165.003 145.568C165.149 145.537 165.301 145.497 165.405 145.391C165.557 145.234 165.555 144.989 165.544 144.771C165.512 144.139 165.48 143.507 165.447 142.874C165.436 142.649 165.411 142.395 165.234 142.254C165.079 142.13 164.86 142.137 164.662 142.15C163.968 142.198 163.275 142.245 162.581 142.292C162.471 142.3 162.356 142.309 162.264 142.37C162.096 142.481 162.071 142.713 162.066 142.914C162.051 143.585 162.078 144.256 162.148 144.923C162.168 145.116 162.196 145.319 162.316 145.472C162.502 145.71 162.843 145.75 163.145 145.754Z" fill="#FFB61D"/>
<path fill-rule="evenodd" clip-rule="evenodd" d="M162.443 129.053C163.37 128.652 164.508 128.786 165.316 129.393C166.125 129.999 166.572 131.054 166.446 132.056C167.014 131.749 167.735 131.447 168.265 131.815C168.864 132.232 168.727 133.129 168.637 133.853C168.48 135.117 168.684 136.425 169.218 137.581C169.439 138.059 169.629 138.784 169.139 138.977C169.056 139.009 168.966 139.017 168.877 139.024C163.134 139.487 157.391 139.95 151.648 140.413C151.49 140.425 151.314 140.432 151.195 140.328C151.073 140.222 151.058 140.042 151.051 139.881C150.996 138.53 150.941 137.179 150.886 135.828C150.871 135.466 150.864 135.075 151.069 134.776C151.408 134.28 152.117 134.282 152.71 134.187C153.302 134.092 153.992 133.592 153.764 133.037C153.51 132.418 154.376 131.966 155.038 131.865C155.699 131.764 156.577 131.37 156.376 130.732C156.157 130.034 157.117 129.601 157.842 129.505C158.353 129.437 158.888 129.372 159.373 129.547C159.858 129.722 160.268 130.222 160.158 130.726C160.033 131.303 160.736 131.841 161.29 131.637C161.844 131.433 162.069 130.675 161.788 130.156C161.559 129.732 162 129.245 162.443 129.053ZM165.409 137.955C165.194 137.557 165.192 137.083 165.19 136.631C165.181 134.506 165.051 132.382 164.8 130.272C164.787 130.165 164.767 130.046 164.68 129.984C164.605 129.93 164.504 129.936 164.411 129.945C163.963 129.987 163.431 130.086 163.254 130.5C163.178 130.677 163.187 130.877 163.197 131.069C163.311 133.198 163.425 135.328 163.539 137.457C163.549 137.656 163.576 137.883 163.74 137.994C163.83 138.055 163.943 138.066 164.051 138.072C164.506 138.097 164.965 138.057 165.409 137.955ZM157.684 134.681C157.628 135.036 157.55 135.388 157.529 135.747C157.494 136.346 157.621 136.941 157.746 137.528C157.827 137.905 158.313 138.09 158.669 137.945C159.026 137.8 159.241 137.419 159.3 137.039C159.36 136.659 159.29 136.272 159.23 135.892C158.992 134.399 158.889 132.885 158.922 131.373C158.931 130.991 158.558 130.645 158.177 130.683C157.796 130.721 157.498 131.133 157.582 131.506C157.814 132.546 157.849 133.629 157.684 134.681ZM161.461 132.642C161.237 132.348 160.724 132.505 160.549 132.83C160.375 133.155 160.428 133.549 160.472 133.915C160.585 134.872 160.595 135.841 160.504 136.8C160.477 137.083 160.447 137.392 160.603 137.629C160.843 137.994 161.37 137.991 161.805 137.947C161.941 137.933 162.098 137.907 162.166 137.788C162.214 137.705 162.203 137.603 162.19 137.508C161.989 136.02 161.789 134.532 161.588 133.044C161.569 132.903 161.548 132.755 161.461 132.642ZM166.436 133.281C166.267 133.511 166.232 133.811 166.217 134.096C166.167 135.073 166.296 136.049 166.425 137.018C166.476 137.4 166.651 137.891 167.036 137.865C167.425 137.839 167.527 137.318 167.518 136.927C167.494 135.893 167.47 134.859 167.446 133.825C167.44 133.553 167.411 133.238 167.185 133.086C166.949 132.927 166.605 133.051 166.436 133.281ZM154.664 133.037C154.664 133.037 154.835 134.387 154.895 135.074C154.97 135.938 155.065 136.799 155.181 137.658C155.198 137.783 155.22 137.918 155.312 138.004C155.472 138.153 156.087 138.054 156.201 137.867C156.314 137.681 156.308 137.448 156.298 137.23C156.267 136.541 156.235 135.852 156.204 135.162C156.171 134.423 155.995 132.83 155.995 132.83M152.432 137.924C152.481 138.079 152.539 138.241 152.664 138.344C152.908 138.546 153.304 138.421 153.496 138.169C153.688 137.918 153.732 137.587 153.768 137.272C153.813 136.886 153.857 136.485 153.732 136.117C153.607 135.749 153.261 135.426 152.874 135.46C152.518 135.491 152.242 135.816 152.159 136.164C152.076 136.512 152.146 136.876 152.233 137.223C152.292 137.459 152.358 137.693 152.432 137.924Z" fill="#E7EAEE"/>
<path fill-rule="evenodd" clip-rule="evenodd" d="M175.713 82.6538C175.25 83.3498 174.747 84.0549 174.029 84.4847C173.312 84.9144 172.321 84.9981 171.677 84.4654C170.965 83.8776 170.922 82.8179 170.978 81.8969C170.999 81.5423 171.028 81.1849 171.13 80.8445C171.306 80.2541 171.691 79.7502 172.092 79.283C172.58 78.7162 173.119 78.1695 173.795 77.8505C174.471 77.5316 175.311 77.4756 175.945 77.8724C176.703 78.3474 176.983 79.3579 176.84 80.241C176.696 81.1241 176.209 81.9092 175.713 82.6538M174.241 83.3902C174.826 82.7674 175.327 82.0666 175.728 81.3122C175.992 80.8158 176.216 80.2762 176.205 79.7141C176.195 79.152 175.898 78.5646 175.376 78.356C174.697 78.0843 173.95 78.5189 173.382 78.9806C172.977 79.3093 172.586 79.6699 172.326 80.122C172.162 80.4078 172.055 80.7223 171.95 81.0346C171.75 81.6252 171.547 82.2407 171.623 82.8596C171.7 83.4784 172.142 84.0997 172.763 84.1639C173.337 84.2232 173.846 83.8109 174.241 83.3902Z" fill="#FFB61D"/>
<path fill-rule="evenodd" clip-rule="evenodd" d="M56.2664 90.5208C56.9928 91.2566 57.5925 92.1173 58.0311 93.0536C58.4719 93.9946 58.0275 95.2039 57.1623 95.7796C56.2972 96.3553 55.1275 96.3477 54.1789 95.9235C53.2303 95.4992 52.4849 94.7074 51.9358 93.8252C51.5219 93.16 51.201 92.4145 51.1666 91.6319C51.1322 90.8492 51.4203 90.0255 52.0395 89.5456C52.6657 89.0601 53.5463 88.9908 54.3036 89.2237C55.061 89.4567 55.7097 89.957 56.2664 90.5208M53.4322 90.0734C52.8037 90.0086 52.2453 90.5855 52.1375 91.2081C52.0297 91.8307 52.267 92.4624 52.5741 93.0146C53.2401 94.212 54.4283 95.2756 55.7969 95.2094C56.5004 95.1754 57.2715 94.688 57.259 93.9838C57.2536 93.6793 57.1033 93.3983 56.9533 93.1333C56.5547 92.4291 56.1242 91.7322 55.5492 91.1629C54.9742 90.5936 54.2371 90.1562 53.4322 90.0734Z" fill="#FFB61D"/>
<path fill-rule="evenodd" clip-rule="evenodd" d="M111.191 183.151C111.696 182.768 112.323 182.519 112.956 182.56C113.588 182.601 114.214 182.964 114.478 183.54C114.762 184.158 114.585 184.926 114.142 185.442C113.7 185.958 113.032 186.243 112.359 186.337C111.899 186.401 111.351 186.343 111.099 185.953C110.978 185.765 110.95 185.533 110.926 185.311C110.882 184.911 110.838 184.511 110.794 184.112C110.776 183.943 110.758 183.767 110.812 183.605C110.876 183.416 111.032 183.272 111.191 183.151M113.187 184.301C113.261 184.244 113.338 184.183 113.369 184.096C113.472 183.818 113.07 183.633 112.774 183.64C112.344 183.65 111.792 183.939 111.924 184.349C112 184.586 112.292 184.696 112.537 184.652C112.782 184.609 112.99 184.452 113.187 184.301H113.187Z" fill="#00160A"/>
<path fill-rule="evenodd" clip-rule="evenodd" d="M182.663 55.3767C186.594 59.4465 189.698 64.313 191.729 69.5943C191.868 69.957 192.004 70.36 191.87 70.7251C190.846 73.5365 188.868 75.8804 186.929 78.1594L183.212 82.5283C182.029 83.9185 180.846 85.309 179.623 86.6642C173.397 93.5647 166.04 99.5986 157.52 103.311C157.198 103.451 156.853 103.591 156.507 103.535C156.161 103.479 155.836 103.143 155.927 102.804C156.98 98.8662 158.04 94.7493 157.195 90.7617C156.991 89.7998 156.764 88.5887 157.559 88.0099C163.994 83.324 168.627 76.626 173.067 70.019C174.184 68.3577 175.297 66.6918 176.285 64.951C178.039 61.8603 179.39 58.5411 180.293 55.1038C180.417 54.6322 181.012 54.4198 181.484 54.5434C181.956 54.667 182.324 55.0259 182.663 55.3767ZM179.912 60.4306C179.512 60.2654 179.144 60.7123 178.94 61.0937C178.722 61.5031 178.504 61.9131 178.285 62.3235L178.283 62.3283L178.281 62.3304L178.28 62.3326L178.28 62.3328L178.28 62.333L178.28 62.3332L178.279 62.334L178.279 62.3343C174.206 69.9853 170.07 77.7536 163.863 83.7798C163.277 84.3492 162.621 85.0371 162.729 85.8473C163.076 88.4445 161.689 91.1872 159.392 92.4481C158.35 93.0205 158.362 94.4976 158.515 95.6774C158.576 96.1497 158.754 96.7417 159.229 96.7817C160.621 96.899 161.957 97.5842 162.864 98.6463C163.15 98.9814 163.693 98.7719 164.066 98.5374C173.456 92.634 180.671 83.9141 187.716 75.3467C187.959 75.0511 188.218 74.6787 188.091 74.3176C187.025 71.2809 187.196 67.8297 188.557 64.9131C187.754 63.3154 186.797 61.7952 185.704 60.3803C183.884 61.1701 181.745 61.1887 179.912 60.4306ZM157.639 101.752C158.009 101.946 158.457 101.761 158.828 101.568C159.802 101.059 160.74 100.482 161.633 99.8423C161.869 99.6732 161.939 99.3354 161.856 99.0573C161.772 98.7792 161.564 98.555 161.332 98.3795C160.61 97.8315 159.601 97.6873 158.754 98.0113C158.598 98.0712 158.443 98.1493 158.335 98.2775C158.208 98.4275 158.162 98.6273 158.122 98.8192C157.917 99.7888 157.756 100.768 157.639 101.752ZM184.009 58.4086C183.371 57.161 182.387 56.0926 181.196 55.3543C180.782 55.7195 180.701 56.2744 180.619 56.8402C180.563 57.2284 180.506 57.6217 180.34 57.9623C180.285 58.0732 180.219 58.1793 180.153 58.2852C180.028 58.4867 179.902 58.6874 179.862 58.9189C179.8 59.2719 180.099 59.7148 180.438 59.598C180.714 59.503 181.002 59.564 181.293 59.6256C181.447 59.658 181.601 59.6906 181.755 59.7006C182.649 59.7583 183.391 59.0576 184.009 58.4086ZM189.066 65.8862C188.383 67.2457 188.491 68.8515 188.615 70.3682L188.793 72.5432C188.813 72.7824 188.943 73.1052 189.174 73.039C189.317 72.6383 189.59 72.3078 189.863 71.9764C190.102 71.6865 190.342 71.396 190.496 71.0572C191.018 69.9101 190.439 68.588 189.868 67.4644L189.066 65.8862ZM158.469 90.0271C158.498 90.4526 158.94 90.7711 159.366 90.7591C159.792 90.7472 160.176 90.4713 160.425 90.1252C160.674 89.7791 160.811 89.3669 160.944 88.9618L161.383 87.624C161.506 87.251 161.513 86.6808 161.123 86.6369C160.982 86.6211 160.848 86.6956 160.732 86.7777C160.295 87.0885 159.977 87.535 159.667 87.9729L158.823 89.1656C158.64 89.4242 158.448 89.7109 158.469 90.0271ZM57.7712 86.4564C54.8051 81.0255 52.9115 75.0116 52.2312 68.861C52.1893 68.4829 51.7723 68.2379 51.392 68.251C51.0117 68.2642 50.6664 68.4651 50.343 68.6656C45.7516 71.5123 41.8432 75.4525 39.0338 80.0669C38.7494 80.5339 38.4691 81.0299 38.4332 81.5756C38.3979 82.1111 38.6024 82.6306 38.8131 83.1242C41.9121 90.3848 47.0801 96.543 52.3261 102.442C56.3667 106.986 60.692 111.585 66.3258 113.872C67.2363 114.242 68.5589 114.392 68.945 113.488C69.0573 113.225 69.0513 112.93 69.0454 112.644L69.0452 112.633C68.9831 109.569 69.3313 106.498 70.0774 103.526C70.25 102.838 70.3398 101.911 69.6966 101.613C67.2776 100.492 65.6198 98.2315 64.0695 96.0625C61.8416 92.9454 59.6077 89.8189 57.7712 86.4564ZM63.0076 110.196C62.6743 110.284 62.3416 110.074 62.0634 109.87C56.9358 106.114 52.9623 101.029 49.0582 96.0127L42.1684 87.1603C43.3314 86.4196 43.4791 84.8103 43.5044 83.4318C43.5374 81.6399 43.5614 79.795 42.9141 78.1237C42.7702 77.7523 42.9575 77.3406 43.1581 76.9965C44.0184 75.5204 45.2114 74.2396 46.6227 73.2768C46.7593 73.1835 46.9039 73.0909 47.0677 73.0678C47.4999 73.0067 47.8315 73.4271 48.0624 73.7975C48.9746 75.2602 50.2283 76.9144 51.9479 76.794C52.6027 76.7482 52.9658 77.5194 53.1568 78.1474C55.5323 85.9567 59.9922 93.0004 65.2224 99.2672C65.9021 100.082 66.0726 101.181 66.2416 102.27C66.43 103.484 66.6165 104.686 67.505 105.467C68.2636 106.134 68.1228 107.331 67.9181 108.32C67.8762 108.523 67.8263 108.739 67.6726 108.878C67.5584 108.98 67.4041 109.023 67.2558 109.062L63.0076 110.196ZM50.8518 74.985C49.9112 74.3277 49.0987 73.4879 48.4729 72.5261C48.3376 72.318 48.2061 72.0848 48.2299 71.8378C48.2557 71.5691 48.4578 71.3541 48.6589 71.1742C49.1556 70.7297 49.7169 70.3576 50.3196 70.0733C50.5403 69.9691 50.8253 69.8845 51.0087 70.0456C51.1167 70.1404 51.1507 70.2919 51.1789 70.4328L52.0477 74.7779C52.0991 75.0348 51.8296 75.2661 51.5678 75.2735C51.3059 75.281 51.0665 75.135 50.8518 74.985ZM42.2544 83.3891C42.236 84.2063 42.1735 85.1235 41.561 85.665C41.4328 85.6802 41.3477 85.5395 41.2975 85.4206C40.8562 84.376 40.4088 83.3062 40.3393 82.1743C40.2698 81.0424 40.6491 79.8166 41.5741 79.1605C41.6992 79.0718 41.8828 78.9984 41.9933 79.1049C42.0377 79.1477 42.0567 79.2099 42.0729 79.2694C42.3242 80.1933 42.3044 81.1662 42.2829 82.1234L42.2544 83.3891ZM67.2145 110.574C67.363 110.696 67.3788 110.913 67.3829 111.105L67.427 113.206C66.5653 112.728 65.7397 112.185 64.9597 111.583C64.8118 111.469 64.6492 111.284 64.7398 111.121C64.7847 111.04 64.8781 111.001 64.965 110.969C65.5226 110.763 66.0992 110.609 66.685 110.508C66.8661 110.478 67.0723 110.458 67.2145 110.574ZM67.264 102.299C67.2561 102.204 67.2561 102.101 67.3125 102.024C67.4613 101.822 67.7843 102.005 67.9208 102.216C68.2496 102.724 68.3222 103.389 68.1107 103.955C67.6278 103.542 67.3168 102.933 67.264 102.299ZM195.623 86.3482C196.482 85.2665 198.048 85.1109 199.429 85.1446C199.751 85.1525 200.083 85.1681 200.377 85.302C201.194 85.6743 201.367 86.7417 201.395 87.639C201.42 88.4555 201.415 89.2826 201.217 90.075C201.018 90.8674 200.608 91.6308 199.952 92.1171C199.657 92.3357 199.314 92.495 198.952 92.5556C198.393 92.6493 197.82 92.5055 197.288 92.3077C196.58 92.0439 195.908 91.6818 195.298 91.2348C195 91.0165 194.692 90.7306 194.682 90.3613C194.66 89.5098 194.755 88.6552 194.965 87.8294C195.099 87.3017 195.285 86.7746 195.623 86.3482ZM197.85 91.7355C198.953 92.0521 200.126 91.1989 200.544 90.1304C200.962 89.0619 200.807 87.8618 200.578 86.7377C200.489 86.3061 200.028 86.065 199.603 85.9496C198.945 85.771 198.245 85.7473 197.577 85.8811C197.244 85.9475 196.905 86.0613 196.672 86.3072C196.545 86.4411 196.457 86.6066 196.37 86.7698L195.724 87.9908C195.611 88.2056 195.496 88.4223 195.43 88.6558C195.23 89.3545 195.494 90.1303 195.982 90.6688C196.47 91.2074 197.152 91.535 197.85 91.7355ZM183.091 104.082C184.102 104.434 185.018 105.055 185.722 105.863C186.326 106.558 186.786 107.459 186.659 108.371C186.613 108.706 186.489 109.025 186.348 109.332C185.815 110.496 184.897 111.611 183.637 111.836C182.976 111.954 182.295 111.812 181.659 111.596C180.924 111.346 180.223 110.995 179.582 110.557C179.242 110.324 178.905 110.048 178.756 109.664C178.653 109.399 178.65 109.108 178.654 108.824C178.663 108.122 178.71 107.408 178.955 106.75C179.264 105.917 179.87 105.23 180.513 104.616C180.771 104.37 181.045 104.127 181.377 103.994C181.92 103.778 182.539 103.889 183.091 104.082ZM184.124 110.201C184.855 109.478 185.281 108.43 185.165 107.408C185.049 106.386 184.358 105.428 183.39 105.079C182.989 104.934 182.543 104.894 182.131 105.007C181.909 105.069 181.701 105.174 181.506 105.297C180.674 105.827 180.089 106.73 179.947 107.706C179.805 108.682 180.109 109.715 180.756 110.459C181.17 110.936 181.847 111.14 182.474 111.061C183.1 110.982 183.675 110.645 184.124 110.201ZM91.8284 98.0591C91.7944 97.5774 91.1504 97.4512 90.6677 97.4654C88.1335 97.5398 85.6028 97.7297 83.0859 98.0342C82.6724 98.0842 82.639 98.7507 82.9708 99.0025C83.3025 99.2543 83.7647 99.2075 84.177 99.1488L91.8284 98.0591ZM83.7273 101.316C83.749 101.068 84.0608 100.979 84.3083 100.951L99.2343 99.2602C99.5042 99.2296 99.7918 99.202 100.035 99.3235C100.278 99.4451 100.434 99.7777 100.276 99.9982C100.159 100.161 99.9344 100.194 99.735 100.213L84.4685 101.695C84.1511 101.725 83.6994 101.634 83.7273 101.316ZM117.189 103.831C116.354 104.014 115.497 103.713 114.696 103.413C112.106 102.446 109.527 101.451 106.958 100.43C105.921 100.018 104.783 100.635 103.85 101.248C101.151 103.021 98.552 104.947 96.0702 107.014C95.4328 107.544 94.4518 107.172 93.809 106.648C93.673 106.537 93.5392 106.419 93.4049 106.3C92.9042 105.857 92.397 105.409 91.7493 105.317C90.7537 105.176 89.8778 105.931 89.1564 106.631L84.504 111.15C83.8783 111.757 83.2197 112.73 83.7766 113.402C84.144 113.845 84.8185 113.822 85.3902 113.756C88.3748 113.41 91.3447 112.925 94.3136 112.44L94.3138 112.44L94.3138 112.44C99.2207 111.638 104.125 110.837 109.088 110.666C110.187 110.627 111.288 110.62 112.388 110.613H112.389C113.078 110.609 113.767 110.605 114.456 110.593C117.563 110.539 120.668 110.329 123.755 109.966C123.904 109.948 124.074 109.917 124.152 109.788C124.21 109.691 124.196 109.568 124.179 109.456L122.872 100.56C122.805 100.108 122.689 99.5854 122.276 99.3901C121.859 99.1928 121.367 99.4471 121.025 99.7566C120.488 100.241 120.076 100.884 119.668 101.518C119 102.559 118.347 103.576 117.189 103.831ZM95.9563 108.698C98.7486 106.402 101.66 104.251 104.676 102.257C105.295 101.848 106.047 101.428 106.739 101.697L114.051 104.538C115.271 105.012 116.605 105.493 117.858 105.113C119.314 104.671 120.185 103.222 120.918 101.888C121.061 101.629 121.476 101.659 121.681 101.872C121.887 102.085 121.939 102.398 121.981 102.691L122.516 106.401C122.598 106.971 122.679 107.562 122.515 108.114C122.35 108.665 121.866 109.166 121.291 109.155C111.879 108.973 102.45 109.749 93.1946 111.467C92.908 111.52 92.6213 111.575 92.3344 111.629C90.1234 112.046 87.9043 112.465 85.6573 112.473C86.7423 110.936 88.1171 109.631 89.4823 108.336C90.2319 107.626 91.1692 106.859 92.1756 107.092C92.719 107.217 93.1358 107.608 93.5505 107.996C93.6835 108.121 93.8163 108.245 93.953 108.361C94.5158 108.836 95.3873 109.166 95.9563 108.698ZM216.698 134.578C216.448 134.671 216.17 134.607 215.916 134.527C214.195 133.986 212.797 132.776 211.423 131.587L211.423 131.587L211.423 131.587L211.422 131.586L211.422 131.586L211.421 131.586C211.308 131.488 211.196 131.39 211.083 131.293C211.01 131.231 210.938 131.169 210.866 131.107C208.59 129.166 206.12 127.452 203.504 125.999C203.238 125.851 202.959 125.696 202.796 125.439C202.633 125.182 202.638 124.79 202.889 124.619C204.062 123.818 204.823 122.444 204.879 121.025C204.894 120.647 205.321 120.395 205.698 120.425C206.075 120.456 206.404 120.682 206.713 120.901L218.663 129.384C218.896 129.549 219.146 129.741 219.203 130.02C219.25 130.249 219.154 130.479 219.058 130.691C218.543 131.829 217.95 132.931 217.285 133.988C217.135 134.227 216.963 134.479 216.698 134.578ZM204.742 124.514C204.602 124.762 204.48 125.121 204.708 125.292L214.459 132.634C214.994 133.037 215.823 133.414 216.244 132.894C216.727 132.297 217.178 131.675 217.594 131.03C217.708 130.853 217.825 130.652 217.784 130.446C217.746 130.258 217.588 130.121 217.439 130C213.86 127.099 210.071 124.456 206.111 122.101L204.742 124.514ZM199.889 129.005C200.046 128.735 200.237 128.439 200.543 128.373C200.777 128.322 201.015 128.422 201.23 128.527C202.404 129.097 203.48 129.87 204.394 130.801C204.615 131.025 204.642 131.386 204.544 131.684C204.446 131.982 204.244 132.233 204.046 132.477C203.728 132.869 203.389 133.277 202.919 133.463C202.413 133.664 201.823 133.567 201.344 133.309C200.864 133.05 200.479 132.646 200.139 132.22C199.697 131.664 199.3 130.997 199.369 130.289C199.414 129.826 199.654 129.407 199.889 129.005ZM201.943 132.118C202.681 132.405 203.154 132.178 203.173 131.693C203.185 131.388 202.919 131.152 202.676 130.966L201.943 130.402C201.7 130.215 201.433 130.02 201.127 130.022C200.821 130.024 200.51 130.339 200.635 130.618C200.616 130.753 201.204 131.831 201.943 132.118ZM199.028 138.08C199.208 138.179 199.399 138.275 199.604 138.279C199.809 138.284 200.032 138.167 200.082 137.968C200.201 137.501 200.51 137.114 200.812 136.735L200.812 136.735C200.845 136.693 200.878 136.652 200.911 136.611C201.242 136.191 201.562 135.716 201.571 135.182C201.58 134.647 201.137 134.077 200.608 134.15C200.19 134.208 199.802 133.934 199.499 133.642C199.451 133.595 199.403 133.547 199.355 133.499C199.101 133.246 198.844 132.989 198.507 132.88C198.106 132.749 197.561 132.957 197.529 133.377C197.465 134.223 196.762 134.859 196.11 135.402C195.915 135.564 196.091 135.876 196.274 136.052C197.096 136.847 198.025 137.531 199.028 138.08ZM199.158 136.468L197.874 135.599C197.547 135.378 197.573 134.837 197.864 134.571C198.156 134.305 198.608 134.285 198.979 134.418C199.35 134.551 199.659 134.812 199.959 135.068C200.158 135.238 200.185 135.546 200.094 135.791C200.003 136.036 199.819 136.232 199.638 136.42C199.577 136.485 199.508 136.553 199.419 136.565C199.325 136.577 199.237 136.521 199.158 136.468ZM209.34 136.525L209.968 135.191C210.161 134.782 210.347 134.277 210.088 133.907C209.997 133.779 209.864 133.689 209.734 133.601L207.449 132.061C207.203 131.895 206.936 131.722 206.639 131.727C206.287 131.733 205.992 131.984 205.742 132.232C205.367 132.603 205.017 132.999 204.694 133.416C204.449 133.734 204.247 134.256 204.582 134.476L208.079 136.77C208.355 136.951 208.705 137.137 208.995 136.98C209.165 136.887 209.258 136.701 209.34 136.525ZM208.566 135.581C208.419 135.615 208.266 135.577 208.121 135.534C207.239 135.268 206.431 134.758 205.81 134.077C205.604 133.85 205.72 133.449 205.983 133.29C206.245 133.131 206.586 133.168 206.869 133.287C207.051 133.363 207.218 133.47 207.385 133.577C207.477 133.636 207.569 133.694 207.663 133.748C207.765 133.806 207.871 133.859 207.977 133.912C208.277 134.063 208.578 134.213 208.783 134.474C209.06 134.826 209.003 135.48 208.566 135.581ZM209.747 137.071C210.15 136.975 210.273 136.565 210.401 136.138C210.506 135.785 210.615 135.421 210.888 135.214C211.359 134.859 212.024 135.156 212.531 135.457L214.141 136.415C214.398 136.568 214.661 136.726 214.845 136.961C215.029 137.196 215.12 137.53 214.991 137.799C214.905 137.979 214.742 138.098 214.579 138.218C214.444 138.317 214.309 138.416 214.215 138.55C214.094 138.721 214.049 138.936 214.005 139.149C213.949 139.415 213.894 139.678 213.69 139.846C213.319 140.151 212.768 139.906 212.358 139.656L210.089 138.269C209.86 138.129 209.619 137.976 209.506 137.732C209.394 137.489 209.486 137.133 209.747 137.071ZM212.721 138.448C213.046 138.337 213.308 138.096 213.558 137.862C213.74 137.692 213.497 137.412 213.28 137.29L211.89 136.507C211.745 136.425 211.543 136.351 211.431 136.474C211.068 136.869 211.016 137.514 211.309 137.962C211.602 138.411 212.214 138.621 212.721 138.448ZM196.77 138.4C196.459 138.312 196.142 138.223 195.888 138.049C195.493 137.78 194.944 137.845 194.53 138.083C194.115 138.321 193.806 138.703 193.507 139.075C193.341 139.282 193.171 139.498 193.108 139.755C193.044 140.013 193.12 140.325 193.351 140.454L195.776 141.805C195.959 141.907 196.164 142.013 196.37 141.968C196.574 141.922 196.715 141.741 196.838 141.572L197.462 140.713C197.809 140.236 198.172 139.627 197.918 139.093C197.714 138.666 197.249 138.535 196.77 138.4ZM196.003 140.623C195.876 140.657 195.746 140.595 195.629 140.536L193.977 139.695C194.295 139.246 194.899 139.073 195.446 139.128C195.994 139.182 196.503 139.426 196.998 139.665L196.239 140.454C196.171 140.524 196.098 140.598 196.003 140.623ZM184.561 107.012C184.817 107.402 184.736 107.923 184.567 108.357C184.343 108.93 183.965 109.46 183.432 109.765C182.898 110.069 182.197 110.114 181.677 109.786C181.156 109.459 180.895 108.731 181.174 108.184C181.238 108.057 181.326 107.945 181.414 107.832C181.499 107.725 181.583 107.618 181.646 107.497C181.688 107.418 181.721 107.334 181.753 107.251C181.8 107.13 181.847 107.009 181.922 106.904C182.187 106.529 182.708 106.455 183.167 106.462C183.688 106.469 184.275 106.577 184.561 107.012ZM183.399 107.26C182.687 107.251 182.019 107.848 181.948 108.557C181.919 108.846 182.042 109.206 182.33 109.246C182.547 109.276 182.736 109.109 182.881 108.947C183.188 108.602 183.452 108.219 183.665 107.81C183.736 107.672 183.799 107.496 183.705 107.373C183.637 107.283 183.512 107.261 183.399 107.26ZM200.432 88.6851C200.377 88.0329 199.941 87.3915 199.307 87.2282C198.502 87.0207 197.722 87.5874 197.083 88.1191C196.894 88.2764 196.697 88.4455 196.616 88.678C196.481 89.0726 196.725 89.4883 196.966 89.8291C197.241 90.2194 197.536 90.6118 197.938 90.8698C198.34 91.1278 198.877 91.2279 199.299 91.0037C199.514 90.8895 199.681 90.7028 199.826 90.5074C200.217 89.9824 200.487 89.3372 200.432 88.6851ZM198.647 90.3569C198.374 90.3978 198.091 90.2876 197.89 90.0985C197.589 89.8152 197.47 89.3598 197.575 88.9601C197.686 88.5393 198.039 88.1917 198.462 88.0879C198.884 87.9841 199.358 88.1284 199.651 88.4501C199.64 88.5377 199.631 88.626 199.622 88.7142C199.591 89.0141 199.56 89.3145 199.456 89.5962C199.321 89.9608 199.031 90.2993 198.647 90.3569ZM176.979 192.078C178.463 186.827 181.266 182.062 184.039 177.363C184.508 176.569 185.089 175.694 185.999 175.543C186.357 175.484 186.546 175.094 186.669 174.752C188.173 170.533 188.318 165.841 187.077 161.537C186.723 160.308 187.159 159.006 187.59 157.802L190.93 148.484C190.583 147.883 189.926 147.619 189.261 147.352C188.704 147.128 188.141 146.902 187.749 146.474C186.64 145.266 187.476 143.345 188.345 141.953L203.57 117.571C204.192 116.576 205.556 116.263 206.7 116.529C207.843 116.794 208.82 117.514 209.76 118.216L220.864 126.51C222.851 127.994 225.044 129.889 224.929 132.366C224.866 133.736 224.082 134.955 223.323 136.098L214.523 149.358C213.385 151.073 213.247 153.158 213.108 155.252V155.252C213.046 156.199 212.983 157.148 212.827 158.066C212.068 162.543 209.087 166.25 206.23 169.803L205.889 170.227C202.933 173.909 199.974 178.021 199.808 182.74C199.61 188.365 196.938 193.859 192.635 197.487L196.38 188.403C197.27 186.243 198.094 183.556 196.604 181.756C195.93 180.942 194.911 180.511 193.933 180.11L188.118 177.724C187.717 177.559 187.303 177.392 186.87 177.389C185.519 177.381 184.716 178.846 184.168 180.081C182.273 184.353 179.853 188.392 176.979 192.078ZM196.1 179.742C197.097 180.111 198.501 180.336 198.974 179.383C201.26 174.773 203.61 170.075 207.25 166.438C209.348 164.341 210.634 161.544 211.361 158.669C212.089 155.794 212.295 152.816 212.498 149.857C211.615 150.179 211.538 151.371 211.542 152.311C211.55 154.383 211.188 156.456 210.477 158.403C210.329 158.81 210.129 159.25 209.731 159.422C209.332 159.594 208.746 159.249 208.88 158.836C209.907 155.67 210.29 152.296 209.998 148.98C209.908 147.952 209.716 146.852 208.985 146.123C209.064 147.747 209.144 149.377 208.979 150.994C208.695 153.792 207.691 156.459 206.697 159.09C206.568 159.431 206.412 159.804 206.084 159.964C205.756 160.125 205.247 159.87 205.333 159.515L206.822 153.361C207.64 149.977 208.445 146.336 207.178 143.093C206.54 143.051 206.39 143.963 206.447 144.6C206.837 148.965 205.631 153.296 204.436 157.512C204.296 158.004 203.803 158.619 203.419 158.281C203.254 158.135 203.247 157.883 203.26 157.663C203.335 156.423 203.675 155.223 204.015 154.024C204.12 153.652 204.225 153.28 204.323 152.907C205.22 149.469 205.449 145.858 204.993 142.334C204.206 143.342 203.873 144.621 203.558 145.86L201.689 153.216C200.844 156.541 199.765 160.197 196.836 161.983C196.602 162.126 196.332 162.258 196.066 162.195C195.735 162.116 195.548 161.775 195.41 161.465C193.541 157.254 193.307 152.341 194.769 147.972C194.858 147.707 194.588 147.43 194.309 147.408C194.03 147.386 193.769 147.537 193.541 147.699C191.143 149.391 190.224 152.457 189.461 155.291L188.447 159.06C188.298 159.611 188.149 160.166 188.118 160.735C188.071 161.6 188.297 162.447 188.522 163.289L188.522 163.289C188.574 163.484 188.626 163.679 188.675 163.874C189.65 167.789 189.21 172.042 187.452 175.675C187.192 176.21 187.877 176.697 188.435 176.904L196.1 179.742ZM199.889 143.773C199.489 143.497 199.061 143.183 198.937 142.713C198.748 141.993 199.433 141.269 200.172 141.173C200.91 141.076 201.632 141.432 202.244 141.856C203.106 142.454 204.197 141.543 204.842 140.716C203.972 140.195 203.142 139.386 203.107 138.373C203.073 137.359 204.306 136.393 205.126 136.99C205.444 137.221 205.829 137.363 206.21 137.503C206.781 137.713 207.342 137.919 207.655 138.419C208.011 138.987 207.884 139.756 207.522 140.32C207.16 140.884 206.602 141.289 206.057 141.681C206.839 141.758 207.6 142.037 208.247 142.483L208.952 140.429C209.006 140.269 209.066 140.103 209.191 139.99C209.432 139.774 209.809 139.841 210.118 139.939C210.93 140.196 211.726 140.598 212.261 141.26C212.797 141.922 213.02 142.884 212.646 143.649C212.272 144.414 211.215 144.821 210.499 144.36C210.351 144.265 210.201 144.137 210.052 144.009L210.052 144.009C209.653 143.667 209.254 143.325 208.869 143.599C210.045 144.515 210.853 145.891 211.08 147.364C214.782 141.724 218.445 136.058 222.068 130.366C222.414 129.823 222.693 128.967 222.13 128.654C219.724 127.32 217.597 125.532 215.476 123.749C212.798 121.498 210.128 119.254 206.915 117.936C206.711 117.852 206.488 117.771 206.275 117.827C206.051 117.886 205.894 118.081 205.754 118.264C199.77 126.074 194.4 134.354 189.709 143.002C189.055 144.208 189.93 145.646 190.768 146.734C191.187 147.277 191.995 147.851 192.452 147.339C193.027 146.694 193.971 146.325 194.786 146.613C195.6 146.901 196.108 147.961 195.664 148.703C195.344 149.24 195.971 149.836 196.52 150.137C197.615 150.737 198.739 151.285 199.886 151.78C200.045 151.849 200.231 151.916 200.386 151.838C200.534 151.764 200.594 151.588 200.64 151.429L201.911 147.057C202.12 146.338 202.26 145.405 201.643 144.98L199.889 143.773ZM222.62 131.516C222.451 131.458 222.297 131.627 222.198 131.776L212.684 146.017C212.428 146.401 212.166 146.799 212.091 147.254C212.016 147.708 212.183 148.237 212.597 148.439C213.282 148.775 213.999 148.07 214.439 147.447L223.279 134.918C223.935 133.988 223.38 132.716 222.818 131.726C222.769 131.641 222.713 131.548 222.62 131.516ZM195.833 150.534C195.665 150.412 195.415 150.485 195.275 150.638C195.134 150.79 195.077 150.999 195.024 151.199C194.894 151.692 194.764 152.19 194.744 152.7C194.725 153.21 194.818 153.716 194.91 154.218L195.821 159.17C195.859 159.378 195.904 159.599 196.051 159.75C196.198 159.901 196.485 159.934 196.604 159.76C197.953 157.788 199.32 155.777 200.026 153.494C200.114 153.21 200.139 152.811 199.861 152.707C198.429 152.168 197.07 151.435 195.833 150.534ZM206.354 138.315C205.898 137.88 205.294 137.602 204.667 137.538C204.095 137.48 203.765 138.283 204.026 138.795C204.287 139.308 204.864 139.561 205.397 139.775C205.774 139.926 206.231 140.069 206.559 139.83C207.031 139.488 206.777 138.717 206.354 138.315ZM202.598 144.054C202.784 143.921 202.809 143.65 202.756 143.428C202.56 142.59 201.641 142.161 200.816 141.916C200.496 141.821 200.099 141.755 199.874 142C199.686 142.205 199.726 142.545 199.888 142.771C200.051 142.997 200.304 143.136 200.549 143.268L201.823 143.955C202.066 144.085 202.374 144.213 202.598 144.054ZM209.851 141.032C209.581 141.394 209.609 141.919 209.834 142.31C210.059 142.701 210.449 142.972 210.86 143.157C211.001 143.22 211.156 143.276 211.308 143.246C211.438 143.22 211.55 143.132 211.629 143.025C211.924 142.632 211.781 142.039 211.444 141.682C211.106 141.324 210.626 141.145 210.164 140.978C210.085 140.949 209.992 140.921 209.919 140.965C209.891 140.981 209.87 141.007 209.851 141.032ZM82.0151 173.788C82.1916 172.483 82.4389 171.048 83.4637 170.222C84.2808 169.563 85.4025 169.458 86.4518 169.438C89.8893 169.372 93.3378 169.93 96.5788 171.077C97.6041 171.44 98.6772 171.918 99.2378 172.85C99.8447 173.859 99.6968 175.132 99.529 176.297L96.9258 194.381C98.7208 189.144 100.009 183.734 100.768 178.25C101.122 175.691 101.245 172.755 99.4597 170.889C96.6723 167.976 96.7483 163.827 96.8256 159.608C96.8923 155.966 96.96 152.273 95.1887 149.278C94.6107 148.301 95.8993 147.292 96.9709 146.917C101.694 145.263 106.729 144.504 111.73 144.692C112.647 151.935 112.895 159.262 112.47 166.55C112.375 168.185 114.693 168.607 116.321 168.426L172.775 162.166C173.057 162.135 173.363 162.093 173.563 161.891C173.797 161.656 173.808 161.286 173.805 160.954C173.672 147.727 173.291 134.503 172.663 121.29C172.639 120.774 172.573 120.182 172.146 119.892C171.826 119.674 171.405 119.703 171.02 119.74L130.725 123.646C133.372 111.161 136.034 98.4423 134.827 85.7371C126.018 91.6102 114.652 91.5661 104.083 90.9442C103.644 90.9184 103.204 90.892 102.763 90.8657C92.5917 90.2578 81.9853 89.624 72.8417 94.0236C77.6293 106.717 82.4717 120.573 78.4921 133.543C78.14 134.69 77.7211 135.818 77.3024 136.944C76.6567 138.681 76.0116 140.417 75.6126 142.224C74.9549 145.203 75.0538 148.538 76.8168 151.028C79.3697 154.634 81.3984 158.733 81.8611 163.126C82.3002 167.296 81.3191 171.43 80.3391 175.561C79.3151 179.876 78.2923 184.186 78.892 188.525C78.9935 189.259 79.1768 190.049 79.7514 190.517L82.0151 173.788ZM86.0094 121.397C87.077 121.435 87.5013 122.775 87.6378 123.835L88.7187 132.225C86.6082 131.131 83.6393 132.988 83.6998 135.364C81.9215 131.932 81.6513 127.998 81.3838 124.104C81.3256 123.257 81.2676 122.411 81.1942 121.573C80.409 112.614 77.709 103.949 75.0255 95.3649C74.6429 94.1409 76.2956 93.3472 77.5645 93.1612C85.891 91.9404 94.3181 92.109 102.749 92.2776C106.571 92.354 110.393 92.4305 114.207 92.3776C120.984 92.2836 128.155 91.6421 133.653 87.6776C134.889 95.9149 133.209 104.226 131.551 112.432C131.327 113.542 131.103 114.65 130.886 115.756C129.071 125.036 127.836 134.928 131.309 143.724C131.455 144.094 130.956 144.374 130.566 144.455C127.71 145.051 124.757 145.179 121.859 144.834C120.617 144.685 119.387 144.451 118.157 144.216C117.231 144.04 116.304 143.863 115.372 143.723C108.355 142.67 101.03 143.763 94.6255 146.819C94.3688 146.941 94.0635 146.884 93.7947 146.791C92.4976 146.342 91.5724 145.144 91.1107 143.851C90.649 142.558 90.5829 141.163 90.5213 139.792L90.263 134.041C90.2537 133.834 90.3078 133.554 90.5146 133.547C101.734 133.197 112.94 132.441 124.104 131.28C123.632 128.639 123.586 125.922 123.966 123.266C124.207 121.589 122.63 120.06 120.951 119.836C119.272 119.611 117.611 120.372 116.217 121.334C115.696 121.694 115.195 122.085 114.694 122.476C113.857 123.13 113.02 123.783 112.089 124.289C111.479 124.62 110.746 124.887 110.105 124.62C109.322 124.292 109.059 123.36 108.825 122.528C108.81 122.476 108.795 122.424 108.781 122.373C108.475 121.301 107.971 120.234 107.083 119.56C106.196 118.886 104.857 118.719 103.981 119.407C103.232 119.996 102.995 121.016 102.869 121.961C102.858 122.045 102.847 122.129 102.837 122.214C102.725 123.082 102.61 123.98 102.092 124.676C101.523 125.44 100.254 125.768 99.6301 125.048C98.3963 123.624 96.2313 123.325 94.4145 123.825C92.5978 124.325 91.0433 125.479 89.536 126.61C88.6267 125.187 88.5515 123.271 89.3464 121.781L89.3597 121.756C89.5092 121.476 89.6809 121.155 89.5487 120.87C89.4669 120.694 89.2864 120.585 89.1076 120.509C88.0387 120.05 86.6729 120.442 86.0094 121.397ZM118.133 145.447C118.731 145.566 119.465 145.832 119.502 146.441C119.855 152.243 124.466 157.456 130.135 158.741C135.804 160.025 142.087 157.428 145.392 152.647C148.697 147.865 148.956 141.223 146.246 136.081C143.339 130.567 136.275 127.638 130.319 129.479C130.043 128.26 130.074 126.973 130.409 125.769C130.471 125.546 130.552 125.312 130.732 125.166C130.909 125.023 131.147 124.991 131.372 124.964L148.149 122.943C149.624 122.765 151.103 122.587 152.589 122.575C158.977 122.523 165.361 121.886 171.634 120.675C172.609 133.763 173.067 146.89 173.009 160.015C173.006 160.638 172.816 161.465 172.194 161.483C161.635 161.791 151.159 163.18 140.679 164.569C133.638 165.503 126.596 166.436 119.524 167.043C117.948 167.178 116.362 167.297 114.787 167.147C114.501 167.119 114.179 167.061 114.024 166.82C113.931 166.675 113.92 166.493 113.912 166.32L112.971 145.327C112.959 145.056 112.975 144.729 113.21 144.593C113.366 144.502 113.561 144.535 113.737 144.57L118.133 145.447ZM89.2449 140.586C89.078 141.677 88.8903 142.903 89.6046 143.728C92.2689 146.805 95.0368 150.093 95.745 154.101C96.0757 155.973 95.9336 157.899 95.7922 159.817C95.6139 162.234 95.4366 164.638 96.2063 166.905C96.2263 166.964 96.247 167.024 96.2678 167.083C96.4092 167.487 96.5534 167.899 96.5075 168.321C96.455 168.805 96.0348 169.292 95.5551 169.209L89.9851 168.249C88.1406 167.931 86.1919 167.621 84.4398 168.279C84.101 168.407 83.7111 168.183 83.5296 167.87C83.348 167.557 83.3242 167.18 83.3084 166.819C83.2894 166.382 83.2752 165.943 83.2608 165.502C83.1709 162.729 83.0792 159.904 81.7958 157.475L77.7008 149.723C77.0963 148.579 76.4777 147.383 76.4359 146.09C76.4081 145.226 76.6413 144.377 76.8725 143.545L78.9153 136.186C79.3454 134.637 79.8004 133.038 80.8189 131.794C83.2933 135.992 83.5374 141.423 81.4498 145.826C81.2566 146.233 81.8466 146.653 82.2671 146.49C82.6877 146.328 82.9012 145.867 83.0495 145.442C83.6433 143.737 83.8516 141.939 84.0601 140.139C84.2288 138.682 84.3977 137.224 84.7712 135.812C85.0001 134.946 85.3301 134.063 85.9982 133.468C86.6663 132.872 87.7559 132.668 88.456 133.226C88.9918 133.653 89.166 134.382 89.2679 135.059C89.5367 136.846 89.5355 138.673 89.2642 140.46C89.2578 140.502 89.2514 140.544 89.2449 140.586ZM98.8556 126.059C99.6766 126.687 100.481 127.303 101.466 127.189C102.718 127.044 103.498 125.755 103.862 124.548C103.941 124.284 104.012 124.014 104.083 123.743C104.336 122.776 104.592 121.801 105.255 121.074C105.448 120.862 105.726 120.665 106 120.748C106.221 120.815 106.351 121.04 106.454 121.248C106.6 121.542 106.738 121.841 106.876 122.14C107.266 122.985 107.656 123.829 108.222 124.562C108.988 125.556 110.181 126.337 111.428 126.201C112.544 126.078 113.415 125.289 114.265 124.519C114.439 124.361 114.612 124.204 114.786 124.054C116.832 122.289 119.497 121.257 122.198 121.183C121.833 122.093 122.076 123.086 122.315 124.061C122.372 124.295 122.429 124.529 122.477 124.76C122.859 126.582 122.666 128.521 121.933 130.233L103.895 131.621C99.6842 131.946 95.4626 132.27 91.2418 132.122C90.9752 132.112 90.7018 132.099 90.4565 131.994C89.9932 131.796 89.718 131.302 89.6183 130.808C89.3947 129.7 89.9054 128.547 90.6788 127.723C91.4521 126.899 92.4622 126.345 93.4542 125.804C94.4865 125.241 95.6326 124.659 96.7836 124.899C97.5495 125.059 98.2078 125.563 98.8556 126.059ZM133.013 152.335C130.28 152.278 127.912 150.049 127.101 147.439C126.935 146.906 127.28 146.321 127.755 146.029C128.23 145.736 128.805 145.667 129.36 145.605L133.364 145.155C132.146 142.788 131.279 140.242 130.799 137.624C130.755 137.386 130.716 137.137 130.791 136.907C130.923 136.504 131.357 136.292 131.759 136.157C135.012 135.064 138.918 136.391 140.831 139.241C142.744 142.09 142.493 146.209 140.248 148.804C139.276 149.928 138.002 150.757 136.66 151.396C135.516 151.94 134.279 152.361 133.013 152.335ZM145.98 138.268C146.466 139.873 146.607 141.562 146.674 143.238C145.582 143.073 144.479 142.979 143.375 142.958C143.159 140.138 141.282 137.591 138.815 136.209C136.348 134.827 133.37 134.528 130.582 135.001C130.559 134.604 130.486 134.189 130.414 133.774C130.222 132.68 130.031 131.586 130.739 130.809C131.166 130.339 131.817 130.152 132.441 130.035C135.284 129.506 138.314 130.061 140.785 131.563C143.255 133.065 145.142 135.5 145.98 138.268ZM125.938 147.154C125.934 147.206 125.929 147.258 125.927 147.306C125.909 147.696 126.09 148.053 126.27 148.407C126.318 148.502 126.366 148.597 126.41 148.691C126.619 149.14 126.719 149.731 126.371 150.083C125.529 150.933 124.785 151.88 124.158 152.899C124.003 153.152 123.621 153.172 123.366 153.022C123.111 152.872 122.953 152.603 122.806 152.347C121.874 150.722 120.918 149.022 120.802 147.152C120.788 146.92 120.813 146.638 121.019 146.53C121.11 146.482 121.217 146.481 121.32 146.481L125.488 146.468C125.588 146.468 125.693 146.469 125.779 146.518C125.984 146.634 125.96 146.904 125.938 147.154Z" fill="#00160A"/>
</svg>
