<svg  viewBox="0 0 270 198" fill="none" xmlns="http://www.w3.org/2000/svg">
<!-- width="270" height="198" -->
<path fill-rule="evenodd" clip-rule="evenodd" d="M69.0334 182.192C69.0334 182.192 4.88626 170.175 0.538319 154.316C-3.80962 138.457 47.7124 130.817 47.7124 130.817C47.7124 130.817 72.4184 126.639 76.2015 123.254C79.9847 119.869 155.297 121.175 191.685 94.1836C228.073 67.1922 240.092 53.505 258.08 68.8365C276.068 84.1681 271.713 129.626 251.881 155.909C232.048 182.192 153.152 186.572 153.152 186.572L69.0334 182.192Z" fill="#EDF0F5"/>
<path fill-rule="evenodd" clip-rule="evenodd" d="M112.171 51.8728C112.643 38.8881 114.569 25.7905 112.389 12.9817C112.149 11.5747 111.857 10.1644 111.293 8.85356C110.341 6.63917 108.604 4.77194 106.466 3.66202C105.809 3.32127 105.079 3.01735 104.678 2.39506C104.278 1.77276 104.48 0.71885 105.21 0.600098C108.201 1.07886 110.641 3.41741 111.99 6.13208C113.34 8.84675 113.764 11.9173 114.075 14.9335C115.164 25.5182 115.074 36.224 113.809 46.789C113.378 50.3841 112.826 54.1304 114.025 57.5466C113.663 57.46 113.302 57.3735 112.94 57.2869C112.086 55.6523 112.104 53.7162 112.171 51.8728H112.171Z" fill="#E7EAEE"/>
<path fill-rule="evenodd" clip-rule="evenodd" d="M75.1328 182.304C76.1524 182.219 77.1721 182.134 78.1917 182.05C77.4332 182.886 76.2522 183.33 75.1208 183.206C74.5514 183.143 74.2446 183.973 74.5707 184.437C74.8968 184.901 75.5327 185.03 76.1053 185.047C76.678 185.065 77.2797 185.015 77.7958 185.26C75.8601 186.133 73.9245 187.006 71.9888 187.879C73.4074 188.048 74.8559 187.971 76.2478 187.653C74.6958 189.194 71.4796 188.34 70.3613 190.21C72.5913 190.473 74.8846 190.2 76.9865 189.42C76.9747 190.166 76.09 190.569 75.34 190.669C74.5899 190.769 73.7234 190.797 73.2533 191.381C72.9481 191.76 72.3455 191.644 71.8791 191.491C71.1053 191.239 70.3043 190.97 69.7146 190.416C69.1248 189.862 68.8124 188.934 69.215 188.236C70.0987 186.704 73.2288 187.61 73.7569 185.927C73.889 185.506 73.7831 185.052 73.6788 184.624C73.4359 183.626 73.2023 182.599 73.3407 181.582C73.4792 180.565 74.0678 179.546 75.0375 179.17C76.6667 178.54 78.3345 179.9 80.0425 180.277C81.3284 180.562 82.6919 180.276 83.9768 180.565C85.8263 180.981 87.1833 182.489 88.4085 183.915C88.9639 184.562 89.5389 185.247 89.705 186.078C89.8712 186.909 89.4631 187.917 88.6281 188.12C87.869 188.305 87.5681 189.253 87.7163 190.008C87.8646 190.764 88.3112 191.433 88.5179 192.175C88.7245 192.918 88.5923 193.866 87.896 194.217C86.4275 194.955 84.8884 195.711 83.2395 195.712C82.1351 195.713 81.0555 195.371 79.9516 195.337C78.8476 195.303 77.6024 195.689 77.1374 196.676C76.6696 197.668 75.0157 197.444 74.4039 196.531C73.7922 195.618 73.9072 194.427 74.0453 193.342C74.0859 193.023 74.1361 192.683 74.3542 192.444C74.5327 192.248 74.7958 192.153 75.0507 192.075C76.19 191.724 77.391 191.569 78.5835 191.619C77.5136 192.091 76.4032 192.593 75.6625 193.488C74.9219 194.383 74.6834 195.795 75.4505 196.668C76.735 196.653 77.8824 195.466 77.8347 194.202C80.2923 194.673 82.8147 194.814 85.3107 194.622C86.7607 194.51 87.8647 192.916 87.5045 191.528C87.1444 190.141 85.476 189.262 84.0829 189.673C85.8741 188.872 87.5714 187.867 89.1304 186.685C88.7072 186.05 88.284 185.416 87.8607 184.781C87.2156 183.813 86.5527 182.827 85.6211 182.121C84.6894 181.415 83.4223 181.03 82.3166 181.423C81.211 181.816 80.4546 183.156 80.9613 184.201C80.6164 184.626 79.8638 184.63 79.5145 184.208C79.1652 183.786 79.3202 183.061 79.8125 182.814C80.2526 182.593 80.3053 181.951 80.0475 181.536C79.7897 181.121 79.3277 180.88 78.8878 180.658C77.7104 180.066 76.1988 179.497 75.1642 180.308C75.5858 180.557 76.0803 180.684 76.5717 180.67C75.9048 181.063 75.238 181.455 74.5712 181.847C74.3359 182.064 74.8118 182.331 75.1328 182.304V182.304Z" fill="#FFB61D"/>
<path fill-rule="evenodd" clip-rule="evenodd" d="M108.888 49.4445C108.785 49.0496 108.935 48.5755 109.298 48.3875C109.416 48.6335 109.534 48.8795 109.653 49.1256C109.406 49.2778 109.158 49.4299 108.911 49.5821L108.888 49.4445Z" fill="#E7EAEE"/>
<path fill-rule="evenodd" clip-rule="evenodd" d="M109.963 30.8751C109.614 35.3143 109.468 39.767 109.528 44.2175C109.539 45.0887 109.569 45.9982 110.021 46.7643C110.154 46.9899 109.813 47.2504 109.544 47.1814C109.274 47.1125 109.112 46.866 108.992 46.6346C107.354 43.5001 108.389 39.8099 108.315 36.3341C108.268 34.072 107.743 31.7409 108.51 29.5907C108.665 29.1563 109.423 29.1889 109.723 29.5534C110.024 29.9179 109.999 30.4192 109.963 30.8751L109.963 30.8751Z" fill="#E7EAEE"/>
<path d="M57.2594 141.838C57.5563 142.353 57.5605 143.045 57.2699 143.564C56.9534 142.282 55.2837 141.657 54.2876 142.448C53.922 142.739 53.5263 143.2 53.1045 143.015C53.3002 142.938 53.3294 142.595 53.15 142.481C53.9849 141.056 56.0767 140.728 57.2594 141.838H57.2594Z" fill="black"/>
<path fill-rule="evenodd" clip-rule="evenodd" d="M164.991 158.724C165.318 157.637 165.24 156.474 165.159 155.341L160.439 89.4749C161.395 90.5085 161.574 92.0171 161.705 93.4174C163.634 114.023 165.241 134.659 166.525 155.315C166.677 157.756 166.77 160.404 165.373 162.414C164.437 163.763 162.953 164.622 161.473 165.337C156.058 167.955 150.09 169.218 144.139 170.112C127.916 172.551 111.305 172.404 95.1284 169.679C91.9274 169.14 88.6795 168.477 85.8572 166.877C83.0349 165.277 80.6636 162.576 80.2407 159.365C76.7192 132.629 74.748 105.69 74.3403 78.728C74.3108 76.7747 74.2421 74.675 73.0689 73.1107C72.3843 72.1979 71.4095 71.587 70.4314 70.9739C69.5938 70.449 68.7539 69.9225 68.0917 69.2037C65.6153 66.5157 66.5469 61.9256 69.145 59.3546C71.7432 56.7836 75.4715 55.7632 79.053 55.0123C89.5165 52.8188 100.286 52.0843 110.952 52.8371C111.267 53.6952 109.972 54.1765 109.056 54.1776C99.0365 54.1895 89.0177 55.0078 79.1294 56.6219C75.5059 57.2134 71.5553 58.1171 69.3603 61.0531C79.3452 64.3356 90.0503 64.5229 100.563 64.6032C119.355 64.7468 138.281 64.6345 156.732 61.0751C158.375 60.7583 160.155 60.328 161.174 59.0041C162.193 57.6803 161.713 55.2287 160.051 55.0353C145.833 53.381 131.468 52.983 117.18 53.8473C116.076 53.914 114.451 53.2518 114.991 52.2898C128.098 51.6686 141.247 51.9568 154.314 53.1517C157.823 53.4726 161.518 53.9319 164.325 56.0556C167.305 58.3095 168.79 62.3643 167.968 66.0031C167.146 69.6419 164.061 72.6698 160.401 73.4314L160.247 82.3861C159.249 81.3594 159.383 79.8081 159.512 78.3268C159.538 78.0247 159.564 77.7256 159.58 77.4344C159.674 75.7151 158.654 73.4735 156.964 73.8247C130.221 79.3836 102.357 79.515 75.5624 74.2088C75.5912 99.8004 78.0126 125.322 80.4317 150.8C80.7203 153.839 81.0225 156.933 82.2179 159.743C83.4134 162.552 85.6661 165.083 88.632 165.834C102.728 169.404 117.359 170.864 131.885 170.152C141.811 169.665 151.942 168.083 160.59 163.199C162.46 162.143 164.373 160.777 164.991 158.724ZM68.4127 62.1484C67.5314 65.265 69.3482 68.6473 71.9761 70.5485C74.604 72.4497 77.8846 73.1756 81.077 73.7636C106.763 78.4943 133.325 77.1476 158.959 72.1419C160.912 71.7605 162.961 71.3099 164.444 69.9863C166.089 68.5191 166.745 66.1808 166.613 63.9839C166.48 61.7871 165.653 59.694 164.726 57.6965C163.4 60.9362 159.416 62.0132 155.958 62.6002C133.016 66.4937 109.606 67.1279 86.3651 65.936C83.7227 65.8005 81.0759 65.6409 78.4646 65.2155C74.996 64.6504 71.6046 63.6156 68.4127 62.1484ZM82.6879 149.088C82.1829 148.647 81.6018 148.14 80.9655 148.307C80.7201 149.951 82.6548 150.971 84.2398 151.429C86.3365 152.035 88.5337 152.591 90.6779 152.188C91.4515 152.042 92.2216 151.761 92.8077 151.231C94.1231 150.043 94.1658 148.015 94.1057 146.235C93.5667 130.268 92.6845 114.313 91.4601 98.3843C91.2643 95.838 90.906 92.9887 88.9159 91.4095C88.0968 90.7595 87.0889 90.4098 86.1021 90.0714L79.2275 87.7141C78.2989 87.3957 77.087 87.1552 76.4931 87.9424C76.1239 88.4317 76.1826 89.1122 76.2575 89.7223C78.4634 107.674 79.6934 125.747 79.9403 143.834C79.9744 146.329 82.1517 148.335 84.4898 149.151C87.0301 150.037 89.7946 149.892 92.4782 149.736C89.5838 151.699 85.398 151.446 82.7568 149.148L82.6879 149.088ZM92.3234 147.605C90.5085 148.862 88.0951 148.697 85.9282 148.303C84.6447 148.07 83.2751 147.715 82.4434 146.702C81.5858 145.657 81.5207 144.186 81.4906 142.83C81.0877 124.689 79.7813 106.568 77.5777 88.5581L84.6537 91.0001C86.3335 91.5798 88.1254 92.2418 89.1471 93.7062C90.0321 94.9747 90.1675 96.6083 90.2739 98.1557L91.6416 118.055C92.3178 127.892 92.994 137.767 92.3234 147.605ZM122.44 153.283C120.284 152.705 118.067 152.348 115.837 152.219L115.723 152.213C114.094 152.12 112.256 152.015 111.251 150.747C110.775 150.148 110.578 149.38 110.401 148.636C106.894 133.883 106.56 118.591 106.243 103.434L106.091 96.1336C106.08 95.6279 106.061 95.0924 105.783 94.6689C105.506 94.2455 104.87 94.0135 104.476 94.3319L105.113 119.363C105.158 121.114 105.203 122.866 105.305 124.614C105.776 132.658 107.466 140.575 109.151 148.455C109.579 150.459 110.449 152.888 112.492 153.124L122.739 154.306C122.824 154.315 122.912 154.325 122.993 154.3C123.496 154.146 122.949 153.419 122.44 153.283ZM159.559 141.253C159.66 144.105 159.685 147.211 157.955 149.481C160.514 147.816 160.699 144.207 160.609 141.156L159.819 114.434C159.613 107.444 159.393 100.369 157.462 93.6479C157.11 92.4238 156.67 91.1631 155.746 90.286C154.822 89.4089 153.276 89.0593 152.264 89.8326C150.242 91.3763 147.556 91.429 144.966 91.4798H144.966C144.565 91.4877 144.166 91.4955 143.772 91.5089C140.835 91.6082 137.42 92.4622 136.304 95.1787C135.618 96.8497 136.03 98.7374 136.417 100.508L136.443 100.628C138.559 110.329 138.846 120.273 139.133 130.223C139.264 134.762 139.395 139.303 139.7 143.822C139.881 146.507 140.166 149.313 141.646 151.561C141.939 152.006 142.289 152.435 142.76 152.683C143.207 152.918 143.725 152.972 144.229 153.013C146.948 153.234 149.751 153.18 152.309 152.231C154.867 151.283 157.161 149.32 157.954 146.712C158.439 145.12 158.344 143.418 158.252 141.756L158.249 141.703C157.747 132.688 157.625 123.651 157.883 114.625C157.893 114.286 157.903 113.946 157.913 113.605C158.114 106.825 158.322 99.8127 155.5 93.6717C155.123 92.8507 154.664 92.0187 153.907 91.5241C153.868 91.4984 153.827 91.4727 153.786 91.4467L153.786 91.4466C153.491 91.2603 153.171 91.0582 153.146 90.7227C153.743 90.2923 154.625 90.4988 155.165 90.9977C155.706 91.4966 155.982 92.2129 156.219 92.9088C157.148 95.6298 157.761 98.4584 158.043 101.32C158.194 102.865 158.25 104.418 158.305 105.969L159.559 141.253ZM137.85 94.0828C138.911 92.8564 140.714 92.6712 142.333 92.5725L150.898 92.05C151.757 91.9976 152.692 91.9659 153.392 92.4667C153.871 92.8096 154.162 93.3524 154.409 93.887C156.392 98.1779 156.606 103.048 156.704 107.773C156.977 120.949 156.605 134.139 155.59 147.279C155.481 148.695 154.364 149.874 153.074 150.471C151.784 151.067 150.333 151.19 148.916 151.303L144.96 151.62C144.471 151.659 143.954 151.694 143.515 151.476C142.871 151.157 142.587 150.407 142.38 149.719C140.241 142.613 140.233 135.163 140.224 127.696C140.219 123.788 140.215 119.875 139.905 116.004C139.46 110.442 138.38 104.953 137.303 99.4776L137.303 99.4774L137.285 99.3865C136.929 97.5767 136.643 95.4781 137.85 94.0828ZM176.677 157.357C177.418 158.093 178.37 158.621 179.392 158.864C180.267 159.072 180.829 160.111 180.517 160.944C180.541 161.064 180.352 161.128 180.252 161.055C180.166 160.993 180.132 160.887 180.099 160.785L180.092 160.763L180.083 160.736C179.835 160.003 179.028 159.636 178.308 159.33C177.29 158.896 176.249 158.393 175.571 157.527C174.893 156.661 174.698 155.333 175.416 154.498C175.885 153.951 176.625 153.726 177.323 153.527C178.253 153.261 179.229 152.993 180.177 153.189L180.393 153.614C180.842 153.887 181.472 153.829 181.862 153.478C182.295 153.088 182.955 153.118 183.54 153.171L186.696 153.458C186.85 153.472 187.012 153.489 187.138 153.578C187.511 153.842 187.213 154.481 186.771 154.608C186.453 154.698 186.123 154.636 185.793 154.574C185.664 154.55 185.536 154.526 185.408 154.51C185.25 154.491 185.084 154.488 184.936 154.548C184.495 154.729 184.467 155.34 184.604 155.792C184.628 155.869 184.654 155.948 184.681 156.027L184.681 156.027C184.809 156.408 184.941 156.8 184.794 157.162C184.384 157.344 183.907 156.972 183.783 156.545C183.69 156.221 183.729 155.882 183.768 155.543C183.78 155.436 183.792 155.33 183.8 155.223C183.834 154.781 183.763 154.276 183.4 154.013C181.934 154.703 180.279 154.998 178.661 154.856C178.534 154.845 178.406 154.831 178.279 154.817L178.278 154.817L178.277 154.817L178.276 154.817C177.867 154.772 177.457 154.728 177.048 154.77C176.512 154.826 175.96 155.062 175.687 155.52C175.897 155.653 176.053 155.867 176.114 156.106L181.277 157.102C180.894 157.518 180.244 157.523 179.674 157.497L176.677 157.357ZM130.181 143.73C129.136 131.229 128.805 118.669 129.188 106.131L129.197 105.847C129.281 103.1 129.368 100.311 128.648 97.6601C127.904 94.9181 126.139 92.2925 123.481 91.2565C121.938 90.6548 120.237 90.6314 118.579 90.616C114.263 90.5758 109.909 90.5391 105.681 91.3998C104.28 91.685 102.748 92.182 102.074 93.4373C101.608 94.3066 101.665 95.3497 101.735 96.3326L105.499 149.803C105.571 150.83 105.664 151.916 106.267 152.751C106.894 153.62 107.954 154.053 108.974 154.39C113.3 155.816 117.953 156.248 122.47 155.643C122.059 155.061 121.263 154.926 120.553 154.84L111.73 153.774C110.841 153.667 109.925 153.551 109.149 153.107C107.269 152.034 106.889 149.546 106.713 147.397C105.305 130.169 103.896 112.935 103.155 95.6648C103.114 94.7294 103.16 93.6202 103.945 93.1042C104.343 92.8429 104.843 92.8051 105.318 92.7751L118.291 91.9563C119.756 91.8638 121.27 91.7779 122.65 92.2778C124.559 92.97 125.927 94.7047 126.706 96.5725C127.896 99.423 127.92 102.604 127.881 105.69C127.852 107.912 127.8 110.136 127.747 112.36C127.547 120.864 127.347 129.376 128.477 137.794C128.532 138.202 128.589 138.614 128.647 139.027C129.32 143.86 130.038 149.019 127.426 153.065L127.382 153.133C127.186 153.434 126.983 153.747 126.973 154.103C126.963 154.485 127.306 154.899 127.676 154.797C127.821 154.757 127.937 154.65 128.042 154.542C130.702 151.822 130.497 147.512 130.181 143.73ZM110.073 59.5494C111.764 59.6151 113.56 60.0228 114.724 61.29C114.95 61.5365 115.152 61.8143 115.354 62.0913C115.774 62.6684 116.191 63.2421 116.821 63.5225C115.857 63.1764 114.804 63.0973 113.801 63.2958C113.453 63.3647 113.111 63.4663 112.769 63.5677C112.229 63.728 111.69 63.8879 111.131 63.9183L112.247 62.9388C112.646 62.5885 113.098 62.2182 113.622 62.2357C113.707 61.3462 113.019 60.5 112.184 60.267C111.348 60.0339 110.433 60.3292 109.746 60.8724C109.058 61.4156 108.567 62.1809 108.159 62.9696C107.997 63.2833 107.776 63.6498 107.431 63.6458C107.146 63.5015 107.157 63.068 107.296 62.7731C107.336 62.6879 107.384 62.6047 107.431 62.5216C107.547 62.3169 107.664 62.1125 107.671 61.8795C107.69 61.2845 107.035 60.9457 106.488 60.7574C105.942 60.5697 105.282 60.4019 104.842 60.7844C104.523 61.0625 104.449 61.5321 104.396 61.9601L104.216 63.4139C103.278 63.743 102.244 63.7726 101.29 63.4977C102.419 62.7946 103.66 61.9269 103.87 60.5833C105.844 59.8211 107.966 59.4675 110.073 59.5494ZM60.6423 140.024C60.8417 139.009 60.7232 137.719 59.788 137.281C59.1402 136.978 58.4379 137.23 57.7362 137.481C57.4735 137.575 57.2108 137.669 56.9512 137.734C55.4919 138.098 53.834 137.413 53.0551 136.123C52.4648 135.146 50.8309 135.657 50.2889 136.662C49.9467 137.296 49.8557 138.016 49.7644 138.738C49.711 139.16 49.6575 139.584 49.5537 139.992C49.2722 141.099 48.2676 142.238 47.175 141.913C46.3047 141.655 45.2896 141.999 44.7552 142.735C44.2208 143.47 44.205 144.545 44.7174 145.296C45.3399 146.208 46.4645 146.487 47.5714 146.763C47.8874 146.841 48.202 146.919 48.5031 147.012C49.0214 147.171 49.552 147.411 49.8491 147.866C50.1462 148.32 50.0943 149.036 49.6208 149.3C48.8452 149.734 48.9089 151.012 49.6115 151.556C50.314 152.1 51.3535 151.999 52.1209 151.551C52.8882 151.103 53.445 150.375 53.9813 149.666C54.8065 148.575 56.5459 148.331 57.6375 149.155C57.6318 148.202 58.1726 147.266 58.9993 146.796C59.826 146.327 60.9055 146.343 61.7175 146.838C62.4287 146.55 62.3816 145.477 61.9409 144.847C61.7618 144.591 61.5413 144.365 61.3215 144.14C61.0005 143.81 60.6809 143.482 60.4939 143.066C60.1425 142.285 60.3386 141.406 60.5295 140.55C60.5689 140.373 60.6081 140.197 60.6423 140.024ZM58.1673 138.271C58.7367 138.14 59.4161 138.206 59.7817 138.663C60.2568 139.257 59.9439 139.979 59.617 140.733C59.3503 141.349 59.0744 141.986 59.2097 142.592C59.3168 143.072 59.6716 143.451 60.0122 143.805L61.6251 145.48C60.9421 146.115 59.998 145.856 59.0293 145.589C58.1581 145.349 57.2669 145.104 56.5277 145.499C55.9866 145.788 55.6757 146.355 55.3761 146.9C55.3407 146.964 55.3054 147.029 55.27 147.092C54.3372 148.76 52.9709 150.182 51.343 151.178C51.1356 151.305 50.9061 151.43 50.6643 151.406C50.0735 151.348 49.9247 150.534 50.0732 149.958C50.2482 149.279 50.6047 148.65 50.9581 148.026C51.4684 147.125 51.9724 146.235 51.9143 145.225C51.2934 146.255 49.9433 146.647 48.755 146.479C47.5667 146.311 46.4969 145.691 45.4612 145.083C44.746 144.663 45.0021 143.457 45.7152 143.034C46.4283 142.611 47.323 142.725 48.1432 142.844C48.9633 142.962 49.8664 143.055 50.5601 142.601C50.2182 141.077 50.2955 139.462 50.7813 137.978C50.9566 137.443 51.2121 136.891 51.6937 136.601C52.1754 136.311 52.929 136.429 53.1291 136.956C53.6254 138.261 55.1347 139.09 56.4995 138.807C56.796 138.745 57.0802 138.639 57.3644 138.532C57.6286 138.433 57.8929 138.334 58.1673 138.271ZM57.8522 146.081C57.9896 146.555 57.914 147.086 57.6499 147.502L57.7264 147.58C57.2702 147.82 56.6869 147.795 56.2527 147.517L56.7132 146.33C57.0595 146.142 57.4593 146.055 57.8522 146.081ZM183.478 166.62C182.005 164.249 181.044 161.571 180.678 158.816C181.69 159.074 182.212 160.183 182.379 161.198C182.426 161.482 182.456 161.771 182.487 162.06V162.06C182.566 162.804 182.645 163.548 182.997 164.203C183.486 165.112 184.805 165.703 185.587 165.021C185.781 164.852 185.928 164.62 186.072 164.392C186.308 164.02 186.537 163.658 186.956 163.595C187.475 163.517 187.898 163.979 188.212 164.393L190.139 166.937C190.643 166.787 190.676 166.251 190.711 165.683C190.733 165.334 190.755 164.973 190.889 164.682C191.197 164.009 191.957 163.901 192.749 163.788C193.305 163.709 193.877 163.627 194.319 163.347C195.113 162.843 195.326 161.735 195.031 160.852C194.735 159.968 194.045 159.272 193.33 158.664C192.294 157.782 192.476 156.351 192.66 154.904C192.837 153.515 193.015 152.112 192.124 151.163C190.879 149.839 188.665 150.544 187.018 151.336L186.317 150.534C187.661 150.044 187.904 148.082 187.028 146.965C186.153 145.849 184.604 145.466 183.17 145.46C182.963 145.459 182.738 145.47 182.578 145.601C182.081 146.006 182.782 146.718 183.382 146.954L186.311 148.103C185.634 148.562 184.74 148.291 183.873 148.027C182.932 147.741 182.022 147.464 181.453 148.14C180.814 148.899 181.488 150.082 182.354 150.577C182.689 150.768 183.053 150.912 183.416 151.055C183.992 151.283 184.565 151.51 185.014 151.922C184.431 152.215 183.768 152.001 183.123 151.794L183.123 151.794C182.959 151.741 182.796 151.688 182.636 151.645C181.846 151.429 180.701 151.698 180.711 152.505C179.899 151.608 180.113 150.231 180.377 149.058C180.674 147.743 180.995 146.381 181.84 145.322C182.685 144.263 184.216 143.605 185.458 144.168C186.518 144.648 187.014 145.781 187.487 146.862L187.488 146.864C187.56 147.03 187.632 147.194 187.706 147.355C188.258 148.563 189.358 149.843 190.676 149.57C191.871 149.322 193.068 150.212 193.568 151.309C194.067 152.406 194.039 153.657 194.001 154.859C193.963 156.063 194.51 157.167 195.055 158.268L195.056 158.268C195.239 158.638 195.422 159.008 195.582 159.381C196.221 160.863 196.39 162.855 195.089 163.832C194.649 164.163 194.112 164.316 193.574 164.469C193.327 164.54 193.079 164.61 192.84 164.698C192.082 164.977 191.316 165.601 191.38 166.395C191.388 166.499 191.411 166.603 191.434 166.706C191.472 166.881 191.51 167.055 191.478 167.23C191.387 167.722 190.752 167.955 190.264 167.816C189.776 167.676 189.411 167.287 189.071 166.915L186.918 164.55C186.317 165.821 184.901 166.673 183.478 166.62ZM183.151 90.2209C181.646 88.5867 179.801 87.0968 177.605 86.7651C177.374 86.7301 177.14 86.7082 176.906 86.6863C176.433 86.6423 175.962 86.5982 175.515 86.4469C174.917 86.2445 174.397 85.8613 173.916 85.4521C173.264 84.8978 172.636 84.2726 172.007 83.6461C170.155 81.803 168.291 79.9481 165.777 79.8505C163.13 79.7477 160.644 82.1253 160.626 84.7776C160.611 87.0027 162.051 88.94 163.424 90.6902L187.297 121.131L202.099 140.005C204.011 142.441 206.522 145.139 209.588 144.714C212.343 144.332 214.194 141.095 213.409 138.424C213.107 137.398 212.512 136.502 211.917 135.604C211.397 134.821 210.877 134.037 210.549 133.163C210.027 131.772 210.031 130.277 210.036 128.776C210.04 127.627 210.043 126.474 209.81 125.361C209.295 122.893 207.671 120.822 206.018 118.92C205.124 117.891 204.176 116.367 205.031 115.305C206.048 114.041 205.54 112.175 204.898 110.685C202.836 105.902 199.841 101.523 196.133 97.8673C194.545 96.3021 192.234 94.7785 190.248 95.7892C189.41 96.2153 188.409 95.6922 187.679 95.0998C186.514 94.1534 185.543 93.004 184.571 91.8537C184.105 91.3022 183.639 90.7506 183.151 90.2209ZM163.002 82.211C163.984 81.25 165.468 80.8346 166.806 81.1465C168.335 81.5029 169.518 82.6876 170.552 83.8703C173.279 86.9906 175.579 90.4521 177.874 93.9063C178.13 94.292 178.387 94.6777 178.643 95.0628C188.297 109.54 198.856 123.412 210.237 136.572C211.351 137.86 212.552 139.448 212.116 141.094C211.624 142.958 209.169 143.681 207.359 143.021C205.549 142.361 204.263 140.777 203.07 139.263L163.699 89.2662C162.917 88.273 162.112 87.2315 161.853 85.9935C161.572 84.6479 162.02 83.1721 163.002 82.211ZM194.917 111.399C194.124 110.374 193.275 109.366 192.198 108.646C191.678 108.299 191.092 108 190.506 107.701C189.007 106.935 187.51 106.171 187.144 104.613C187.028 104.118 187.054 103.609 187.08 103.098C187.101 102.699 187.121 102.3 187.074 101.906C186.997 101.259 186.739 100.648 186.459 100.06C184.334 95.5988 180.682 91.8836 176.26 89.6842C175.527 89.3196 175.981 88.0481 176.784 87.8901C177.587 87.7322 178.353 88.2532 178.993 88.7646C185.315 93.822 189.936 100.505 194.571 107.208C197.399 111.298 200.233 115.396 203.462 119.137C203.772 119.496 204.087 119.854 204.403 120.213C206.159 122.207 207.929 124.218 208.984 126.644C207.599 126.892 206.399 127.98 206.017 129.336C203.709 127.161 202.314 124.261 200.928 121.377C200.572 120.638 200.217 119.899 199.847 119.174C198.45 116.436 196.797 113.829 194.917 111.399ZM201.476 113.969C201.331 114.111 201.151 114.234 200.948 114.242C200.603 114.256 200.341 113.947 200.138 113.667L190.888 100.975C190.532 100.487 190.78 99.7278 191.298 99.4178C191.817 99.1079 192.495 99.1811 193.032 99.4555C193.57 99.7299 193.996 100.178 194.404 100.623C196.89 103.338 199.117 106.29 201.044 109.427C201.475 110.129 201.899 110.859 202.057 111.668C202.215 112.477 202.064 113.392 201.476 113.969ZM202.83 112.725C202.996 112.073 202.715 111.398 202.424 110.792C200.33 106.429 197.392 102.474 193.82 99.2117C193.242 98.6839 192.489 98.1377 191.745 98.3822C191.471 98.4724 191.248 98.6588 191.024 98.846C190.893 98.9551 190.762 99.0645 190.62 99.1554C190.235 99.4024 189.623 99.453 189.404 99.0511C189.235 98.7403 189.412 98.3504 189.648 98.0867C190.461 97.1772 191.892 97.0523 193.036 97.4747C194.18 97.8971 195.099 98.76 195.962 99.6221C199.072 102.727 201.972 106.225 203.33 110.406C203.937 112.272 204.129 114.563 202.766 115.973C202.652 116.091 202.526 116.202 202.372 116.256C201.885 116.426 201.376 115.907 201.365 115.39C201.353 114.874 201.671 114.413 202.002 114.017C202.037 113.975 202.073 113.932 202.109 113.89C202.409 113.535 202.716 113.172 202.83 112.725ZM182.756 95.4539C184.015 97.2864 185.11 99.2322 186.022 101.26C186.147 101.539 186.263 101.886 186.076 102.128C185.941 102.304 185.66 102.343 185.482 102.211C182.858 99.0212 180.493 95.6173 178.419 92.0443C178.604 92.1114 178.877 92.0124 178.86 91.8154C180.529 92.4959 181.735 93.9672 182.756 95.4539ZM191.953 110.922C191.722 110.587 191.526 110.052 191.875 109.843C193.413 110.539 194.465 111.975 195.424 113.366C196.822 115.394 198.173 117.454 199.476 119.544C199.788 120.045 200.057 120.795 199.578 121.139C198.761 120.769 198.212 119.996 197.702 119.258L191.953 110.922ZM207.24 129.93C207.117 129.876 207.031 129.761 206.973 129.64C206.624 128.91 207.386 127.934 208.178 128.096C208.213 128.807 208.015 129.527 207.622 130.121C207.582 130.026 207.478 129.999 207.373 129.972C207.327 129.96 207.281 129.947 207.24 129.93ZM209.033 131.642C208.791 131.905 208.321 131.905 208.079 131.641C207.824 130.972 208.132 130.136 208.761 129.794L209.033 131.642Z" fill="#00160A"/>
</svg>
